<?xml version="1.0" standalone="no"?>
<!DOCTYPE svg PUBLIC "-//W3C//DTD SVG 1.1//EN" "http://www.w3.org/Graphics/SVG/1.1/DTD/svg11.dtd" >
<svg xmlns="http://www.w3.org/2000/svg">
<metadata></metadata>
<defs>
<font id="brezelgroteskregular" horiz-adv-x="1302" >
<font-face units-per-em="2048" ascent="1536" descent="-512" />
<missing-glyph horiz-adv-x="512" />
<glyph unicode="&#xfb01;" horiz-adv-x="1040" d="M31 850v174h133q-2 131 31.5 232t93.5 160.5t135 89.5t162 30q158 0 243.5 -69.5t85.5 -178.5q0 -22 -2.5 -42t-4.5 -29l-3 -9h-164q7 14 7 37q0 48 -35.5 80.5t-118.5 32.5q-55 0 -95 -15t-73 -51t-49.5 -103t-16.5 -165h578v-1024h-201v850h-375v-850h-196v850h-135z " />
<glyph unicode="&#xfb02;" horiz-adv-x="1060" d="M31 852v172h133q0 95 15.5 173.5t44 133.5t65 95.5t81.5 64t90.5 34.5t94.5 11q115 0 182 -57v37h201v-1516h-201v1274q-20 38 -60.5 65t-96.5 27q-51 0 -89.5 -16.5t-61.5 -47t-38 -62.5t-21 -76t-8 -73t-2 -67h222v-172h-220v-852h-196v852h-135z" />
<glyph horiz-adv-x="2048" />
<glyph horiz-adv-x="2048" />
<glyph unicode="&#xd;" horiz-adv-x="2048" />
<glyph unicode=" "  horiz-adv-x="512" />
<glyph unicode="&#x09;" horiz-adv-x="512" />
<glyph unicode="&#xa0;" horiz-adv-x="512" />
<glyph unicode="!" horiz-adv-x="481" d="M102 119q0 57 41.5 97t98.5 40t97 -40t40 -97t-40 -98t-97 -41t-98.5 41t-41.5 98zM145 387v1047h197v-1047h-197z" />
<glyph unicode="&#x22;" horiz-adv-x="473" d="M72 1010v424h102v-424h-102zM299 1010v424h102v-424h-102z" />
<glyph unicode="#" horiz-adv-x="1351" d="M72 489v103h272l102 287h-237v102h272l162 453h111l-162 -453h340l162 453h110l-162 -453h238v-102h-272l-101 -287h238v-103h-275l-172 -489h-110l172 489h-340l-172 -489h-111l172 489h-237zM457 592h338l102 287h-340z" />
<glyph unicode="$" horiz-adv-x="1159" d="M133 289q0 32 6.5 62.5t13.5 44.5l7 14h194q-16 -34 -16 -97q0 -128 192 -141v467q-39 15 -60.5 23.5t-57.5 24.5t-57.5 29t-51.5 33.5t-48 40t-38.5 47t-31 57t-18 67t-7.5 79.5q0 155 100 255.5t270 115.5v123h107v-123q116 -8 197 -50.5t117 -102t36 -130.5 q0 -33 -4 -59t-8 -35l-4 -10h-195q12 25 12 78q0 41 -34 75t-117 42v-406q152 -60 216 -100q163 -104 181 -287q2 -24 2 -49q0 -73 -22.5 -139t-68.5 -122.5t-125 -92t-183 -41.5v-158h-107v158q-181 13 -289 90.5t-108 216.5zM371 1040q0 -64 41 -107t118 -77v363 q-159 -20 -159 -179zM637 172q100 10 146 66t46 139q0 81 -49.5 131t-142.5 90v-426z" />
<glyph unicode="%" horiz-adv-x="1404" d="M52 955q-3 61 1 122q6 161 72 248.5t190 87.5t189 -87t71 -249q4 -61 1.5 -122t-8.5 -116t-25 -102.5t-46.5 -82.5t-74 -54.5t-107.5 -19.5q-62 0 -108.5 19.5t-74 54.5t-46.5 82.5t-25 102.5t-9 116zM194.5 942.5q3.5 -58.5 12 -107t36.5 -80.5t72 -32q45 0 73 32 t36.5 80.5t12 107t-0.5 112.5q-3 108 -31 160.5t-90 52.5q-61 0 -89 -52.5t-31 -160.5q-4 -54 -0.5 -112.5zM389 -23l569 1506l78 -31l-567 -1501zM827 331v146q6 161 72.5 248.5t190.5 87.5t189 -87t71 -249q4 -61 1.5 -122t-8.5 -116t-25 -102.5t-46.5 -82.5t-74 -54.5 t-107.5 -19.5q-73 0 -125.5 28t-79 76t-42.5 112t-16 135zM968.5 342.5q3.5 -58.5 12.5 -107t37 -80.5t72 -32q45 0 73 32t36 80.5t11.5 107t-0.5 112.5q-3 109 -30.5 161t-89.5 52q-61 0 -89.5 -52.5t-31.5 -160.5q-4 -54 -0.5 -112.5z" />
<glyph unicode="&#x26;" horiz-adv-x="1150" d="M61 362q0 111 54.5 212t154.5 167q-67 85 -101 174.5t-34 167.5q0 138 97.5 234t263.5 96q152 0 254 -81.5t102 -225.5q0 -234 -299 -397q158 -211 240 -289q41 115 34 266h201q0 -252 -74 -414q45 -38 86 -56t101 -15v-201q-64 -2 -122 17t-88 38.5t-83 59.5 q-64 -68 -140.5 -101.5t-197.5 -33.5q-113 0 -201 31t-141 85t-80 121.5t-27 144.5zM270 369q0 -84 58.5 -140.5t171.5 -56.5q116 0 186 70q-124 107 -299 342q-56 -38 -86.5 -94.5t-30.5 -120.5zM344 1071q0 -52 26.5 -111t69.5 -106q110 69 159.5 123t49.5 115t-42 96 t-107 35q-73 0 -114.5 -43.5t-41.5 -108.5z" />
<glyph unicode="'" horiz-adv-x="286" d="M92 1102v332h103v-332h-103z" />
<glyph unicode="(" horiz-adv-x="434" d="M94 518q1 162 25.5 318.5t59.5 263t69.5 190.5t59.5 124l24 40h102q-10 -15 -26 -42t-56.5 -120t-72 -194.5t-57 -259.5t-25.5 -320q0 -129 13 -249.5t33.5 -211t45.5 -169.5t50.5 -132t46 -91.5t33.5 -56.5l13 -18h-102q-10 12 -26 36t-57 109t-72 183.5t-56.5 260.5 t-24.5 339z" />
<glyph unicode=")" horiz-adv-x="434" d="M0 1454h102q10 -15 25.5 -42t56.5 -120t72.5 -194.5t57 -259.5t26.5 -320q1 -177 -23.5 -337.5t-59 -263.5t-69.5 -180.5t-60 -112.5l-24 -34h-102q10 12 25.5 36t56.5 109t72 183.5t56.5 260.5t25.5 339q0 162 -24.5 318.5t-59.5 263t-70 190.5t-60 124z" />
<glyph unicode="*" horiz-adv-x="663" d="M72 1067l155 90l9 4q-5 0 -9 4l-155 90l49 84l155 -90q1 -1 2.5 -2l3 -2t1.5 -2v191h98v-181q0 -8 -2 -10l8 6l156 90l49 -84l-156 -90q-4 -4 -10 -4q1 -1 10 -4l156 -90l-49 -84l-156 90l-8 4q2 0 2 -8v-180h-98v186l-9 -4l-153 -88z" />
<glyph unicode="+" horiz-adv-x="1019" d="M82 612v103h377v379h102v-379h377v-103h-377v-374h-102v374h-377z" />
<glyph unicode="," horiz-adv-x="415" d="M82 -295l104 508h127l-104 -508h-127z" />
<glyph unicode="-" horiz-adv-x="804" d="M102 518v184h600v-184h-600z" />
<glyph unicode="." horiz-adv-x="604" d="M164 127q0 57 41 97t98 40t97 -40t40 -97t-40 -98t-97 -41t-98 41t-41 98z" />
<glyph unicode="/" horiz-adv-x="817" d="M72 0l542 1434h131l-542 -1434h-131z" />
<glyph unicode="0" horiz-adv-x="1142" d="M115 736.5q0 89.5 11.5 174t29.5 160t54 138.5t83.5 108t118.5 70.5t159 25.5t159 -25.5t118.5 -70.5t83.5 -108t54.5 -138.5t30 -160t11.5 -174t-2 -181.5q-11 -280 -120 -427.5t-335 -147.5t-334.5 147t-119.5 428q-2 92 -2 181.5zM325 757q1 -87 1 -171 q6 -207 64.5 -309.5t180.5 -102.5t181 102.5t65 309.5q4 68 1.5 142t-7.5 144t-22.5 133t-43.5 110.5t-70.5 75.5t-103.5 28q-70 0 -120 -39.5t-74 -104.5t-38.5 -148t-13.5 -170z" />
<glyph unicode="1" horiz-adv-x="935" d="M92 1024v170q166 0 243.5 42.5t98.5 156.5h178v-1203h273v-190h-785v190h293v834h-301z" />
<glyph unicode="2" horiz-adv-x="980" d="M102 0v190l340 363q9 10 27 28q105 111 144 172q75 118 75 257q0 102 -55 155.5t-131 53.5q-90 0 -136.5 -43t-46.5 -95q0 -15 1.5 -29t3.5 -21l2 -7h-193q-10 35 -10 90q0 126 103 212.5t266 86.5q191 0 301 -110t110 -306q0 -259 -244 -514l-276 -293h537v-190h-818z " />
<glyph unicode="3" horiz-adv-x="985" d="M102 297q0 27 7 55.5t13 43.5l7 14h195q-15 -34 -15 -91q0 -71 53 -108t146 -37q78 0 132 59.5t54 184.5q0 260 -207 260q-26 0 -51.5 -6t-37.5 -12l-13 -5l-129 158l346 389h-452v191h704v-191l-328 -362q57 1 108.5 -10t101.5 -41.5t86.5 -78t58.5 -124.5t22 -176 q0 -208 -110 -319t-304 -111q-102 0 -188.5 36t-142.5 109.5t-56 171.5z" />
<glyph unicode="4" horiz-adv-x="1007" d="M41 338v190l465 865h291v-865h139v-190h-139v-338h-193v338h-563zM260 528h344v652h-4z" />
<glyph unicode="5" horiz-adv-x="987" d="M72 297q0 32 6 60.5t12 40.5l6 12h195q-17 -40 -17 -91q0 -71 56.5 -108t146.5 -37q99 0 159 65.5t60 204.5q0 275 -229 275q-41 0 -82.5 -11.5t-62.5 -23.5l-21 -12l-164 166l66 555h647v-191h-473l-39 -323q54 30 156 30q81 0 153 -27.5t130.5 -81.5t93 -143.5 t34.5 -203.5q0 -225 -120 -349t-308 -124q-105 0 -195 34.5t-150 108.5t-60 174z" />
<glyph unicode="6" horiz-adv-x="1032" d="M113 485q0 173 8 300.5t28.5 235.5t54.5 178.5t86.5 120t123.5 71.5t166 22q156 0 244.5 -85.5t88.5 -203.5q0 -24 -5.5 -49t-11.5 -38l-5 -13h-182q14 37 14 78q0 55 -41 88t-117 33q-119 0 -178.5 -101t-62.5 -319q3 4 9 10t28.5 22t48 28t68.5 22t89 10 q124 0 212.5 -64.5t129.5 -167.5t41 -233q0 -211 -103.5 -331t-305.5 -119q-93 1 -169.5 30.5t-135 89t-91 157.5t-32.5 228zM315 424q0 -105 58 -177.5t172 -72.5q111 0 154.5 66.5t43.5 185.5q0 56 -10.5 105.5t-32.5 92t-61.5 67t-91.5 24.5q-80 0 -134 -44t-76 -107.5 t-22 -139.5z" />
<glyph unicode="7" horiz-adv-x="866" d="M20 1188v205h836v-195q-238 -302 -321 -569q-80 -256 -80 -629h-230q0 387 140 737q95 235 260 451h-605z" />
<glyph unicode="8" horiz-adv-x="1085" d="M102 383q0 82 21 148t58.5 109.5t75 70.5t85.5 49q-42 22 -73 45t-61.5 59.5t-46.5 88.5t-16 118q0 65 25 125.5t73 109t125.5 78t174.5 29.5t174.5 -29.5t125 -78t72.5 -109t25 -125.5q0 -66 -16 -118t-46.5 -88.5t-61.5 -59.5t-73 -45q48 -22 85.5 -49t75 -70.5 t58.5 -109.5t21 -148q0 -132 -59.5 -224.5t-157 -135.5t-223.5 -43t-223.5 43t-157.5 135.5t-60 224.5zM313 395q0 -111 64.5 -166t165.5 -55t165 55t64 166t-59.5 177t-169.5 81q-110 -15 -170 -81t-60 -177zM352 1061q0 -164 191 -207q190 43 190 207q0 74 -55 116 t-135 42t-135.5 -42.5t-55.5 -115.5z" />
<glyph unicode="9" horiz-adv-x="1040" d="M82 942q0 136 45 240.5t140.5 167.5t230.5 63q224 0 327 -150t103 -485q0 -192 -18.5 -331.5t-51.5 -229t-88 -142.5t-120 -74t-154 -21q-93 0 -164 24.5t-111 66t-60 89.5t-20 100q0 32 4.5 59t9.5 37l5 11h190q-12 -37 -12 -84q0 -111 154 -111q123 0 175 92.5 t56 327.5q-3 -4 -9.5 -11t-29.5 -24t-49 -30t-69 -24t-89 -11q-193 0 -294 122.5t-101 327.5zM283 954q0 -132 52 -205t154 -73q232 0 232 289q0 108 -56.5 181t-158.5 73q-223 0 -223 -265z" />
<glyph unicode=":" horiz-adv-x="634" d="M164 133q0 63 45 108.5t108 45.5t108.5 -45.5t45.5 -108.5t-45.5 -108t-108.5 -45t-108 45t-45 108zM164 891q0 63 45 108t108 45t108.5 -45t45.5 -108t-45.5 -108.5t-108.5 -45.5t-108 45.5t-45 108.5z" />
<glyph unicode=";" horiz-adv-x="604" d="M154 891q0 63 45 108t108 45t108.5 -45t45.5 -108t-45.5 -108.5t-108.5 -45.5t-108 45.5t-45 108.5zM164 -295l104 508h127l-104 -508h-127z" />
<glyph unicode="&#x3c;" horiz-adv-x="1026" d="M143 590v123l734 358v-131l-598 -289l604 -293v-131z" />
<glyph unicode="=" horiz-adv-x="1163" d="M164 487v103h835v-103h-835zM164 752v102h835v-102h-835z" />
<glyph unicode="&#x3e;" horiz-adv-x="1026" d="M143 227v131l605 293l-598 289v131l733 -358v-123z" />
<glyph unicode="?" horiz-adv-x="995" d="M92 1108q0 151 109.5 248.5t283.5 97.5q182 0 300 -95.5t118 -264.5q0 -55 -12 -105t-25.5 -83t-45 -74.5t-48.5 -60t-58.5 -59.5t-54.5 -55q-55 -57 -72.5 -108.5t-17.5 -159.5h-192q0 140 20 209t90 150q22 25 69.5 70.5t73.5 74t49 77.5t23 103q0 84 -57 137.5 t-151 53.5q-95 0 -150 -49.5t-55 -135.5q0 -25 4 -47t8 -32l4 -9h-186q-27 35 -27 117zM340 119q0 57 41 97t98 40t97 -40t40 -97t-40 -98t-97 -41t-98 41t-41 98z" />
<glyph unicode="@" horiz-adv-x="1662" d="M92 645q0 154 58.5 293t158 239.5t239 160t294.5 59.5q157 0 295 -53t238 -145.5t158 -225.5t58 -287q0 -88 -14.5 -159.5t-37.5 -120t-56.5 -84.5t-67 -56.5t-72.5 -33t-69 -16t-62 -3.5q-38 0 -69 11.5t-48 28.5t-28.5 33.5t-15.5 27.5l-4 12q-3 -5 -10 -14t-32 -31.5 t-56 -40t-84 -31.5t-113 -14q-157 0 -245.5 113t-88.5 290q0 112 38 208.5t98 159t131 97.5t140 35q50 0 91.5 -9t64.5 -22t39 -26t22 -22l5 -9l6 59h161l-57 -551q-9 -97 5 -135.5t63 -38.5q28 0 52.5 3.5t64.5 23t67.5 53t48.5 101.5t21 161q0 269 -176.5 438.5 t-460.5 169.5q-139 0 -259 -51t-202.5 -139t-129 -207t-46.5 -252q0 -177 84 -325.5t230.5 -235t322.5 -86.5q96 0 198.5 22.5t171.5 63.5l48 -90q-81 -47 -194.5 -72.5t-223.5 -25.5q-154 0 -293 58.5t-239 158.5t-159 239t-59 293zM590 610q0 -118 42.5 -190t139.5 -72 t156 58t67 133l21 204q3 34 -2.5 66t-22 64.5t-55.5 52.5t-96 20q-76 0 -134.5 -51t-87 -126.5t-28.5 -158.5z" />
<glyph unicode="A" d="M20 0l512 1434h238l512 -1434h-238l-116 350h-553l-117 -350h-238zM436 539h428l-213 641z" />
<glyph unicode="B" horiz-adv-x="1198" d="M143 0v1434h475q128 0 222 -31t146 -85.5t75.5 -119t23.5 -141.5q0 -114 -53 -192t-129 -113q96 -32 159.5 -121t63.5 -211q0 -214 -130 -317t-373 -103h-480zM362 190h265q270 0 270 234q0 45 -13 82t-42 69.5t-83.5 51t-129.5 18.5h-267v-455zM362 834h250 q131 0 187.5 54t56.5 159q0 96 -60 146t-161 50h-273v-409z" />
<glyph unicode="C" horiz-adv-x="1310" d="M102 686q0 115 24 224t76.5 208t127.5 173.5t184.5 118.5t239.5 44q198 0 315 -104t117 -248q0 -35 -5 -67.5t-9 -48.5l-5 -15h-200q8 32 8 69q0 107 -56 158t-180 51q-183 0 -295 -154t-112 -409q0 -242 105.5 -372t281.5 -130q130 0 194 57t64 162q0 19 -3.5 42.5 t-7.5 36.5l-3 14h202q23 -60 23 -150q0 -50 -16 -99.5t-52 -98t-87.5 -85.5t-130 -60t-171.5 -23q-306 0 -467.5 184t-161.5 522z" />
<glyph unicode="D" horiz-adv-x="1327" d="M143 0v1434h463q136 0 250.5 -49t199 -141t132 -235.5t47.5 -322.5q0 -146 -37.5 -269t-111 -217t-192.5 -147t-273 -53h-478zM362 197h224q86 0 158.5 25t133 79t94.5 150t34 227q0 559 -410 559h-234v-1040z" />
<glyph unicode="E" horiz-adv-x="1044" d="M143 0v1434h820v-197h-601v-410h560v-196h-560v-434h601v-197h-820z" />
<glyph unicode="F" horiz-adv-x="1034" d="M143 0v1434h820v-197h-601v-430h539v-197h-539v-610h-219z" />
<glyph unicode="G" horiz-adv-x="1341" d="M102 686q0 117 24 226.5t77 208.5t128.5 172.5t186 117t242.5 43.5q199 0 320.5 -104.5t121.5 -247.5q0 -35 -4.5 -67.5t-9.5 -48.5l-4 -15h-201q8 32 8 69q0 98 -63 153.5t-183 55.5q-188 0 -300.5 -152t-112.5 -411q0 -242 105.5 -373t281.5 -131q70 0 124.5 21.5 t89 57t57 85.5t31.5 102.5t9 112.5h-342v193h531v-754h-177v139q-46 -69 -133 -114t-200 -45q-288 0 -447.5 185.5t-159.5 520.5z" />
<glyph unicode="H" horiz-adv-x="1325" d="M143 0v1434h228v-613h583v613h228v-1434h-228v621h-583v-621h-228z" />
<glyph unicode="I" horiz-adv-x="559" d="M164 0v1434h231v-1434h-231z" />
<glyph unicode="J" horiz-adv-x="864" d="M10 238q0 36 6 70t12 50l7 15h196q-18 -50 -18 -101q0 -45 36 -74.5t103 -29.5q82 0 115 64t33 221v981h221v-988q0 -109 -17.5 -190t-58 -145.5t-113 -97.5t-176.5 -33q-80 0 -143 17.5t-100 44.5t-61 63t-33 68.5t-9 64.5z" />
<glyph unicode="K" horiz-adv-x="1220" d="M143 0v1434h219v-596l500 596h287l-592 -684l633 -750h-295l-533 641v-641h-219z" />
<glyph unicode="L" horiz-adv-x="997" d="M143 0v1434h230v-1229h573v-205h-803z" />
<glyph unicode="M" horiz-adv-x="1699" d="M143 0v1434h357l350 -1153l364 1153h342v-1434h-219v981q0 63 2.5 122t4.5 87l2 27l-390 -1207h-211l-391 1207q8 -125 8 -236v-981h-219z" />
<glyph unicode="N" horiz-adv-x="1349" d="M143 0v1434h271l577 -1088v1088h215v-1434h-260l-590 1108v-1108h-213z" />
<glyph unicode="O" horiz-adv-x="1400" d="M72 686q0 121 22.5 231.5t72 209t122 171t178 114.5t233.5 42t234 -45t178 -120t122 -175t72.5 -208t22.5 -220q0 -145 -38.5 -270.5t-114 -224t-198 -155t-278.5 -56.5t-278.5 56.5t-197.5 155t-113.5 224t-38.5 270.5zM301 682q0 -76 11 -143.5t39 -134t72 -114 t115 -77t162 -29.5t162 29.5t115 77t72.5 114t39.5 134t11 143.5q0 86 -11.5 163t-40 152.5t-73 130t-115 88t-160.5 33.5t-160.5 -35t-114.5 -91.5t-72.5 -132.5t-40 -151.5t-11.5 -156.5z" />
<glyph unicode="P" horiz-adv-x="1136" d="M143 0v1434h475q116 0 208 -36t147 -96t83.5 -133t28.5 -153q0 -81 -25 -153t-76.5 -133t-140 -96.5t-204.5 -35.5h-277v-598h-219zM362 788h261q114 0 173.5 58.5t59.5 169.5q0 109 -67.5 168t-186.5 59h-240v-455z" />
<glyph unicode="Q" horiz-adv-x="1411" d="M72 686q0 121 22.5 231.5t72 209t122 171t178 114.5t233.5 42t234 -45t178 -120t122 -175t72.5 -208t22.5 -220q0 -169 -51.5 -312t-153.5 -239l101 -98l-135 -131l-125 123q-120 -49 -265 -49q-156 0 -278.5 56.5t-197.5 155t-113.5 224t-38.5 270.5zM301 682 q0 -76 11 -143.5t39 -134t72 -114t115 -77t162 -29.5q52 0 99 9l-125 126l135 132l164 -164q127 130 127 395q0 86 -11.5 163t-40 152.5t-73 130t-115 88t-160.5 33.5t-160.5 -35t-114.5 -91.5t-72.5 -132.5t-40 -151.5t-11.5 -156.5z" />
<glyph unicode="R" horiz-adv-x="1169" d="M143 0v1434h475q116 0 208 -34.5t147 -92.5t83.5 -129.5t28.5 -151.5q0 -133 -72.5 -238.5t-213.5 -146.5l299 -641h-246l-279 618h-211v-618h-219zM362 809h248q114 0 180 55t66 162q0 108 -67 162.5t-187 54.5h-240v-434z" />
<glyph unicode="S" horiz-adv-x="1146" d="M92 352q0 33 7 64t13 46l7 15h217q-19 -32 -19 -98q0 -203 261 -203q137 0 199.5 58t62.5 147q0 43 -17 78t-40 58t-67 46t-77 35.5t-92 32.5q-161 55 -229 95q-163 96 -185 271q-4 31 -4 64q0 172 128 282.5t327 110.5q207 0 322.5 -97t115.5 -257q0 -34 -7 -65t-13 -45 l-7 -15h-213q19 32 19 98q0 91 -62.5 137.5t-154.5 46.5q-106 0 -168 -52.5t-62 -143.5q0 -96 108 -155q46 -26 193 -77q6 -2 11 -4q49 -18 82.5 -31t79 -36t76 -45.5t63.5 -56.5t52.5 -72.5t32.5 -90.5t13 -112q0 -63 -17 -120t-54.5 -109t-93 -89.5t-138.5 -60t-184 -22.5 q-225 0 -355.5 97.5t-130.5 274.5z" />
<glyph unicode="T" horiz-adv-x="1091" d="M41 1233v201h1010v-201h-398v-1233h-219v1233h-393z" />
<glyph unicode="U" horiz-adv-x="1288" d="M123 508v926h229v-936q0 -84 24.5 -146.5t67.5 -97.5t93 -51.5t108 -16.5t108.5 16.5t93.5 51.5t68 97.5t25 146.5v936h225v-926q0 -87 -15.5 -161.5t-53.5 -143.5t-96 -117t-148.5 -77t-206.5 -29q-522 0 -522 528z" />
<glyph unicode="V" horiz-adv-x="1269" d="M31 1434h248l356 -1145l356 1145h248l-481 -1434h-246z" />
<glyph unicode="W" horiz-adv-x="1884" d="M41 1434h244l274 -1100l8 -41q0 14 8 41l248 1100h238l248 -1100l8 -41q0 14 8 41l274 1100h244l-401 -1434h-246l-248 1024q-6 21 -6 39q-2 -5 -6 -39l-242 -1024h-252z" />
<glyph unicode="X" horiz-adv-x="1245" d="M31 0l456 733l2 4l-430 697h265l299 -510l299 510h264l-432 -697l4 -4l456 -733h-258l-333 553l-326 -553h-266z" />
<glyph unicode="Y" horiz-adv-x="1196" d="M31 1434h254l313 -637l313 637h254l-456 -854v-580h-222v580z" />
<glyph unicode="Z" horiz-adv-x="1140" d="M92 0v190l686 1043h-639v201h908v-191l-695 -1042h697v-201h-957z" />
<glyph unicode="[" horiz-adv-x="493" d="M154 -410v1858h278v-92h-176v-1675h176v-91h-278z" />
<glyph unicode="\" horiz-adv-x="817" d="M72 1434h131l542 -1434h-131z" />
<glyph unicode="]" horiz-adv-x="493" d="M61 -319h177v1675h-177v92h279v-1858h-279v91z" />
<glyph unicode="^" horiz-adv-x="1249" d="M154 651l430 783h82l430 -785h-117l-354 664l-355 -664z" />
<glyph unicode="_" horiz-adv-x="1110" d="M41 -23h1028v-108h-1028v108z" />
<glyph unicode="`" horiz-adv-x="720" d="M123 1438h295l180 -269h-186z" />
<glyph unicode="a" horiz-adv-x="970" d="M61 281q0 77 28.5 134.5t81 92.5t116 55t145.5 29q99 13 150.5 31t70.5 45.5t19 74.5q0 36 -18.5 62t-48.5 39t-60.5 18.5t-63.5 5.5q-89 0 -141.5 -32.5t-52.5 -102.5q0 -19 4 -37.5t8 -27.5l4 -9h-180q-27 49 -27 119q0 122 104.5 194t286.5 72q57 0 104.5 -7.5 t103.5 -32.5t94 -67t64 -118t26 -178v-641h-195v115h-6q-34 -52 -108 -93.5t-167 -41.5q-165 0 -253.5 81t-88.5 220zM258 285q0 -61 42.5 -96t131.5 -35q117 0 181.5 69t64.5 166v117h-6q-38 -58 -213 -82q-105 -13 -153 -47t-48 -92z" />
<glyph unicode="b" horiz-adv-x="1089" d="M123 0v1516h196v-607q37 54 110 94.5t165 40.5q104 0 186 -43t133.5 -117.5t78 -170.5t26.5 -207q0 -147 -46 -264t-144 -189.5t-236 -72.5q-101 0 -172.5 46t-108.5 99h-4v-125h-184zM309 492q0 -57 12 -110t39 -104.5t79.5 -82.5t123.5 -31q65 0 114 28.5t77 76 t41.5 102.5t13.5 116q0 373 -246 373q-59 0 -104.5 -22.5t-73 -58t-45.5 -85t-24.5 -98.5t-6.5 -104z" />
<glyph unicode="c" horiz-adv-x="978" d="M72 483q0 112 30 212t86 178.5t145.5 124.5t201.5 46q152 0 254 -75.5t102 -202.5q0 -31 -5.5 -62t-11.5 -46l-6 -15h-182q10 33 10 80q0 39 -15.5 67t-42 42.5t-54 21t-58.5 6.5q-70 0 -120.5 -33.5t-76.5 -89.5t-37 -114t-11 -121q0 -69 12 -126t40 -106.5t80 -77.5 t124 -28q84 0 130 42t46 118q0 18 -2 34.5t-4 23.5l-2 7h176q16 -41 16 -88q0 -111 -48 -185t-125.5 -105t-182.5 -31q-120 0 -210.5 36.5t-146.5 104t-84 158.5t-28 204z" />
<glyph unicode="d" horiz-adv-x="1089" d="M72 506q0 107 26.5 202t77.5 171t135 120.5t191 44.5q86 0 158.5 -36.5t109.5 -96.5v605h197v-1516h-185v125h-6q-85 -145 -272 -145q-213 0 -322.5 143.5t-109.5 382.5zM281 487q0 -61 14.5 -116.5t43 -103t78 -75.5t113.5 -28q60 0 105.5 20.5t72 52.5t43.5 76.5 t23 86.5t6 89q0 68 -13 130t-40.5 118t-78.5 89.5t-120 33.5q-59 0 -104 -23.5t-71.5 -59.5t-43 -87.5t-22.5 -99.5t-6 -103z" />
<glyph unicode="e" horiz-adv-x="999" d="M72 489q0 113 27.5 211.5t81.5 176t142 122.5t201 45q121 0 212.5 -57.5t136.5 -147.5t45 -196q0 -82 -27 -180h-623q10 -146 72.5 -222.5t196.5 -76.5q96 0 136 38t40 87l-6 41h176q12 -33 12 -80q0 -51 -22.5 -98.5t-65.5 -86t-112 -62t-154 -23.5q-229 0 -349 138.5 t-120 370.5zM276 625h445q2 17 2 34q0 21 -3 42q-5 37 -24 76t-65 63t-115 24q-108 0 -171 -68.5t-69 -170.5z" />
<glyph unicode="f" horiz-adv-x="675" d="M61 850v174h136v141q0 55 7 103t27.5 99t53 87t87.5 59t128 23q108 0 178 -56t70 -159q0 -20 -4 -40.5t-8 -30.5l-5 -11h-158q11 18 11 45q0 33 -21 54.5t-65 21.5q-107 0 -107 -172v-164h225v-174h-223v-850h-196v850h-136z" />
<glyph unicode="g" horiz-adv-x="956" d="M51 -158q0 24 5.5 49.5t10.5 38.5l5 13h182q-14 -27 -14 -74q0 -57 58 -90t163 -33q233 0 233 123q0 66 -61.5 90t-192.5 31q-60 3 -103.5 8t-94.5 19t-83 36t-53.5 60.5t-21.5 91.5q0 58 31 105t67 77q-104 98 -104 260q0 172 111 284.5t284 112.5q135 0 238 -73l114 90 l111 -141l-111 -89q41 -80 41 -184q0 -154 -102 -259t-285 -105q-83 0 -157 22q-39 -35 -39 -69q0 -20 13.5 -33t43.5 -19.5t59.5 -10t77.5 -6.5l45 -3q63 -4 108.5 -11.5t97 -27t83.5 -50t53 -83t21 -123.5q0 -101 -57 -169.5t-150 -99t-217 -30.5q-86 0 -158 15.5 t-129.5 47t-90 85t-32.5 124.5zM274 653q0 -76 51 -134t146 -58q93 0 146 55.5t53 134.5q0 103 -52 158t-147 55q-91 0 -144 -58.5t-53 -152.5z" />
<glyph unicode="h" horiz-adv-x="1026" d="M113 0v1516h196v-596q26 43 98 83.5t156 40.5q189 0 280 -114.5t91 -313.5v-616h-203v586q0 274 -196 274q-98 0 -163 -67t-65 -203v-590h-194z" />
<glyph unicode="i" horiz-adv-x="507" d="M102 1303q0 66 43 108.5t109 42.5t109 -42.5t43 -108.5t-43 -109t-109 -43t-109 43t-43 109zM152 0v1024h204v-1024h-204z" />
<glyph unicode="j" horiz-adv-x="557" d="M-174 -211q0 22 4 43t8 31l4 10h168q-6 -16 -6 -45q0 -26 7.5 -42.5t22 -23.5t27 -9.5t29.5 -2.5q63 0 83 52t20 196v1026h200v-985q0 -182 -31.5 -284.5t-95 -143.5t-172.5 -41q-127 0 -197.5 56.5t-70.5 162.5zM141 1303q0 66 43 108.5t109 42.5t108.5 -42.5 t42.5 -108.5t-42.5 -109t-108.5 -43t-109 43t-43 109z" />
<glyph unicode="k" horiz-adv-x="946" d="M113 0v1516h196v-854l342 362h269l-443 -455l469 -569h-254l-385 469v-469h-194z" />
<glyph unicode="l" horiz-adv-x="434" d="M113 0v1516h209v-1516h-209z" />
<glyph unicode="m" horiz-adv-x="1556" d="M113 0v1024h192v-113h4q34 53 98.5 93t153.5 40q78 0 145.5 -40.5t104.5 -110.5q107 151 285 151q368 0 368 -446v-598h-200v571q0 150 -45 214.5t-140 64.5q-96 0 -144 -65.5t-48 -213.5v-571h-201v571q0 151 -45 215t-137 64q-195 0 -195 -279v-571h-196z" />
<glyph unicode="n" horiz-adv-x="1030" d="M113 0v1024h198v-119h4q38 63 105.5 101t150.5 38q172 0 269.5 -115t97.5 -333v-596h-205v571q0 281 -205 281q-213 0 -213 -281v-571h-202z" />
<glyph unicode="o" horiz-adv-x="1064" d="M72 487q0 90 17.5 171.5t55 152t91 122.5t129.5 81.5t167 29.5q113 0 202.5 -45.5t145 -123.5t84.5 -177t29 -211q0 -105 -27.5 -195t-82 -161t-144.5 -111t-207 -40q-121 0 -212 40t-144 111.5t-78.5 160t-25.5 195.5zM281 487q0 -48 7 -91.5t24.5 -87t45 -74.5 t72.5 -50.5t102 -19.5q69 0 119.5 26.5t78.5 72.5t41 101t13 121q0 52 -6.5 101t-24.5 100t-45.5 88.5t-72.5 61.5t-103 24q-71 0 -123 -35.5t-78.5 -94t-38 -118.5t-11.5 -125z" />
<glyph unicode="p" horiz-adv-x="1089" d="M123 -410v1434h184v-115h6q40 55 108 95t165 40q138 0 237.5 -74.5t147 -194.5t47.5 -269q0 -147 -46 -264t-144 -189.5t-236 -72.5q-181 0 -268 102h-5v-492h-196zM309 492q0 -57 12 -110t39 -104.5t79.5 -82.5t123.5 -31q65 0 114 28.5t77 76t41.5 102.5t13.5 116 q0 373 -246 373q-59 0 -104.5 -22.5t-73 -58t-45.5 -85t-24.5 -98.5t-6.5 -104z" />
<glyph unicode="q" horiz-adv-x="1089" d="M72 506q0 107 27.5 202t79.5 171t137 120.5t192 44.5q92 0 160.5 -36t107.5 -97h6v113h185v-1434h-197v500h-6q-81 -110 -254 -110q-214 0 -326 144t-112 382zM281 487q0 -61 15.5 -117t45.5 -103t80.5 -75t114.5 -28q243 0 243 325q0 68 -13 130t-40.5 118t-78.5 89.5 t-120 33.5q-59 0 -104 -23.5t-71.5 -59.5t-43 -87.5t-22.5 -99.5t-6 -103z" />
<glyph unicode="r" horiz-adv-x="817" d="M113 0v1024h188v-127h4q93 147 256 147q103 0 174.5 -67.5t71.5 -175.5q0 -36 -5.5 -70.5t-11.5 -50.5l-6 -16h-182q16 30 16 73q0 55 -30 84t-78 29q-34 0 -66 -16.5t-62.5 -52.5t-49.5 -105.5t-19 -163.5v-512h-200z" />
<glyph unicode="s" horiz-adv-x="942" d="M82 250q0 30 5.5 57.5t10.5 40.5l6 12h189q-14 -26 -14 -61q0 -141 198 -141q85 0 138 29t53 89q0 62 -50.5 92.5t-152.5 55.5q-139 35 -189 57q-143 63 -167 197q-5 30 -5 63q0 144 100.5 223.5t266.5 79.5q97 0 177 -27.5t131.5 -87.5t51.5 -143q0 -27 -6 -54t-12 -40 l-6 -14h-178q12 22 12 61q0 64 -45.5 95.5t-122.5 31.5q-178 0 -178 -118q0 -25 11.5 -45.5t28.5 -33t47.5 -24.5t55 -18.5t65.5 -16.5q11 -3 17 -4q43 -10 69.5 -17t66.5 -21t65 -28.5t54.5 -38t45.5 -51.5t27.5 -67t11.5 -86q0 -161 -100.5 -240.5t-286.5 -79.5 q-182 0 -286.5 75t-104.5 198z" />
<glyph unicode="t" horiz-adv-x="765" d="M51 850v174h154v266h196v-266h281v-174h-281v-561q0 -66 26.5 -95.5t64.5 -29.5q43 0 66.5 18t23.5 45q0 13 -2 27t-4 22l-1 7h166q15 -47 15 -84q0 -90 -74 -154.5t-190 -64.5q-287 0 -287 321v549h-154z" />
<glyph unicode="u" horiz-adv-x="1028" d="M92 395v629h201v-604q0 -78 18 -130.5t51 -76.5t66 -32.5t76 -8.5q96 0 155.5 69.5t59.5 231.5v551h196v-1024h-184v102h-4q-95 -122 -272 -122q-171 0 -267 106.5t-96 308.5z" />
<glyph unicode="v" horiz-adv-x="935" d="M20 1024h224l207 -752l18 -75q0 12 18 75l205 752h223l-319 -1024h-256z" />
<glyph unicode="w" horiz-adv-x="1529" d="M31 1024h223l180 -752q9 -41 15 -53q0 12 12 53l198 752h211l199 -752q12 -47 12 -53q0 2 15 53l180 752h223l-293 -1024h-237l-203 745h-2l-203 -745h-237z" />
<glyph unicode="x" horiz-adv-x="962" d="M31 0l340 524l-332 500h235l207 -338l207 338h236l-332 -500l340 -524h-240l-211 367l-211 -367h-239z" />
<glyph unicode="y" horiz-adv-x="958" d="M31 1024h225l225 -692q3 -20 6 -23q0 2 7 23l225 692h209l-348 -981q-71 -202 -158.5 -300.5t-216.5 -98.5q-30 0 -59.5 5.5t-43.5 10.5l-14 6v172q29 -18 78 -18q83 0 127 45t80 149l14 41z" />
<glyph unicode="z" horiz-adv-x="874" d="M61 0v172l498 674h-471v178h711v-172l-500 -674h514v-178h-752z" />
<glyph unicode="{" horiz-adv-x="720" d="M31 514v96q26 2 78.5 20.5t101.5 49.5q18 11 31 23.5t22 27t14.5 30.5t8.5 35t4.5 40.5t1.5 46v53.5v35q0 62 2.5 109.5t9.5 100.5t19.5 91t34 74.5t51 59t72 35.5t96.5 13q48 0 112 -12v-105q-58 15 -100 15q-47 0 -81 -15.5t-55 -42.5t-32.5 -72t-16 -94.5t-4.5 -119.5 v-59q2 -46 0.5 -87.5t-6 -78t-18.5 -68.5t-37 -59.5t-61.5 -51.5t-92.5 -43q53 -19 92 -45.5t62 -57.5t37 -68t18.5 -77t6 -85t-0.5 -93v-59q0 -68 3.5 -116t13.5 -94t27.5 -73.5t47.5 -44t72 -16.5q68 0 125 14v-104q-61 -13 -127 -13q-51 0 -91.5 14t-68.5 36.5t-48.5 59 t-32 75t-18.5 91.5t-9 99.5t-2 108.5v35q0 54 -0.5 80t-4.5 66t-12 62t-24.5 45.5t-40.5 38.5q-50 31 -102.5 51.5t-77.5 22.5z" />
<glyph unicode="|" horiz-adv-x="430" d="M164 -332v1766h102v-1766h-102z" />
<glyph unicode="}" horiz-adv-x="720" d="M31 -254q57 -14 125 -14q35 0 61.5 10.5t44.5 33t29.5 50.5t17.5 69.5t8 83t2 97.5q0 19 -0.5 63.5t-0.5 63t2 57t5.5 57t11 50.5t18 49.5t27 42t38 40.5t50.5 32.5t65 29.5q-54 19 -92.5 43t-61.5 51.5t-37 60t-19 69t-6.5 78.5t0.5 87v58q0 70 -4 119.5t-16 94.5 t-32.5 72t-54.5 42.5t-81 15.5q-41 0 -100 -15v105q65 12 112 12q54 0 96.5 -13t72 -35.5t51 -59t34 -74.5t19.5 -91t9.5 -100.5t2.5 -109.5v-35q-1 -117 12 -168.5t70 -87.5q49 -31 101.5 -49.5t78.5 -20.5v-96q-25 -2 -77.5 -22.5t-102.5 -51.5q-20 -13 -35 -29t-23.5 -41 t-13.5 -42t-7.5 -56t-2.5 -56.5v-67.5v-35q0 -62 -2 -108.5t-9 -99.5t-18.5 -91.5t-32 -75t-48.5 -59t-68.5 -36.5t-91.5 -14q-66 0 -127 13v104z" />
<glyph unicode="~" horiz-adv-x="1013" d="M102 584q0 88 59 142t152 54q47 0 93 -17.5t69.5 -34t65.5 -50.5q34 -28 54 -42t51.5 -27t62.5 -13q48 0 74 26.5t26 77.5q0 15 -3 31t-6 25l-3 8h100q14 -35 14 -78q0 -89 -59 -143t-152 -54q-46 0 -91 17t-68 33.5t-64 48.5q-37 30 -55 43.5t-51.5 28t-65.5 14.5 q-48 0 -74 -27t-26 -78q0 -15 3 -30.5t6 -24.5l3 -8h-100q-15 35 -15 78z" />
<glyph unicode="&#xa1;" horiz-adv-x="481" d="M102 903q0 57 41.5 98t98.5 41t97 -41t40 -98t-40 -97t-97 -40t-98.5 40t-41.5 97zM145 -412v1047h197v-1047h-197z" />
<glyph unicode="&#xa2;" horiz-adv-x="1071" d="M133 483q0 139 43 257t135 200.5t219 99.5v174h103v-172q138 -9 228.5 -83.5t90.5 -192.5q0 -31 -5.5 -62t-10.5 -46l-6 -15h-182q10 33 10 80q0 59 -36 91.5t-89 41.5v-690q67 7 104 48.5t37 109.5q0 18 -2 34.5t-4 23.5l-2 7h176q16 -41 16 -88q0 -156 -88.5 -234.5 t-236.5 -84.5v-158h-103v160q-200 20 -298.5 152.5t-98.5 346.5zM342 502q0 -287 188 -332v682q-53 -13 -92 -50.5t-59 -89t-28.5 -103t-8.5 -107.5z" />
<glyph unicode="&#xa3;" horiz-adv-x="1081" d="M123 604v123h108q-3 34 -19.5 143t-16.5 183q0 172 114 266t314 94q67 0 130.5 -16t120 -49t91 -91.5t34.5 -134.5q0 -28 -3.5 -52.5t-7.5 -35.5l-3 -10h-194q10 20 10 57q0 62 -50.5 102t-140.5 40q-200 0 -200 -185q0 -28 14.5 -125.5t19.5 -185.5h357v-123h-352v-22 q0 -87 -10.5 -183.5t-21.5 -150.5l-11 -53h575v-195h-809v70q26 137 37.5 203t21 150t9.5 150v31h-117z" />
<glyph unicode="&#xa4;" horiz-adv-x="1398" d="M123 86l215 213q-98 129 -98 287q0 161 100 288l-215 220l72 71l215 -219q128 101 288 101t285 -101l219 217l72 -71l-217 -218q102 -126 102 -288q0 -160 -100 -287l215 -215l-72 -72l-215 215q-121 -102 -289 -102q-160 0 -290 102l-215 -213zM391 586q0 -128 91 -219 t218 -91t217.5 91t90.5 219q0 127 -90 217t-218 90t-218.5 -90t-90.5 -217z" />
<glyph unicode="&#xa5;" horiz-adv-x="1265" d="M82 1393h235l316 -639l315 639h236l-400 -727h217v-101h-272v-123h272v-100h-272v-342h-194v342h-285v100h285v121l-3 2h-282v101h229z" />
<glyph unicode="&#xa6;" horiz-adv-x="430" d="M164 -332v717h102v-717h-102zM164 778v656h102v-656h-102z" />
<glyph unicode="&#xa7;" horiz-adv-x="968" d="M102 1110q0 96 52 166t134.5 103.5t182.5 33.5q63 0 124.5 -14.5t116.5 -43.5t88.5 -80t33.5 -116q0 -26 -6 -52t-12 -39l-7 -13l-174 2q12 20 12 57q0 115 -182 115q-80 0 -124 -31t-44 -76q0 -39 30.5 -64.5t80 -39.5t109 -26t118.5 -30t108.5 -45t80 -77.5 t30.5 -120.5q0 -56 -35 -112.5t-78 -88.5q5 -3 13.5 -8.5t30 -25.5t37.5 -43t29.5 -60t12.5 -78q-1 -158 -108 -240.5t-273 -82.5q-64 0 -126 14t-119 43t-92 81.5t-35 121.5q0 27 6 53t12 39l6 12h180q-12 -20 -12 -59q0 -40 19 -66t52.5 -37t60.5 -14.5t63 -3.5q43 0 78 9 t63.5 37.5t28.5 74.5q0 41 -30.5 68.5t-79.5 42t-108 26.5t-118.5 30t-108.5 44.5t-79.5 76.5t-30.5 121q0 65 33 116.5t77 84.5q-5 3 -13 9t-29 27t-37 44t-29 60t-13 75zM293 717q0 -20 8 -37t26.5 -29t34 -21t45 -17t45 -11.5t46.5 -9.5l116 -27q6 6 16 17.5t26 46 t16 67.5q0 43 -44 72.5t-159 54.5l-107 27q-3 -2 -7.5 -6t-16.5 -17t-21 -27.5t-16.5 -37t-7.5 -45.5z" />
<glyph unicode="&#xa8;" horiz-adv-x="815" d="M92 1319q0 55 40.5 95t94.5 40q55 0 95 -40t40 -95q0 -54 -40 -94.5t-95 -40.5q-54 0 -94.5 40.5t-40.5 94.5zM453 1319q0 55 40.5 95t94.5 40q56 0 95.5 -40t39.5 -95q0 -54 -40 -94.5t-95 -40.5q-54 0 -94.5 40.5t-40.5 94.5z" />
<glyph unicode="&#xa9;" horiz-adv-x="1658" d="M92 717q0 200 98.5 369.5t268 268.5t370.5 99q150 0 286.5 -58.5t235.5 -157.5t157.5 -235t58.5 -286t-58.5 -286.5t-157.5 -235.5t-235.5 -157t-286.5 -58t-286.5 58t-235.5 157t-157 235.5t-58 286.5zM197 717q0 -171 85 -317t230.5 -231t316.5 -85q170 0 316 85 t231.5 231t85.5 317q0 170 -85.5 316t-231.5 231.5t-316 85.5q-128 0 -245 -50.5t-202 -135.5t-135 -202.5t-50 -244.5zM520 707q0 104 33.5 190.5t108 143.5t178.5 57q94 0 164.5 -47t70.5 -136q0 -21 -2 -36.5t-4 -20.5l-2 -6h-96q4 13 4 29q0 120 -135 120q-48 0 -85 -19 t-59.5 -48.5t-37 -70t-20 -79t-5.5 -79.5q0 -50 10 -94t32 -84t63 -63.5t98 -23.5q64 0 104.5 32.5t40.5 98.5l-4 27h94q6 -8 6 -51q0 -99 -68.5 -151t-164.5 -52q-73 0 -129.5 19.5t-92.5 52t-59.5 79.5t-33 99t-9.5 113z" />
<glyph unicode="&#xaa;" horiz-adv-x="720" d="M82 924q0 184 252 213q98 10 132 32.5t34 69.5q0 25 -13 43t-34 26.5t-41.5 12.5t-42.5 4q-131 0 -131 -92q0 -14 2.5 -26.5t5.5 -18.5l2 -6h-123q-19 35 -19 82q0 84 71.5 133t195.5 49q39 0 71.5 -5t70.5 -22.5t63.5 -46.5t43 -81t17.5 -122v-438h-133v78h-2 q-24 -35 -75.5 -63.5t-115.5 -28.5q-112 0 -171.5 55.5t-59.5 151.5zM217 926q0 -40 29 -64t88 -24q81 0 125.5 47t44.5 114v80h-4q-25 -40 -148 -57q-135 -17 -135 -96z" />
<glyph unicode="&#xab;" horiz-adv-x="940" d="M92 530v2l322 410h129l-322 -410l322 -411h-129zM377 530v2l321 410h129l-321 -410l321 -411h-129z" />
<glyph unicode="&#xac;" horiz-adv-x="1028" d="M102 678v164h813v-543h-174v379h-639z" />
<glyph unicode="&#xad;" horiz-adv-x="804" d="M102 518v184h600v-184h-600z" />
<glyph unicode="&#xae;" horiz-adv-x="1658" d="M92 717q0 200 98.5 369.5t268 268.5t370.5 99q150 0 286.5 -58.5t235.5 -157.5t157.5 -235t58.5 -286t-58.5 -286.5t-157.5 -235.5t-235.5 -157t-286.5 -58t-286.5 58t-235.5 157t-157 235.5t-58 286.5zM197 717q0 -171 85 -317t230.5 -231t316.5 -85q170 0 316 85 t231.5 231t85.5 317q0 170 -85.5 316t-231.5 231.5t-316 85.5q-128 0 -245 -50.5t-202 -135.5t-135 -202.5t-50 -244.5zM598 350v740h217q61 0 108 -9.5t87 -31.5t62 -64.5t22 -103.5q0 -145 -127 -193l149 -338h-141l-135 320h-119v-320h-123zM721 778h78h28h28t24 1t24 3 t19.5 5.5t19 9t13.5 13.5t11.5 18t5.5 24t3 31q0 26 -9 44.5t-22.5 29t-38 16t-47.5 7t-59 1.5h-78v-203z" />
<glyph unicode="&#xaf;" horiz-adv-x="907" d="M164 1573v123h579v-123h-579z" />
<glyph unicode="&#xb0;" horiz-adv-x="917" d="M143 1130q0 130 92.5 223t223.5 93q130 0 222.5 -92.5t92.5 -223.5q0 -130 -92 -222.5t-223 -92.5t-223.5 92.5t-92.5 222.5zM246 1130q0 -91 62 -154t151 -63t150 63t61 154t-61 155.5t-150 64.5t-151 -64.5t-62 -155.5z" />
<glyph unicode="&#xb1;" horiz-adv-x="1019" d="M82 0v102h856v-102h-856zM82 612v103h377v379h102v-379h377v-103h-377v-374h-102v374h-377z" />
<glyph unicode="&#xb2;" horiz-adv-x="589" d="M41 627v110l203 195l39 39t33 36t34 44t23 42.5t19.5 54t4.5 56.5q0 121 -114 121q-43 0 -69 -17.5t-26 -47.5q0 -16 2 -30.5t4 -21.5l3 -6h-117q-17 23 -17 72q0 73 57 122.5t150 49.5q44 0 84.5 -10.5t81.5 -36t65.5 -77t24.5 -124.5q0 -75 -31.5 -147.5t-111.5 -151.5 l-164 -151h309v-121h-487z" />
<glyph unicode="&#xb3;" horiz-adv-x="542" d="M51 795q0 20 3.5 35.5t7.5 21.5l4 6h112q-8 -18 -8 -51q0 -80 96 -80q52 0 83.5 28.5t31.5 106.5q0 81 -33 116.5t-84 35.5q-15 0 -32 -3t-27 -7l-10 -3l-86 76l227 248h-260v109h411v-109l-200 -217q41 0 76.5 -11.5t68 -38t51.5 -78t19 -122.5q0 -244 -242 -244 q-90 0 -149.5 47.5t-59.5 133.5z" />
<glyph unicode="&#xb4;" horiz-adv-x="714" d="M123 1167l180 269h289l-289 -269h-180z" />
<glyph unicode="&#xb6;" horiz-adv-x="919" d="M51 1182q0 104 74 178t178 74h545v-123h-119v-1450h-133v1450h-160v-1450h-133v1069q-104 0 -178 74t-74 178z" />
<glyph unicode="&#xb7;" horiz-adv-x="604" d="M164 575q0 57 41 97.5t98 40.5t97 -40.5t40 -97.5t-40 -98t-97 -41t-98 41t-41 98z" />
<glyph unicode="&#xb8;" horiz-adv-x="1341" d="M461 -213l100 23q15 -74 111 -74q40 0 73 17t33 54q0 66 -100 66q-27 0 -45.5 -3t-23.5 -6l-5 -3v76q46 20 109 18q80 -5 120 -33.5t46 -85.5q8 -75 -47 -126.5t-164 -51.5q-79 -2 -137.5 29t-69.5 100z" />
<glyph unicode="&#xb9;" horiz-adv-x="557" d="M41 1219v98q100 0 151 26t64 91h100v-697h170v-110h-473v110h178v482h-190z" />
<glyph unicode="&#xba;" horiz-adv-x="815" d="M92 1063q0 78 20 146t58 121.5t99.5 84.5t138.5 31q102 0 175 -54.5t106.5 -139.5t33.5 -189q0 -97 -32 -173t-105 -124.5t-178 -48.5q-83 0 -145.5 27.5t-99 76t-54 109.5t-17.5 133zM238 1063q0 -39 8.5 -74t27 -67t53 -51t81.5 -19q89 0 130.5 60t41.5 151 q0 43 -8.5 84t-27 79t-54 61.5t-82.5 23.5t-82 -23.5t-53 -62t-26.5 -79t-8.5 -83.5z" />
<glyph unicode="&#xbb;" horiz-adv-x="919" d="M113 121l321 411l-321 410h129l321 -410v-2l-321 -409h-129zM397 121l322 411l-322 410h129l322 -410v-2l-322 -409h-129z" />
<glyph unicode="&#xbc;" horiz-adv-x="1370" d="M41 1219v98q100 0 151 26t64 91h100v-697h170v-110h-473v110h178v482h-190zM410 -23l569 1506l78 -31l-568 -1501zM799 186v119l276 502h191v-502h63v-119h-63v-186h-127v186h-340zM926 305h213v389z" />
<glyph unicode="&#xbd;" horiz-adv-x="1423" d="M41 1219v98q100 0 151 26t64 91h100v-697h170v-110h-473v110h178v482h-190zM410 -23l569 1506l78 -31l-568 -1501zM874 0v111l203 194l39 39t33.5 36t34.5 44.5t22.5 42.5t19.5 54t5 57q0 120 -115 120q-43 0 -68.5 -17.5t-25.5 -47.5q0 -16 2 -30.5t4 -20.5l2 -7h-117 q-16 23 -16 72q0 73 57 122.5t150 49.5q44 0 84.5 -10.5t81.5 -36t65.5 -77t24.5 -124.5q0 -75 -31.5 -147.5t-111.5 -151.5l-164 -151h309v-121h-488z" />
<glyph unicode="&#xbe;" horiz-adv-x="1366" d="M51 795q0 20 3.5 35.5t7.5 21.5l4 6h112q-8 -18 -8 -51q0 -80 96 -80q52 0 83.5 28.5t31.5 106.5q0 81 -33 116.5t-84 35.5q-15 0 -32 -3t-27 -7l-10 -3l-86 76l227 248h-260v109h411v-109l-200 -217q41 0 76.5 -11.5t68 -38t51.5 -78t19 -122.5q0 -244 -242 -244 q-90 0 -149.5 47.5t-59.5 133.5zM389 -23l569 1506l78 -31l-567 -1501zM795 186v119l276 502h191v-502h63v-119h-63v-186h-127v186h-340zM922 305h213v389z" />
<glyph unicode="&#xbf;" horiz-adv-x="995" d="M92 -70q0 55 12 105t25.5 83t45 74.5t48.5 60t58.5 59.5t54.5 55q55 57 72.5 108.5t17.5 159.5h192q0 -140 -20 -209t-90 -150q-22 -25 -69.5 -70.5t-73.5 -74t-49 -77.5t-23 -103q0 -84 57.5 -137.5t151.5 -53.5q95 0 150 49.5t55 135.5q0 25 -4.5 47t-8.5 32l-4 9h187 q26 -35 26 -117q0 -151 -109.5 -248.5t-283.5 -97.5q-182 0 -300 95.5t-118 264.5zM379 905q0 57 40 98t97 41t98 -41t41 -98t-41 -97t-98 -40t-97 40t-40 97z" />
<glyph unicode="&#xc0;" d="M20 0l512 1434h238l512 -1434h-238l-116 350h-553l-117 -350h-238zM270 1829h295l180 -268h-186zM436 539h428l-213 641z" />
<glyph unicode="&#xc1;" d="M20 0l512 1434h238l512 -1434h-238l-116 350h-553l-117 -350h-238zM436 539h428l-213 641zM553 1561l180 268h289l-289 -268h-180z" />
<glyph unicode="&#xc2;" d="M20 0l512 1434h238l512 -1434h-238l-116 350h-553l-117 -350h-238zM336 1561l201 268h233l197 -268h-160l-156 118l-155 -118h-160zM436 539h428l-213 641z" />
<glyph unicode="&#xc3;" d="M20 0l512 1434h238l512 -1434h-238l-116 350h-553l-117 -350h-238zM346 1653q0 76 45.5 121t116.5 45q55 0 146.5 -41t117.5 -41q55 0 55 51l-4 33h119q10 -53 10 -92q0 -76 -45 -121t-116 -45q-45 0 -98 20.5t-98 41t-69 20.5q-55 0 -55 -52l4 -32h-119q-10 53 -10 92z M436 539h428l-213 641z" />
<glyph unicode="&#xc4;" d="M20 0l512 1434h238l512 -1434h-238l-116 350h-553l-117 -350h-238zM336 1677q0 55 40.5 95t94.5 40q55 0 95 -40t40 -95q0 -54 -40 -94.5t-95 -40.5q-54 0 -94.5 40.5t-40.5 94.5zM436 539h428l-213 641zM696 1677q0 55 40.5 95t94.5 40q56 0 96 -40t40 -95 q0 -54 -40.5 -94.5t-95.5 -40.5q-54 0 -94.5 40.5t-40.5 94.5z" />
<glyph unicode="&#xc5;" d="M20 0l512 1434h238l512 -1434h-238l-116 350h-553l-117 -350h-238zM436 539h428l-213 641zM440 1753q0 88 62.5 150.5t148.5 62.5q88 0 150.5 -62.5t62.5 -150.5q0 -86 -62.5 -148.5t-150.5 -62.5q-86 0 -148.5 62.5t-62.5 148.5zM543 1753q0 -45 32 -78t76 -33 q43 0 75 33.5t32 77.5q0 46 -32 79.5t-75 33.5q-44 0 -76 -33.5t-32 -79.5z" />
<glyph unicode="&#xc6;" horiz-adv-x="1589" d="M20 0l652 1434h835v-191h-477v-416h436v-190h-436v-447h477v-190h-696v348h-393l-158 -348h-240zM489 539h322v708z" />
<glyph unicode="&#xc7;" horiz-adv-x="1310" d="M102 686q0 115 24 224t76.5 208t127.5 173.5t184.5 118.5t239.5 44q198 0 315 -104t117 -248q0 -35 -5 -67.5t-9 -48.5l-5 -15h-200q8 32 8 69q0 107 -56 158t-180 51q-183 0 -295 -154t-112 -409q0 -242 105.5 -372t281.5 -130q130 0 194 57t64 162q0 19 -3.5 42.5 t-7.5 36.5l-3 14h202q23 -60 23 -150q0 -50 -16 -99.5t-52 -98t-87.5 -85.5t-130 -60t-171.5 -23q-306 0 -467.5 184t-161.5 522zM481 -213l101 23q15 -74 110 -74q40 0 73.5 17t33.5 54q0 66 -101 66q-27 0 -45.5 -3t-22.5 -6l-5 -3v76q46 20 108 18q80 -5 120 -33.5 t46 -85.5q8 -75 -47 -126.5t-164 -51.5q-79 -2 -137.5 29t-69.5 100z" />
<glyph unicode="&#xc8;" horiz-adv-x="1044" d="M143 0v1434h820v-197h-601v-410h560v-196h-560v-434h601v-197h-820zM229 1829h295l181 -268h-187z" />
<glyph unicode="&#xc9;" horiz-adv-x="1044" d="M143 0v1434h820v-197h-601v-410h560v-196h-560v-434h601v-197h-820zM461 1561l180 268h289l-289 -268h-180z" />
<glyph unicode="&#xca;" horiz-adv-x="1044" d="M143 0v1434h820v-197h-601v-410h560v-196h-560v-434h601v-197h-820zM248 1561l201 268h233l197 -268h-160l-156 118l-155 -118h-160z" />
<glyph unicode="&#xcb;" horiz-adv-x="1044" d="M143 0v1434h820v-197h-601v-410h560v-196h-560v-434h601v-197h-820zM246 1677q0 55 40.5 95t94.5 40q55 0 95 -40t40 -95q0 -54 -40 -94.5t-95 -40.5q-54 0 -94.5 40.5t-40.5 94.5zM606 1677q0 55 40.5 95t94.5 40q56 0 96 -40t40 -95q0 -54 -40.5 -94.5t-95.5 -40.5 q-54 0 -94.5 40.5t-40.5 94.5z" />
<glyph unicode="&#xcc;" horiz-adv-x="552" d="M-106 1829h294l181 -268h-187zM164 0v1434h231v-1434h-231z" />
<glyph unicode="&#xcd;" horiz-adv-x="552" d="M164 0v1434h231v-1434h-231zM168 1561l180 268h289l-289 -268h-180z" />
<glyph unicode="&#xce;" horiz-adv-x="552" d="M-39 1561l201 268h233l197 -268h-160l-156 118l-155 -118h-160zM164 0v1434h231v-1434h-231z" />
<glyph unicode="&#xcf;" horiz-adv-x="552" d="M-29 1677q0 55 40.5 95t94.5 40q56 0 96 -40t40 -95q0 -54 -40.5 -94.5t-95.5 -40.5q-54 0 -94.5 40.5t-40.5 94.5zM164 0v1434h231v-1434h-231zM311 1677q0 55 40.5 95t94.5 40q56 0 96 -40t40 -95q0 -54 -40.5 -94.5t-95.5 -40.5q-54 0 -94.5 40.5t-40.5 94.5z" />
<glyph unicode="&#xd0;" horiz-adv-x="1357" d="M-20 633v184h194v617h463q132 0 239 -42t178.5 -113.5t120 -168.5t70 -203t21.5 -221t-23 -216.5t-72 -188t-120.5 -149t-173.5 -97.5t-226 -35h-477v633h-194zM393 190h234q91 0 162.5 26.5t117.5 71t76.5 107.5t43.5 133t13 150q0 92 -11 170.5t-39.5 153t-73 126.5 t-116 83.5t-163.5 31.5h-244v-426h269v-184h-269v-443z" />
<glyph unicode="&#xd1;" horiz-adv-x="1357" d="M152 0v1434h270l577 -1088v1088h215v-1434h-260l-589 1108v-1108h-213zM395 1653q0 76 45.5 121t116.5 45q55 0 146.5 -41t117.5 -41q56 0 56 51l-5 33h119q10 -53 10 -92q0 -76 -45 -121t-116 -45q-45 0 -98 20.5t-98 41t-69 20.5q-55 0 -55 -52l4 -32h-118 q-11 53 -11 92z" />
<glyph unicode="&#xd2;" horiz-adv-x="1400" d="M72 686q0 121 22.5 231.5t72 209t122 171t178 114.5t233.5 42t234 -45t178 -120t122 -175t72.5 -208t22.5 -220q0 -145 -38.5 -270.5t-114 -224t-198 -155t-278.5 -56.5t-278.5 56.5t-197.5 155t-113.5 224t-38.5 270.5zM301 682q0 -76 11 -143.5t39 -134t72 -114 t115 -77t162 -29.5t162 29.5t115 77t72.5 114t39.5 134t11 143.5q0 86 -11.5 163t-40 152.5t-73 130t-115 88t-160.5 33.5t-160.5 -35t-114.5 -91.5t-72.5 -132.5t-40 -151.5t-11.5 -156.5zM303 1829h295l180 -268h-186z" />
<glyph unicode="&#xd3;" horiz-adv-x="1400" d="M72 686q0 121 22.5 231.5t72 209t122 171t178 114.5t233.5 42t234 -45t178 -120t122 -175t72.5 -208t22.5 -220q0 -145 -38.5 -270.5t-114 -224t-198 -155t-278.5 -56.5t-278.5 56.5t-197.5 155t-113.5 224t-38.5 270.5zM301 682q0 -76 11 -143.5t39 -134t72 -114 t115 -77t162 -29.5t162 29.5t115 77t72.5 114t39.5 134t11 143.5q0 86 -11.5 163t-40 152.5t-73 130t-115 88t-160.5 33.5t-160.5 -35t-114.5 -91.5t-72.5 -132.5t-40 -151.5t-11.5 -156.5zM594 1561l180 268h289l-289 -268h-180z" />
<glyph unicode="&#xd4;" horiz-adv-x="1400" d="M72 686q0 121 22.5 231.5t72 209t122 171t178 114.5t233.5 42t234 -45t178 -120t122 -175t72.5 -208t22.5 -220q0 -145 -38.5 -270.5t-114 -224t-198 -155t-278.5 -56.5t-278.5 56.5t-197.5 155t-113.5 224t-38.5 270.5zM301 682q0 -76 11 -143.5t39 -134t72 -114 t115 -77t162 -29.5t162 29.5t115 77t72.5 114t39.5 134t11 143.5q0 86 -11.5 163t-40 152.5t-73 130t-115 88t-160.5 33.5t-160.5 -35t-114.5 -91.5t-72.5 -132.5t-40 -151.5t-11.5 -156.5zM393 1561l201 268h233l197 -268h-160l-155 118l-156 -118h-160z" />
<glyph unicode="&#xd5;" horiz-adv-x="1400" d="M72 686q0 121 22.5 231.5t72 209t122 171t178 114.5t233.5 42t234 -45t178 -120t122 -175t72.5 -208t22.5 -220q0 -145 -38.5 -270.5t-114 -224t-198 -155t-278.5 -56.5t-278.5 56.5t-197.5 155t-113.5 224t-38.5 270.5zM301 682q0 -76 11 -143.5t39 -134t72 -114 t115 -77t162 -29.5t162 29.5t115 77t72.5 114t39.5 134t11 143.5q0 86 -11.5 163t-40 152.5t-73 130t-115 88t-160.5 33.5t-160.5 -35t-114.5 -91.5t-72.5 -132.5t-40 -151.5t-11.5 -156.5zM406 1653q0 76 45 121t116 45q55 0 146.5 -41t117.5 -41q56 0 56 51l-4 33h118 q11 -53 11 -92q0 -76 -45.5 -121t-116.5 -45q-45 0 -98 20.5t-97.5 41t-68.5 20.5q-27 0 -41.5 -14t-14.5 -38l5 -32h-119q-10 53 -10 92z" />
<glyph unicode="&#xd6;" horiz-adv-x="1400" d="M72 686q0 121 22.5 231.5t72 209t122 171t178 114.5t233.5 42t234 -45t178 -120t122 -175t72.5 -208t22.5 -220q0 -145 -38.5 -270.5t-114 -224t-198 -155t-278.5 -56.5t-278.5 56.5t-197.5 155t-113.5 224t-38.5 270.5zM301 682q0 -76 11 -143.5t39 -134t72 -114 t115 -77t162 -29.5t162 29.5t115 77t72.5 114t39.5 134t11 143.5q0 86 -11.5 163t-40 152.5t-73 130t-115 88t-160.5 33.5t-160.5 -35t-114.5 -91.5t-72.5 -132.5t-40 -151.5t-11.5 -156.5zM385 1675q0 55 40.5 95t94.5 40q56 0 95.5 -40t39.5 -95q0 -54 -40 -94.5 t-95 -40.5q-54 0 -94.5 40.5t-40.5 94.5zM745 1675q0 55 41 95t95 40q55 0 95 -40t40 -95q0 -54 -40 -94.5t-95 -40.5q-54 0 -95 40.5t-41 94.5z" />
<glyph unicode="&#xd7;" horiz-adv-x="1017" d="M123 344l307 307l-307 310l78 77l309 -307l307 307l78 -80l-307 -307l305 -305l-78 -78l-305 305l-307 -307z" />
<glyph unicode="&#xd8;" horiz-adv-x="1400" d="M72 686q0 121 22.5 231.5t72 209t122 171t178 114.5t233.5 42q192 0 334 -102l107 159l121 -77l-119 -179q92 -110 139 -260t47 -309q0 -145 -38.5 -270.5t-114 -224t-198 -155t-278.5 -56.5q-199 0 -344 90l-96 -146l-123 76l109 164q-174 192 -174 522zM301 682 q0 -200 74 -326l545 824q-88 69 -220 69q-90 0 -160.5 -35t-114.5 -91.5t-72.5 -132.5t-40 -151.5t-11.5 -156.5zM473 246q91 -62 227 -62q91 0 162 29.5t115 77t72.5 114t39.5 134t11 143.5q0 236 -82 383z" />
<glyph unicode="&#xd9;" horiz-adv-x="1288" d="M123 508v926h229v-936q0 -84 24.5 -146.5t67.5 -97.5t93 -51.5t108 -16.5t108.5 16.5t93.5 51.5t68 97.5t25 146.5v936h225v-926q0 -87 -15.5 -161.5t-53.5 -143.5t-96 -117t-148.5 -77t-206.5 -29q-522 0 -522 528zM289 1829h295l180 -268h-186z" />
<glyph unicode="&#xda;" horiz-adv-x="1288" d="M123 508v926h229v-936q0 -84 24.5 -146.5t67.5 -97.5t93 -51.5t108 -16.5t108.5 16.5t93.5 51.5t68 97.5t25 146.5v936h225v-926q0 -87 -15.5 -161.5t-53.5 -143.5t-96 -117t-148.5 -77t-206.5 -29q-522 0 -522 528zM569 1561l181 268h288l-288 -268h-181z" />
<glyph unicode="&#xdb;" horiz-adv-x="1288" d="M123 508v926h229v-936q0 -84 24.5 -146.5t67.5 -97.5t93 -51.5t108 -16.5t108.5 16.5t93.5 51.5t68 97.5t25 146.5v936h225v-926q0 -87 -15.5 -161.5t-53.5 -143.5t-96 -117t-148.5 -77t-206.5 -29q-522 0 -522 528zM340 1561l201 268h233l197 -268h-160l-156 118 l-155 -118h-160z" />
<glyph unicode="&#xdc;" horiz-adv-x="1288" d="M123 508v926h229v-936q0 -84 24.5 -146.5t67.5 -97.5t93 -51.5t108 -16.5t108.5 16.5t93.5 51.5t68 97.5t25 146.5v936h225v-926q0 -87 -15.5 -161.5t-53.5 -143.5t-96 -117t-148.5 -77t-206.5 -29q-522 0 -522 528zM350 1696q0 55 40.5 95t94.5 40q56 0 96 -40t40 -95 q0 -54 -40.5 -94.5t-95.5 -40.5q-54 0 -94.5 40.5t-40.5 94.5zM711 1696q0 55 40.5 95t94.5 40q56 0 95.5 -39.5t39.5 -95.5q0 -54 -40 -94.5t-95 -40.5q-54 0 -94.5 40.5t-40.5 94.5z" />
<glyph unicode="&#xdd;" horiz-adv-x="1196" d="M31 1434h254l313 -637l313 637h254l-456 -854v-580h-222v580zM530 1561l181 268h288l-288 -268h-181z" />
<glyph unicode="&#xde;" horiz-adv-x="1157" d="M143 0v1434h219v-267h267q206 0 331 -106t125 -291q0 -195 -111.5 -305.5t-336.5 -110.5h-275v-354h-219zM362 545h197q50 0 84 2t73.5 9t65 21t48.5 37t33.5 59t10.5 85q0 58 -16.5 99t-42 64t-69 36t-84.5 16.5t-101 3.5h-199v-432z" />
<glyph unicode="&#xdf;" horiz-adv-x="1234" d="M31 850v174h135v113q0 171 106.5 285t292.5 114q183 0 288 -104t105 -283q0 -58 -9.5 -146.5t-20.5 -140.5q-31 4 -62 4q-40 0 -75.5 -10t-64 -38.5t-28.5 -72.5q0 -39 31.5 -68t63 -41.5t101.5 -33.5q13 -4 19 -6q52 -16 86.5 -29t79 -39t71 -56t45.5 -78.5t19 -108.5 q0 -79 -29 -139.5t-79 -96.5t-114 -54t-138 -18q-67 0 -131 16t-119.5 47.5t-89 86t-33.5 123.5q0 27 6 55t11 43l6 14h178q-14 -22 -14 -63q0 -73 45.5 -107t142.5 -34q71 0 119.5 26.5t48.5 89.5q0 29 -12.5 52.5t-28.5 38.5t-48 30t-54.5 23t-65.5 21q-5 2 -8.5 3t-7.5 2 q-37 11 -60.5 19.5t-57.5 23t-55.5 29t-45.5 37.5t-37.5 49t-22.5 61.5t-8 77.5q1 123 72.5 198t185.5 93q39 326 -205 326q-96 0 -146 -67t-50 -175v-1116h-203v850h-135z" />
<glyph unicode="&#xe0;" horiz-adv-x="970" d="M61 281q0 77 28.5 134.5t81 92.5t116 55t145.5 29q99 13 150.5 31t70.5 45.5t19 74.5q0 36 -18.5 62t-48.5 39t-60.5 18.5t-63.5 5.5q-89 0 -141.5 -32.5t-52.5 -102.5q0 -19 4 -37.5t8 -27.5l4 -9h-180q-27 49 -27 119q0 122 104.5 194t286.5 72q57 0 104.5 -7.5 t103.5 -32.5t94 -67t64 -118t26 -178v-641h-195v115h-6q-34 -52 -108 -93.5t-167 -41.5q-165 0 -253.5 81t-88.5 220zM106 1434h295l181 -269h-187zM258 285q0 -61 42.5 -96t131.5 -35q117 0 181.5 69t64.5 166v117h-6q-38 -58 -213 -82q-105 -13 -153 -47t-48 -92z" />
<glyph unicode="&#xe1;" horiz-adv-x="970" d="M61 281q0 77 28.5 134.5t81 92.5t116 55t145.5 29q99 13 150.5 31t70.5 45.5t19 74.5q0 36 -18.5 62t-48.5 39t-60.5 18.5t-63.5 5.5q-89 0 -141.5 -32.5t-52.5 -102.5q0 -19 4 -37.5t8 -27.5l4 -9h-180q-27 49 -27 119q0 122 104.5 194t286.5 72q57 0 104.5 -7.5 t103.5 -32.5t94 -67t64 -118t26 -178v-641h-195v115h-6q-34 -52 -108 -93.5t-167 -41.5q-165 0 -253.5 81t-88.5 220zM258 285q0 -61 42.5 -96t131.5 -35q117 0 181.5 69t64.5 166v117h-6q-38 -58 -213 -82q-105 -13 -153 -47t-48 -92zM319 1165l181 269h288l-288 -269h-181 z" />
<glyph unicode="&#xe2;" horiz-adv-x="970" d="M61 281q0 77 28.5 134.5t81 92.5t116 55t145.5 29q99 13 150.5 31t70.5 45.5t19 74.5q0 36 -18.5 62t-48.5 39t-60.5 18.5t-63.5 5.5q-89 0 -141.5 -32.5t-52.5 -102.5q0 -19 4 -37.5t8 -27.5l4 -9h-180q-27 49 -27 119q0 122 104.5 194t286.5 72q57 0 104.5 -7.5 t103.5 -32.5t94 -67t64 -118t26 -178v-641h-195v115h-6q-34 -52 -108 -93.5t-167 -41.5q-165 0 -253.5 81t-88.5 220zM164 1165l201 269h233l197 -269h-160l-156 119l-155 -119h-160zM258 285q0 -61 42.5 -96t131.5 -35q117 0 181.5 69t64.5 166v117h-6q-38 -58 -213 -82 q-105 -13 -153 -47t-48 -92z" />
<glyph unicode="&#xe3;" horiz-adv-x="970" d="M61 281q0 77 28.5 134.5t81 92.5t116 55t145.5 29q99 13 150.5 31t70.5 45.5t19 74.5q0 36 -18.5 62t-48.5 39t-60.5 18.5t-63.5 5.5q-89 0 -141.5 -32.5t-52.5 -102.5q0 -19 4 -37.5t8 -27.5l4 -9h-180q-27 49 -27 119q0 122 104.5 194t286.5 72q57 0 104.5 -7.5 t103.5 -32.5t94 -67t64 -118t26 -178v-641h-195v115h-6q-34 -52 -108 -93.5t-167 -41.5q-165 0 -253.5 81t-88.5 220zM176 1247q0 76 45.5 121t116.5 45q55 0 146.5 -41t117.5 -41q55 0 55 51l-4 33h119q10 -53 10 -92q0 -76 -45 -121t-116 -45q-45 0 -98 20.5t-98 41 t-69 20.5q-55 0 -55 -51l4 -33h-119q-10 53 -10 92zM258 285q0 -61 42.5 -96t131.5 -35q117 0 181.5 69t64.5 166v117h-6q-38 -58 -213 -82q-105 -13 -153 -47t-48 -92z" />
<glyph unicode="&#xe4;" horiz-adv-x="970" d="M61 281q0 77 28.5 134.5t81 92.5t116 55t145.5 29q99 13 150.5 31t70.5 45.5t19 74.5q0 36 -18.5 62t-48.5 39t-60.5 18.5t-63.5 5.5q-89 0 -141.5 -32.5t-52.5 -102.5q0 -19 4 -37.5t8 -27.5l4 -9h-180q-27 49 -27 119q0 122 104.5 194t286.5 72q57 0 104.5 -7.5 t103.5 -32.5t94 -67t64 -118t26 -178v-641h-195v115h-6q-34 -52 -108 -93.5t-167 -41.5q-165 0 -253.5 81t-88.5 220zM164 1319q0 55 40.5 95t94.5 40q55 0 95 -40t40 -95q0 -54 -40 -94.5t-95 -40.5q-54 0 -94.5 40.5t-40.5 94.5zM258 285q0 -61 42.5 -96t131.5 -35 q117 0 181.5 69t64.5 166v117h-6q-38 -58 -213 -82q-105 -13 -153 -47t-48 -92zM524 1319q0 55 40.5 95t94.5 40q56 0 96 -40t40 -95q0 -54 -40.5 -94.5t-95.5 -40.5q-54 0 -94.5 40.5t-40.5 94.5z" />
<glyph unicode="&#xe5;" horiz-adv-x="970" d="M61 281q0 77 28.5 134.5t81 92.5t116 55t145.5 29q99 13 150.5 31t70.5 45.5t19 74.5q0 36 -18.5 62t-48.5 39t-60.5 18.5t-63.5 5.5q-89 0 -141.5 -32.5t-52.5 -102.5q0 -19 4 -37.5t8 -27.5l4 -9h-180q-27 49 -27 119q0 122 104.5 194t286.5 72q57 0 104.5 -7.5 t103.5 -32.5t94 -67t64 -118t26 -178v-641h-195v115h-6q-34 -52 -108 -93.5t-167 -41.5q-165 0 -253.5 81t-88.5 220zM258 285q0 -61 42.5 -96t131.5 -35q117 0 181.5 69t64.5 166v117h-6q-38 -58 -213 -82q-105 -13 -153 -47t-48 -92zM270 1350q0 88 62.5 150.5t148.5 62.5 q88 0 150.5 -62.5t62.5 -150.5q0 -86 -62.5 -148.5t-150.5 -62.5q-86 0 -148.5 62.5t-62.5 148.5zM373 1350q0 -45 32 -78t76 -33q43 0 75 33.5t32 77.5q0 46 -32 79t-75 33q-44 0 -76 -33t-32 -79z" />
<glyph unicode="&#xe6;" horiz-adv-x="1605" d="M72 270q0 70 20.5 124.5t51.5 88t76 57t86 33.5t89 15q21 2 60 4.5t60 4.5t52 7.5t48 15t34.5 25t25 39.5t7.5 57q0 48 -34.5 78t-76.5 39.5t-92 9.5q-76 0 -129 -32t-53 -103q0 -21 4 -39.5t8 -26.5l4 -8h-180q-27 47 -27 117q0 64 33 116.5t86 84.5t115 49.5t125 17.5 q251 0 352 -141q121 141 324 141q175 0 284 -118.5t109 -286.5q0 -48 -8 -94.5t-16 -68.5l-7 -23h-610q0 -289 260 -289q80 0 124 29t50 77q2 17 1.5 30t-2.5 20l-1 8h176q1 0 4.5 -10t7 -29.5t3.5 -38.5q0 -70 -33 -124t-86.5 -84.5t-114.5 -46t-125 -15.5 q-128 0 -221.5 46t-140.5 126q-42 -88 -125.5 -130t-241.5 -42q-161 0 -258.5 83t-97.5 207zM264 289q0 -65 52 -101t141 -36q132 0 181.5 64.5t49.5 201.5v98h-6q-23 -44 -62 -60t-135 -24q-121 -9 -171 -42.5t-50 -100.5zM903 627h434q0 233 -204 233q-53 0 -95.5 -19.5 t-67 -47.5t-40.5 -62t-21.5 -60t-5.5 -44z" />
<glyph unicode="&#xe7;" horiz-adv-x="978" d="M72 483q0 112 30 212t86 178.5t145.5 124.5t201.5 46q152 0 254 -75.5t102 -202.5q0 -31 -5.5 -62t-11.5 -46l-6 -15h-182q10 33 10 80q0 39 -15.5 67t-42 42.5t-54 21t-58.5 6.5q-70 0 -120.5 -33.5t-76.5 -89.5t-37 -114t-11 -121q0 -69 12 -126t40 -106.5t80 -77.5 t124 -28q84 0 130 42t46 118q0 18 -2 34.5t-4 23.5l-2 7h176q16 -41 16 -88q0 -111 -48 -185t-125.5 -105t-182.5 -31q-120 0 -210.5 36.5t-146.5 104t-84 158.5t-28 204zM287 -213l100 23q15 -74 111 -74q40 0 73 17t33 54q0 66 -100 66q-27 0 -45.5 -3t-23.5 -6l-5 -3v76 q46 20 109 18q80 -5 120 -33.5t46 -85.5q8 -75 -47 -126.5t-164 -51.5q-79 -2 -137.5 29t-69.5 100z" />
<glyph unicode="&#xe8;" horiz-adv-x="999" d="M72 489q0 113 27.5 211.5t81.5 176t142 122.5t201 45q121 0 212.5 -57.5t136.5 -147.5t45 -196q0 -82 -27 -180h-623q10 -146 72.5 -222.5t196.5 -76.5q96 0 136 38t40 87l-6 41h176q12 -33 12 -80q0 -51 -22.5 -98.5t-65.5 -86t-112 -62t-154 -23.5q-229 0 -349 138.5 t-120 370.5zM160 1434h295l180 -269h-186zM276 625h445q4 39 -1 76t-24 76t-65 63t-115 24q-108 0 -171 -68.5t-69 -170.5z" />
<glyph unicode="&#xe9;" horiz-adv-x="999" d="M72 489q0 113 27.5 211.5t81.5 176t142 122.5t201 45q121 0 212.5 -57.5t136.5 -147.5t45 -196q0 -82 -27 -180h-623q10 -146 72.5 -222.5t196.5 -76.5q96 0 136 38t40 87l-6 41h176q12 -33 12 -80q0 -51 -22.5 -98.5t-65.5 -86t-112 -62t-154 -23.5q-229 0 -349 138.5 t-120 370.5zM276 625h445q4 39 -1 76t-24 76t-65 63t-115 24q-108 0 -171 -68.5t-69 -170.5zM406 1165l180 269h288l-288 -269h-180z" />
<glyph unicode="&#xea;" horiz-adv-x="999" d="M72 489q0 113 27.5 211.5t81.5 176t142 122.5t201 45q121 0 212.5 -57.5t136.5 -147.5t45 -196q0 -82 -27 -180h-623q10 -146 72.5 -222.5t196.5 -76.5q96 0 136 38t40 87l-6 41h176q12 -33 12 -80q0 -51 -22.5 -98.5t-65.5 -86t-112 -62t-154 -23.5q-229 0 -349 138.5 t-120 370.5zM201 1165l200 269h234l196 -269h-159l-156 119l-156 -119h-159zM276 625h445q4 39 -1 76t-24 76t-65 63t-115 24q-108 0 -171 -68.5t-69 -170.5z" />
<glyph unicode="&#xeb;" horiz-adv-x="999" d="M72 489q0 113 27.5 211.5t81.5 176t142 122.5t201 45q121 0 212.5 -57.5t136.5 -147.5t45 -196q0 -82 -27 -180h-623q10 -146 72.5 -222.5t196.5 -76.5q96 0 136 38t40 87l-6 41h176q12 -33 12 -80q0 -51 -22.5 -98.5t-65.5 -86t-112 -62t-154 -23.5q-229 0 -349 138.5 t-120 370.5zM174 1319q0 55 40.5 95t94.5 40q55 0 95 -40t40 -95q0 -54 -40 -94.5t-95 -40.5q-54 0 -94.5 40.5t-40.5 94.5zM276 625h445q4 39 -1 76t-24 76t-65 63t-115 24q-108 0 -171 -68.5t-69 -170.5zM535 1319q0 55 40.5 95t94.5 40q56 0 95.5 -40t39.5 -95 q0 -54 -40 -94.5t-95 -40.5q-54 0 -94.5 40.5t-40.5 94.5z" />
<glyph unicode="&#xec;" horiz-adv-x="512" d="M-133 1434h295l180 -269h-186zM154 0v1024h204v-1024h-204z" />
<glyph unicode="&#xed;" horiz-adv-x="512" d="M147 1165l181 269h288l-288 -269h-181zM154 0v1024h204v-1024h-204z" />
<glyph unicode="&#xee;" horiz-adv-x="512" d="M-59 1165l200 269h234l196 -269h-159l-156 119l-156 -119h-159zM154 0v1024h204v-1024h-204z" />
<glyph unicode="&#xef;" horiz-adv-x="512" d="M-49 1319q0 55 40.5 95t94.5 40q56 0 95.5 -40t39.5 -95q0 -54 -40 -94.5t-95 -40.5q-54 0 -94.5 40.5t-40.5 94.5zM154 0v1024h204v-1024h-204zM291 1319q0 55 40.5 95t94.5 40q56 0 95.5 -40t39.5 -95q0 -54 -40 -94.5t-95 -40.5q-54 0 -94.5 40.5t-40.5 94.5z" />
<glyph unicode="&#xf0;" horiz-adv-x="1040" d="M51 487q0 112 29.5 211.5t86 177.5t146.5 123t203 45q68 0 123 -16.5t75 -32.5l21 -16q-37 132 -108 209l-142 -80l-51 90l105 59q-81 43 -189 43q-45 0 -84 -8v181q46 6 94 6q220 0 359 -119l162 92l51 -90l-139 -80q69 -84 127.5 -285.5t58.5 -433.5q0 -129 -27.5 -234 t-83.5 -185t-148.5 -124t-215.5 -43q-116 1 -204.5 40t-142 109t-80 160.5t-26.5 200.5zM252 487q0 -47 7.5 -91t26.5 -87t48 -74.5t74.5 -51t103.5 -19.5q69 0 120.5 26.5t81 72.5t44 101.5t14.5 120.5t-13 127t-41 120.5t-81 94t-125 35.5q-71 0 -124.5 -36t-81.5 -94 t-41 -119.5t-13 -125.5z" />
<glyph unicode="&#xf1;" horiz-adv-x="1030" d="M113 0v1024h198v-119h4q38 63 105.5 101t150.5 38q172 0 269.5 -115t97.5 -333v-596h-205v571q0 281 -205 281q-213 0 -213 -281v-571h-202zM221 1266q0 76 45.5 121t116.5 45q55 0 146.5 -41t117.5 -41q55 0 55 51l-4 33h119q10 -54 10 -93q0 -76 -45 -120.5t-116 -44.5 q-57 0 -148.5 40.5t-116.5 40.5q-55 0 -55 -51l4 -32h-119q-10 53 -10 92z" />
<glyph unicode="&#xf2;" horiz-adv-x="1064" d="M72 487q0 90 17.5 171.5t55 152t91 122.5t129.5 81.5t167 29.5q113 0 202.5 -45.5t145 -123.5t84.5 -177t29 -211q0 -105 -27.5 -195t-82 -161t-144.5 -111t-207 -40q-121 0 -212 40t-144 111.5t-78.5 160t-25.5 195.5zM145 1434h295l181 -269h-187zM281 487 q0 -48 7 -91.5t24.5 -87t45 -74.5t72.5 -50.5t102 -19.5q69 0 119.5 26.5t78.5 72.5t41 101t13 121q0 52 -6.5 101t-24.5 100t-45.5 88.5t-72.5 61.5t-103 24q-71 0 -123 -35.5t-78.5 -94t-38 -118.5t-11.5 -125z" />
<glyph unicode="&#xf3;" horiz-adv-x="1064" d="M72 487q0 90 17.5 171.5t55 152t91 122.5t129.5 81.5t167 29.5q113 0 202.5 -45.5t145 -123.5t84.5 -177t29 -211q0 -105 -27.5 -195t-82 -161t-144.5 -111t-207 -40q-121 0 -212 40t-144 111.5t-78.5 160t-25.5 195.5zM281 487q0 -48 7 -91.5t24.5 -87t45 -74.5 t72.5 -50.5t102 -19.5q69 0 119.5 26.5t78.5 72.5t41 101t13 121q0 52 -6.5 101t-24.5 100t-45.5 88.5t-72.5 61.5t-103 24q-71 0 -123 -35.5t-78.5 -94t-38 -118.5t-11.5 -125zM412 1165l180 269h289l-289 -269h-180z" />
<glyph unicode="&#xf4;" horiz-adv-x="1064" d="M72 487q0 90 17.5 171.5t55 152t91 122.5t129.5 81.5t167 29.5q113 0 202.5 -45.5t145 -123.5t84.5 -177t29 -211q0 -105 -27.5 -195t-82 -161t-144.5 -111t-207 -40q-121 0 -212 40t-144 111.5t-78.5 160t-25.5 195.5zM217 1165l201 269h233l197 -269h-160l-156 119 l-155 -119h-160zM281 487q0 -48 7 -91.5t24.5 -87t45 -74.5t72.5 -50.5t102 -19.5q69 0 119.5 26.5t78.5 72.5t41 101t13 121q0 52 -6.5 101t-24.5 100t-45.5 88.5t-72.5 61.5t-103 24q-71 0 -123 -35.5t-78.5 -94t-38 -118.5t-11.5 -125z" />
<glyph unicode="&#xf5;" horiz-adv-x="1064" d="M72 487q0 90 17.5 171.5t55 152t91 122.5t129.5 81.5t167 29.5q113 0 202.5 -45.5t145 -123.5t84.5 -177t29 -211q0 -105 -27.5 -195t-82 -161t-144.5 -111t-207 -40q-121 0 -212 40t-144 111.5t-78.5 160t-25.5 195.5zM229 1266q0 76 45.5 121t116.5 45q55 0 146.5 -41 t117.5 -41q56 0 56 51l-4 33h118q11 -54 11 -93q0 -76 -45.5 -120.5t-116.5 -44.5q-57 0 -148 40.5t-116 40.5q-56 0 -56 -51l4 -32h-118q-11 53 -11 92zM281 487q0 -48 7 -91.5t24.5 -87t45 -74.5t72.5 -50.5t102 -19.5q69 0 119.5 26.5t78.5 72.5t41 101t13 121 q0 52 -6.5 101t-24.5 100t-45.5 88.5t-72.5 61.5t-103 24q-71 0 -123 -35.5t-78.5 -94t-38 -118.5t-11.5 -125z" />
<glyph unicode="&#xf6;" horiz-adv-x="1064" d="M72 487q0 90 17.5 171.5t55 152t91 122.5t129.5 81.5t167 29.5q113 0 202.5 -45.5t145 -123.5t84.5 -177t29 -211q0 -105 -27.5 -195t-82 -161t-144.5 -111t-207 -40q-121 0 -212 40t-144 111.5t-78.5 160t-25.5 195.5zM217 1319q0 55 40.5 95t94.5 40q56 0 95.5 -40 t39.5 -95q0 -54 -40 -94.5t-95 -40.5q-54 0 -94.5 40.5t-40.5 94.5zM281 487q0 -48 7 -91.5t24.5 -87t45 -74.5t72.5 -50.5t102 -19.5q69 0 119.5 26.5t78.5 72.5t41 101t13 121q0 52 -6.5 101t-24.5 100t-45.5 88.5t-72.5 61.5t-103 24q-71 0 -123 -35.5t-78.5 -94 t-38 -118.5t-11.5 -125zM578 1319q0 55 40.5 95t94.5 40q55 0 95 -40t40 -95q0 -54 -40 -94.5t-95 -40.5q-54 0 -94.5 40.5t-40.5 94.5z" />
<glyph unicode="&#xf7;" horiz-adv-x="1101" d="M123 612v103h856v-103h-856zM387 297q0 63 45.5 108.5t108.5 45.5t108 -45.5t45 -108.5t-45 -108.5t-108 -45.5t-108.5 45.5t-45.5 108.5zM387 1012q0 63 45.5 108t108.5 45t108 -45t45 -108t-45 -108.5t-108 -45.5t-108.5 45.5t-45.5 108.5z" />
<glyph unicode="&#xf8;" horiz-adv-x="1064" d="M72 487q0 90 17.5 171.5t55 152t91 122.5t129.5 81.5t167 29.5q150 0 261 -81l98 131l98 -70l-110 -147q114 -153 114 -390q0 -105 -27.5 -195t-82 -161t-144.5 -111t-207 -40q-160 0 -270 71l-90 -123l-98 72l100 133q-102 130 -102 354zM281 487q0 -98 28 -172l367 492 q-56 53 -144 53q-71 0 -123 -35.5t-78.5 -94t-38 -118.5t-11.5 -125zM383 211q56 -47 149 -47q69 0 119.5 26.5t78.5 72.5t41 101t13 121q0 124 -36 215z" />
<glyph unicode="&#xf9;" horiz-adv-x="1028" d="M92 395v629h201v-604q0 -78 18 -130.5t51 -76.5t66 -32.5t76 -8.5q96 0 155.5 69.5t59.5 231.5v551h196v-1024h-184v102h-4q-95 -122 -272 -122q-171 0 -267 106.5t-96 308.5zM150 1434h294l181 -269h-187z" />
<glyph unicode="&#xfa;" horiz-adv-x="1028" d="M92 395v629h201v-604q0 -78 18 -130.5t51 -76.5t66 -32.5t76 -8.5q96 0 155.5 69.5t59.5 231.5v551h196v-1024h-184v102h-4q-95 -122 -272 -122q-171 0 -267 106.5t-96 308.5zM408 1165l180 269h289l-289 -269h-180z" />
<glyph unicode="&#xfb;" horiz-adv-x="1028" d="M92 395v629h201v-604q0 -78 18 -130.5t51 -76.5t66 -32.5t76 -8.5q96 0 155.5 69.5t59.5 231.5v551h196v-1024h-184v102h-4q-95 -122 -272 -122q-171 0 -267 106.5t-96 308.5zM209 1165l201 269h233l197 -269h-160l-156 119l-155 -119h-160z" />
<glyph unicode="&#xfc;" horiz-adv-x="1028" d="M92 395v629h201v-604q0 -78 18 -130.5t51 -76.5t66 -32.5t76 -8.5q96 0 155.5 69.5t59.5 231.5v551h196v-1024h-184v102h-4q-95 -122 -272 -122q-171 0 -267 106.5t-96 308.5zM209 1319q0 55 40.5 95t94.5 40q56 0 95.5 -40t39.5 -95q0 -54 -40 -94.5t-95 -40.5 q-54 0 -94.5 40.5t-40.5 94.5zM569 1319q0 55 41 95t95 40q55 0 95 -40t40 -95q0 -54 -40 -94.5t-95 -40.5q-54 0 -95 40.5t-41 94.5z" />
<glyph unicode="&#xfd;" horiz-adv-x="958" d="M31 1024h225l225 -692q3 -20 6 -23q0 2 7 23l225 692h209l-348 -981q-71 -202 -158.5 -300.5t-216.5 -98.5q-30 0 -59.5 5.5t-43.5 10.5l-14 6v172q29 -18 78 -18q83 0 127 45t80 149l14 41zM365 1165l180 269h289l-289 -269h-180z" />
<glyph unicode="&#xfe;" horiz-adv-x="1079" d="M113 -410v1844h184v-525h6q40 55 107.5 95t164.5 40q104 0 187.5 -43t136.5 -117t81 -171t28 -207q0 -147 -46 -264t-144 -189.5t-236 -72.5q-182 0 -269 102h-4v-492h-196zM299 492q0 -57 12 -110t39 -104.5t79.5 -82.5t123.5 -31q65 0 114 28.5t77 76t41.5 102.5 t13.5 116q0 373 -246 373q-59 0 -104.5 -22.5t-73 -58t-45.5 -85t-24.5 -98.5t-6.5 -104z" />
<glyph unicode="&#xff;" horiz-adv-x="958" d="M31 1024h225l225 -692q3 -20 6 -23q0 2 7 23l225 692h209l-348 -981q-71 -202 -158.5 -300.5t-216.5 -98.5q-30 0 -59.5 5.5t-43.5 10.5l-14 6v172q29 -18 78 -18q83 0 127 45t80 149l14 41zM158 1319q0 55 40.5 95t94.5 40q55 0 95 -40t40 -95q0 -54 -40 -94.5 t-95 -40.5q-54 0 -94.5 40.5t-40.5 94.5zM518 1319q0 55 40.5 95t94.5 40q55 0 95 -40t40 -95q0 -54 -40 -94.5t-95 -40.5q-54 0 -94.5 40.5t-40.5 94.5z" />
<glyph unicode="&#x152;" horiz-adv-x="1699" d="M72 686q0 121 22.5 231.5t71.5 209t121 171t177.5 114.5t233.5 42q94 0 162 -20h758v-191h-539v-416h498v-190h-498v-447h539v-190h-756q-73 -20 -164 -20q-156 0 -278 56.5t-197 155t-113 224t-38 270.5zM295 682q0 -76 11.5 -145.5t40 -138t73 -118.5t116 -81 t162.5 -31q100 0 162 25v1040q-63 31 -162 31q-90 0 -161 -36.5t-115.5 -95t-74 -137t-41 -156t-11.5 -157.5z" />
<glyph unicode="&#x153;" horiz-adv-x="1720" d="M72 487q0 90 17.5 171.5t55 152t91 122.5t129.5 81.5t167 29.5q231 0 357 -184q120 184 356 184q175 0 284 -118.5t109 -286.5q0 -48 -7.5 -94.5t-14.5 -68.5l-8 -23h-611q0 -289 260 -289q80 0 124.5 29t50.5 77q2 17 1.5 30t-1.5 20l-2 8h176q1 0 4.5 -10t6.5 -29.5 t3 -38.5q0 -70 -32.5 -124t-86 -84.5t-114.5 -46t-125 -15.5q-244 0 -369 163q-124 -163 -361 -163q-121 0 -212 40t-144 111.5t-78.5 160t-25.5 195.5zM272 487q0 -47 7.5 -91t26.5 -87t48 -74.5t74.5 -51t103.5 -19.5q131 0 197 91t64 234q-1 70 -15.5 133t-44 118 t-81.5 87.5t-120 32.5q-72 0 -125 -35.5t-81 -93.5t-41 -119t-13 -125zM1008 627h434q0 233 -205 233q-53 0 -95.5 -19.5t-66.5 -47.5t-40 -62t-21.5 -60t-5.5 -44z" />
<glyph unicode="&#x178;" horiz-adv-x="1196" d="M31 1434h254l313 -637l313 637h254l-456 -854v-580h-222v580zM303 1710q0 55 40.5 95t94.5 40q56 0 95.5 -39.5t39.5 -95.5q0 -54 -40 -94.5t-95 -40.5q-54 0 -94.5 40.5t-40.5 94.5zM664 1710q0 55 40.5 95t94.5 40q55 0 95 -39.5t40 -95.5q0 -54 -40 -94.5t-95 -40.5 q-54 0 -94.5 40.5t-40.5 94.5z" />
<glyph unicode="&#x2c6;" horiz-adv-x="999" d="M184 1165l201 269h233l197 -269h-160l-155 119l-156 -119h-160z" />
<glyph unicode="&#x2dc;" horiz-adv-x="811" d="M102 1268q0 76 45.5 121t116.5 45q55 0 146.5 -41t117.5 -41q56 0 56 51l-4 31h118q11 -52 11 -91q0 -76 -45.5 -120.5t-116.5 -44.5q-45 0 -98 20.5t-97.5 41t-68.5 20.5q-27 0 -41.5 -14t-14.5 -38l4 -32h-118q-11 53 -11 92z" />
<glyph unicode="&#x2000;" horiz-adv-x="983" />
<glyph unicode="&#x2001;" horiz-adv-x="1966" />
<glyph unicode="&#x2002;" horiz-adv-x="983" />
<glyph unicode="&#x2003;" horiz-adv-x="1966" />
<glyph unicode="&#x2004;" horiz-adv-x="655" />
<glyph unicode="&#x2005;" horiz-adv-x="491" />
<glyph unicode="&#x2006;" horiz-adv-x="327" />
<glyph unicode="&#x2007;" horiz-adv-x="327" />
<glyph unicode="&#x2008;" horiz-adv-x="245" />
<glyph unicode="&#x2009;" horiz-adv-x="393" />
<glyph unicode="&#x200a;" horiz-adv-x="109" />
<glyph unicode="&#x2010;" horiz-adv-x="804" d="M102 518v184h600v-184h-600z" />
<glyph unicode="&#x2011;" horiz-adv-x="804" d="M102 518v184h600v-184h-600z" />
<glyph unicode="&#x2012;" horiz-adv-x="804" d="M102 518v184h600v-184h-600z" />
<glyph unicode="&#x2013;" horiz-adv-x="1030" d="M102 518v184h826v-184h-826z" />
<glyph unicode="&#x2014;" horiz-adv-x="1542" d="M102 518v184h1338v-184h-1338z" />
<glyph unicode="&#x2018;" horiz-adv-x="395" d="M82 926l104 508h107l-105 -508h-106z" />
<glyph unicode="&#x2019;" horiz-adv-x="395" d="M102 926l105 508h106l-104 -508h-107z" />
<glyph unicode="&#x201a;" horiz-adv-x="395" d="M82 -295l104 508h107l-105 -508h-106z" />
<glyph unicode="&#x201c;" horiz-adv-x="620" d="M82 926l104 508h107l-105 -508h-106zM307 926l105 508h106l-104 -508h-107z" />
<glyph unicode="&#x201d;" horiz-adv-x="624" d="M102 909l109 525h106l-108 -525h-107zM328 909l108 525h107l-109 -525h-106z" />
<glyph unicode="&#x201e;" horiz-adv-x="620" d="M82 -295l104 508h107l-105 -508h-106zM307 -295l105 508h106l-104 -508h-107z" />
<glyph unicode="&#x2022;" horiz-adv-x="772" d="M154 582q0 97 67 165t164 68t165 -68t68 -165t-68 -164.5t-165 -67.5t-164 67.5t-67 164.5z" />
<glyph unicode="&#x2026;" horiz-adv-x="1449" d="M123 127q0 57 41 97t98 40t97 -40t40 -97t-40 -98t-97 -41t-98 41t-41 98zM586 127q0 57 41 97t98 40t97 -40t40 -97t-40 -98t-97 -41t-98 41t-41 98zM1051 127q0 57 41 97t98 40t97 -40t40 -97t-40 -98t-97 -41t-98 41t-41 98z" />
<glyph unicode="&#x202f;" horiz-adv-x="393" />
<glyph unicode="&#x2039;" horiz-adv-x="608" d="M72 532l321 410h103l-322 -410l322 -411h-103z" />
<glyph unicode="&#x203a;" horiz-adv-x="608" d="M113 121l321 411l-321 410h102l322 -412l-322 -409h-102z" />
<glyph unicode="&#x205f;" horiz-adv-x="491" />
<glyph unicode="&#x20ac;" horiz-adv-x="1257" d="M82 500v123h160v43q0 40 4 118h-164v123h180q21 107 61.5 195t105 160t161 111.5t217.5 39.5q179 0 274 -83.5t95 -207.5q0 -27 -5 -51.5t-9 -35.5l-5 -11h-194q8 22 8 59q0 136 -170 136q-255 0 -324 -312h406v-123h-422q-4 -33 -4 -102v-59h426v-123h-414 q56 -326 317 -326q101 0 146 45.5t45 110.5q0 18 -3 38t-6 31l-3 11h194q17 -56 17 -113q0 -39 -8 -77t-33.5 -83t-65.5 -78.5t-111.5 -56t-164.5 -22.5q-232 0 -370.5 131.5t-170.5 388.5h-170z" />
<glyph unicode="&#x2122;" horiz-adv-x="1173" d="M61 1343v91h400v-91h-148v-505h-102v505h-150zM500 838v596h166l114 -500l125 500h156v-596h-100v479l-11 -45l-108 -434h-123l-107 434q-2 7 -5.5 16t-5.5 15t-3 10q2 -8 2 -41v-434h-100z" />
<glyph unicode="&#xe000;" horiz-adv-x="1024" d="M0 0v1024h1024v-1024h-1024z" />
</font>
</defs>
</svg>
