<?xml version="1.0" encoding="utf-8"?>
<!-- Generator: Adobe Illustrator 16.2.1, SVG Export Plug-In . SVG Version: 6.00 Build 0)  -->
<!DOCTYPE svg PUBLIC "-//W3C//DTD SVG 1.1//EN" "http://www.w3.org/Graphics/SVG/1.1/DTD/svg11.dtd">
<svg version="1.1" id="Ebene_1" xmlns="http://www.w3.org/2000/svg" xmlns:xlink="http://www.w3.org/1999/xlink" x="0px" y="0px"
	 width="1400px" height="972.222px" viewBox="0 0 1400 972.222" enable-background="new 0 0 1400 972.222" xml:space="preserve">
<image display="none" overflow="visible" width="1278" height="677" xlink:href="../../../../Desktop/Bildschirmfoto 2014-04-06 um 17.41.52.png"  transform="matrix(1.0955 0 0 1.0955 -4.882812e-04 227.3726)">
</image>
<g>
	<defs>
		<path id="SVGID_1_" d="M486.167,683.41c-0.796,1.06-1.434,1.963-1.857,2.573c-4.246,5.943-8.279,12.259-14.355,16.557
			c-5.335,3.77-11.092,6.952-16.028,11.278c-5.016,4.378-7.243,10.031-11.411,14.912c-0.689,0.824-1.513,1.486-2.123,2.362
			c-0.955,1.327-1.432,2.893-2.016,4.405c-0.717,1.855-1.725,3.581-2.866,5.228c-0.929,1.354-1.672,2.812-2.601,4.14
			c-0.716,1.008-1.936,1.909-2.069,3.209c-0.212,2.097,2.335,3,3.927,3.478c3.609,1.115,6.978,2.387,10.799,2.44
			c3.689,0.053,7.404-0.664,10.854-1.988c3.582-1.355,6.527-4.088,9.923-5.864c3.503-1.858,7.96-2.866,9.579-6.926
			c1.54-3.874,3.265-7.747,3.849-11.889c0.292-2.07,0.425-4.192,1.115-6.183c0.955-2.732,2.892-4.829,4.113-7.376
			c1.326-2.759,2.785-5.465,4.325-8.093c5.758-9.977,12.709-19.344,18.069-29.533c1.46-2.759,2.124-4.114-0.08-6.315
			C501.45,663.958,491.022,676.853,486.167,683.41z M909.898,589.501c-2.893-3.37-4.936-6.764-9.129-8.755
			c-4.537-2.176-16.478-3.131-13.611,5.228c1.221,3.529,4.271,6.5,6.739,9.153c2.124,2.281,6.262,5.308,7.509,8.173
			c1.726,4.06,5.175,7.642,9.924,7.642c4.193,0,4.378-4.085,4.405-7.749C915.762,597.516,913.506,593.695,909.898,589.501z
			 M220.414,860.283c-4.526,3.885-5.181,11.125-1.722,15.869c8.831,12.103,28.559,7.297,38.277-0.854
			c16.747-29.081,11.177-12.926,15.304-20.492c1.351-2.481,3.421-5.889,1.443-8.589c-1.852-2.561-6.267-3.077-9.145-3.243
			c-7.46-0.41-15.568,3.203-22.443,5.65C234.687,851.32,226.509,855.074,220.414,860.283z M1743.087,972.222
			c-6.343-2.84-12.63-5.811-18.469-9.101c-10.455-5.864-18.416-13.931-29.772-18.734c-12.1-5.148-23.827-11.09-35.822-16.479
			c-14.781-6.633-31.521-8.968-46.967-13.824c-19.741-6.209-39.377-12.312-57.473-22.634c-17.142-9.764-25.766-24.651-39.724-37.599
			c-8.941-8.307-13.373-16.745-14.62-28.871c-1.139-11.038-2.892-18.734-11.728-26.243c-5.792-4.92-12.109-9.18-18.666-13.01
			c-11.699-6.837-24.173-12.244-36.698-17.364c-5.439-2.222-9.251-4.676-13.97-7.815c-4.743-3.154-12.443-4.734-17.87-6.699
			c-3.357-1.216-6.006-2.967-9.074-5.019c-3.523-2.355-4.303-4.448-6.899-7.753c-3.35-4.261-8.556-5.517-12.833-8.515
			c-3.17-2.224-6.149-5.353-8.711-8.197c-1.798-1.999-4.131-6.612-6.482-8.262c-5.88-4.131-18.314-4.036-25.161-4.42
			c-10.137-0.567-22.582,0.49-31.876-4.164c-7.026-3.52-14.083-7.493-21.325-10.548c-7.69-3.243-15.589-6.613-22.721-10.942
			c-7.709-4.678-15.865-7.888-24.49-3.808c-3.965,1.876-7.602,5.532-10.95,8.294c-2.915,2.404-5.018,5.723-8.713,7.007
			c-2.986,1.037-6.326,1.738-9.404,2.717c-7.423,2.357-15.627,2.367-22.328,6.744c-5.891,3.847-5.147,10.216-12.1,13.292
			c-8.12,3.583-17.646,3-24.571-2.148c-9.579-7.138-18.733-12.683-29.666-18.017c-9.95-4.83-18.733-8.04-27.544-14.939
			c-10.401-8.147-22.794-13.479-33.088-21.732c-3.848-3.078-6.899-7.138-10.826-10.083c-7.05-5.258-14.983-3.811-19.866-12.355
			c-1.446-2.532-2.218-4.427-4.795-6.102c-3.734-2.428-7.919-1.623-11.803-3.322c-3.795-1.662-7.082-4.31-10.994-5.979
			c-5.008-2.137-7.508-5.068-11.674-8.205c-5.801-4.366-13.399-3.229-20.155-3.354c-2.867-0.052-6.326-0.308-8.556,1.029
			c-3.505,2.101-5.951,6.921-9.193,9.605c-5.147,4.263-10.833,7.047-16.909,9.698c-3.773,1.647-7.445,4.339-11.519,5.127
			c-13.837,2.673-18.046-11.405-29.12-15.375c-8.005-2.872-15.507-3.897-20.968-11.316c-3.148-4.277-6.756-7.818-10.057-11.874
			c-2.45-3.012-3.927-8.193-6.99-10.486c-1.469-1.099-3.535-0.152-5.023-0.755c-6.647-2.687-8.33-10.187-16.671-6.452
			c-5.591,2.503-10.145,8.362-12.77,13.763c-5.118,10.526-13.454,19.882-22.5,27.298c-8.367,6.859-17.452,11.37-26.996,16.462
			c-7.534,4.02-13.536,9.763-20.807,13.869c-14.482,8.178-27.835,17.67-42.512,25.555c-5.185,2.785-11.39,6.977-17.172,8.209
			c-7.394,1.579-17.025,0.807-24.45-0.304c-6.845-1.022-17.35-4.859-24.266-2.8c-18.891,5.629-36.803,22.489-47.422,38.707
			c-11.341,17.32-27.376,27.453-45.138,37.742c-12.818,7.424-25.997,14.201-39.257,20.794
			c-16.026,7.969-30.762,25.768-50.241,15.408c-7.748-4.112-17.115-14.195-25.924-15.443c-20.539-2.866-32.559,14.09-43.969,29.056
			c-11.966,15.709-29.665,24.412-42.641,39.058c-6.475,7.298-11.25,16.136-17.035,23.962
			c-10.986,14.857-22.502,22.687-38.821,31.842c-5.519,3.104-11.542,5.677-16.344,9.871c-1.911,1.672-3.316,4.35-5.439,5.783
			c-4.325,2.946-10.561,4.194-15.338,6.662c-1.379,0.714-2.759,1.457-4.113,2.2c-10.135,5.572-19.848,11.89-30.223,17.01
			c-6.368,3.131-12.258,7.35-18.68,10.375c-9.286,4.379-20.111,6.209-29.265,11.119c-1.459,0.77-3.131,1.646-4.936,2.6h1581.095
			V972.222z"/>
	</defs>
	<clipPath id="SVGID_2_">
		<use xlink:href="#SVGID_1_"  overflow="visible"/>
	</clipPath>
	<g transform="matrix(1 3.725290e-09 -3.725290e-09 1 0 0)" clip-path="url(#SVGID_2_)">
		
			<image overflow="visible" width="1440" height="1000" xlink:href="../assets/img/aquarell2.png"  transform="matrix(-1.0782 -0.0537 0.0537 -1.0782 1491.8252 1222.9897)">
		</image>
	</g>
</g>
<image overflow="visible" width="800" height="600" xlink:href="../assets/img/aquarell_addon.png"  transform="matrix(-0.7345 1.476 -1.476 -0.7345 1801.1777 209.2075)">
</image>
<image overflow="visible" width="800" height="600" xlink:href="../assets/img/aquarell_addon.png"  transform="matrix(1.64 -0.1687 0.1687 1.64 -544.6113 492.895)">
</image>
</svg>
