<?xml version="1.0" encoding="utf-8"?>
<!-- Generator: Adobe Illustrator 16.2.1, SVG Export Plug-In . SVG Version: 6.00 Build 0)  -->
<!DOCTYPE svg PUBLIC "-//W3C//DTD SVG 1.1//EN" "http://www.w3.org/Graphics/SVG/1.1/DTD/svg11.dtd">
<svg version="1.1" id="Ebene_1" xmlns="http://www.w3.org/2000/svg" xmlns:xlink="http://www.w3.org/1999/xlink" x="0px" y="0px"
	 width="1400px" height="972.222px" viewBox="0 0 1400 972.222" enable-background="new 0 0 1400 972.222" xml:space="preserve">
<filter  id="hue_newsletter_1">
	<feColorMatrix  type="hueRotate" values="125"></feColorMatrix>
</filter>
<image overflow="visible" filter="url(#hue_newsletter_1)" width="800" height="600" xlink:href="assets/img/aquarell_addon.png"  transform="matrix(0.4059 0.6779 -0.6779 0.4059 1065.9766 180.1494)">
</image>
<g>
	<defs>
		<path id="SVGID_1_" d="M1055.228,650.506c-1.367,5.207-3.478,10.678-8.508,13.319c-3.497,1.835-8.917,2.614-12.036-0.402
			c-3.386-3.274-1.511-8.01-1.07-11.984c0.672-6.051-1.364-9.49,4.231-13.135c3.639-2.371,14.222-14.206,18.878-7.276
			C1059.618,635.334,1056.386,646.098,1055.228,650.506z M1201.523,138.663c1.764-1.9,5.038-6.099,4.325-8.874
			c-1.157-4.501-9.103,1.534-11.15,2.725c-1.862,1.083-3.617,2.345-5.487,3.419c-1.295,0.744-2.998,1.375-4.044,2.479
			c-1.383,1.462-3.138,7.226-0.478,8.228C1190.654,148.887,1197.982,142.479,1201.523,138.663z M691.194,830.447
			c-6.513,3.013-16.185,5.615-18.794,13.227c-1.16,3.383-2.532,8.655-1.276,12.157c1.413,3.943,5.704,8.935,10.296,8.921
			c3.189-0.009,5.978-2.455,8.81-3.621c2.544-1.047,5.257-1.473,7.713-2.756c3.224-1.685,6.023-4.032,9.355-5.546
			c3.091-1.404,6.587-1.928,9.547-3.604c2.844-1.61,4.864-4.284,7.064-6.627c1.637-1.745,4.12-3.521,5.023-5.811
			c0.821-2.083,0.289-4.709,0.069-6.863c-0.259-2.534-0.468-4.676-3.161-5.583c-4.863-1.638-11.754,0.032-16.601,0.869
			C703.075,826.273,696.892,827.811,691.194,830.447z M1400,0v972.222H389.774c2.947-1.232,5.866-2.506,8.734-3.85
			c5.323-2.494,6.321-1.949,12.447-2.237c3.93-0.185,6.503-0.959,10.14-2.245c12.463-4.407,24.127-8.297,36.22-13.594
			c12.662-5.546,27.092-6.407,38.813-14.184c4.709-3.125,3.61-3.04,3.358-9.249c-0.163-4.011,0.04-8.135-1.334-11.982
			c-0.93-2.603-3.103-4.565-4.014-7.082c-3.83-10.583,11.476-16.811,19.299-19.737c17.648-6.601,37.242,1.476,54.883-4.801
			c16.38-5.828,29.265-19.826,45.318-26.318c10.544-4.265,26.943-1.886,37.654,0.556c10.288,2.345,8.921,6.694,9.704,15.525
			c1.213,13.681-7.264,17.274-19.208,22.416c-9.381,4.039-18.877,7.218-26.039,14.799c-4.313,4.566-7.598,9.27-3.867,15.317
			c2.623,4.25,5.217,3.739,9.315,5.308c4.534,1.735,3.9,5.145,7.213,7.101c6.204,3.664,19.191-0.833,26.306,0.026
			c4.828,0.583,9.054,1.521,14.143,1.419c1.885-0.038,6.083,0.569,7.776-0.553c0.719-0.476-0.374-1.5,0.312-2.056
			c3.34-2.705,7.367-4.762,10.495-7.723c3.59-3.398,6.069-6.29,11.097-8.127c7.524-2.752,14.62-3.598,21.872-7.384
			c9.752-5.091,19.888-3.734,30.462-2.939c8.037,0.604,16.389,0.588,24.388,0.626c5.177,0.025,9.464-3.62,9.963-9.616
			c0.108-1.298-1.236-3.727-0.923-4.702c0.931-2.9,7.326-5.824,9.533-7.394c10.892-7.751,22.162-15.206,33.125-22.463
			c6.845-4.531,10.473-13.294,14.488-20.301c5.185-9.05,11.389-13.259,21.587-15.742c7.686-1.872,9.541,1.113,15.818,4.612
			c16.679,9.296,43.811,7.871,59.642-2.604c3.205-2.121,4.731-5.405,7.879-7.575c3.697-2.549,8.124-4.102,11.89-6.701
			c-4.568-3.064,29.244-23.818,33.261-26.06c9.292-5.185,19.393-8.464,28.244-14.252c15.088-9.866,24.213-26.909,23.867-45.045
			c-0.233-12.171-3.299-22.443,1.738-33.796c1.449-3.265,1.843-7.153,2.799-9.959c1.523-4.473,5.548-7.318,9.428-9.842
			c4.918-3.2,4.941-2.653,7.062-7.414c5.941-13.335,6.105-31.511,3.923-45.997c-1.216-8.075-9.974-10.021-11.581-18.038
			c-0.601-2.998,0.926-8.319,1.692-11.192c1.491-5.584,2.525-10.896,5.7-15.854c8.605-13.434,24.078-23.134,31.116-37.385
			c5.828-11.803,0.577-27.84,4.812-40.05c1.479-4.265,4.885-6.917,9.314-7.875c10.611-2.295,13.006,3.282,20.016,9.749
			c3.918,3.614,7.683,4.317,12.408,6.041c5.294,1.931,9.971,6.432,13.546,10.721c6.27,7.525,5.327,16.528,5.538,25.686
			c0.2,8.722,1.655,13.519,10.882,14.863c6.114,0.891,11.88,1.897,17.862,3.079c9.339,1.844,29.977-8.119,31.083-18.394
			c0.797-7.401-4.46-15.638-5.968-22.777c-1.027-4.862-0.855-9.564-1.001-14.48c-0.282-9.533,0.729-19.575-0.953-28.945
			c-1.557-8.669-0.096-17.222-1.574-25.643c-1.268-7.216-4.861-15.531-0.907-22.651c1.386-2.495,5.107-5.894,8.142-5.759
			c0.432,0.019,1.933,0.856,2.523,0.986c3.914,0.858,8.544,0.419,12.518,0.411c10.248-0.022,19.64-0.402,21.816-12.093
			c1.179-6.335,3.261-20.155-2.111-25.289c-3.593-3.434-8.525-2.489-12.179,0.074c-10.317,7.239-19.785,16.254-33.143,16.974
			c-4.918,0.265-9.324-1.121-13.657-3.283c-4.774-2.382-8.435-4.538-11.522-9.019c-2.194-3.185-4.133-6.112-7.446-8.261
			c-3.078-1.996-6.263-3.405-8.644-6.326c-7.389-9.064,0.789-19.294,1.76-29.482c0.917-9.619,1.712-20.969,1.122-30.792
			c-0.494-8.217-2.594-16.015-4.417-23.998c-1.968-8.621-6.305-12.842-6.43-21.834c-0.145-10.459-2.396-22.411-0.628-32.74
			c1.021-5.971,4.685-10.474,7.375-15.735c4.08-7.978,2.728-15.404,2.236-24.175c-0.44-7.843,1.404-12.994,5.553-19.628
			c1.373-2.195,4.91-9.868,8.357-9.487c2.814,0.312,2.847,4.235,4.382,4.787c2.425,0.873,5.668-3.318,8.116-5.574
			c11.72-10.798,22.998-22.095,35.229-32.326c7-5.856,15.002-11.2,20.395-18.708c4.158-5.788,5.24-11.483,6.498-18.304
			c1.672-9.062,4.547-17.822,6.45-26.831c1.447-6.848,1.576-19.229,6.628-24.945c2.872-3.25,9.59-4.582,13.303-6.729
			c4.012-2.321,7.227-4.653,9.995-8.28c6.023-7.895,9.774-14.383,17.676-20.656c6.758-5.363,13.673-9.962,21.104-14.46
			c0.992-0.601,1.979-1.191,2.96-1.776H1400z M1230.506,198.078c-3.337-4.325-10.194,2.31-12.141,5.053
			c-1.596,2.247-4.082,5.292-4.458,8.154c-0.396,3.012,0.953,3.48,4.026,2.95c2.543-0.438,5.561-1.565,7.712-2.995
			C1228.953,209.043,1233.53,201.997,1230.506,198.078z M1234.792,590.7c-3.738-2.239-7.722-2.744-12.019-3.374
			c-1.602-0.235-2.576-0.734-4.082-1.203c-2.241-0.699-4.784-0.311-7.093-0.447c-4.199-0.249-8.409-0.688-12.609-0.838
			c-5.48-0.195-8.347,1.042-10.954,5.692c-2.191,3.91-9.295,8.787-8.972,13.659c0.102,1.537,0.468,3.016,1.699,4.013
			c0.984,0.798,2.213,0.998,2.973,2.11c0.606,0.887,0.427,1.693,0.347,2.727c-0.191,2.455-0.539,4.856-0.579,7.329
			c-0.115,7.118,1.167,14.15,1.25,21.252c0.042,3.588-0.768,4.391,2.792,5.662c6.962,2.486,13.61,5.866,20.635,8.159
			c5.568,1.817,8.716,1.399,11.951-3.512c2.897-4.397,6.716-7.958,9.709-12.243c3.014-4.315,3.091-9.087,3.737-14.106
			c0.459-3.569,1.517-4.696,3.827-7.026c2.07-2.088,1.675-5.019,1.639-7.798c-0.032-2.449-0.22-4.914-0.157-7.362
			c0.054-2.109,0.708-3.438,1.407-5.321C1241.551,594.687,1237.293,592.199,1234.792,590.7z"/>
	</defs>
	<clipPath id="SVGID_2_">
		<use xlink:href="#SVGID_1_"  overflow="visible"/>
	</clipPath>
	<g transform="matrix(1 0 0 1 -3.051758e-05 1.907349e-06)" clip-path="url(#SVGID_2_)" filter="url(#hue_newsletter_1)">
		
			<image overflow="visible" width="1440" height="1000" xlink:href="assets/img/aquarell2.png"  transform="matrix(1.4497 -0.2308 0.2308 1.4497 -172.7871 -17.9697)">
		</image>
	</g>
</g>
<image overflow="visible" width="1440" height="1000" xlink:href="assets/img/aquarell2.png"  transform="matrix(1 0 0 1 2576.5 3524.5)">
</image>
<image overflow="visible" width="1440" height="1000" xlink:href="assets/img/aquarell2.png"  transform="matrix(1 0 0 1 2576.5 3524.5)">
</image>
</svg>
