<?xml version="1.0" encoding="utf-8"?>
<!-- Generator: Adobe Illustrator 16.2.1, SVG Export Plug-In . SVG Version: 6.00 Build 0)  -->
<!DOCTYPE svg PUBLIC "-//W3C//DTD SVG 1.1//EN" "http://www.w3.org/Graphics/SVG/1.1/DTD/svg11.dtd">
<svg version="1.1" id="Ebene_1" xmlns="http://www.w3.org/2000/svg" xmlns:xlink="http://www.w3.org/1999/xlink" x="0px" y="0px"
	 width="1400px" height="972.222px" viewBox="0 0 1400 972.222" enable-background="new 0 0 1400 972.222" xml:space="preserve">
<filter  id="splash2-addon">
	<feColorMatrix  type="hueRotate" values="-20"></feColorMatrix>
	<feColorMatrix  type="saturate" values="1.2"></feColorMatrix>
</filter>
<filter  id="splash2">
	<feColorMatrix  type="hueRotate" values="48"></feColorMatrix>
	<feColorMatrix  type="saturate" values="1.2"></feColorMatrix>
</filter>
<g>
	<defs>
		<rect id="SVGID_1_" x="-0.2" width="1399.98" height="972.222"/>
	</defs>
	<clipPath id="SVGID_2_">
		<use xlink:href="#SVGID_1_"  overflow="visible"/>
	</clipPath>
	
		<g transform="matrix(1 0 3.725290e-09 1 -6.103516e-05 0)" opacity="0.6" clip-path="url(#SVGID_2_)" filter="url(#splash2-addon)" enable-background="new    ">
		
			<image overflow="visible" width="800" height="600" xlink:href="assets/img/aquarell_addon.png"  transform="matrix(1.5826 -0.0199 0.0736 1.5112 606.4258 23.6982)">
		</image>
	</g>
	<g id="splash1" clip-path="url(#SVGID_2_)" filter="url(#splash2)">
		<g>
			<g>
				<defs>
					<path id="SVGID_3_" d="M1399.781,550.181c-1.341-0.603-2.508-1.245-3.811-1.906c-4.55-2.294-9.819-8.031-15.245-5.133
						c-7.428,3.967-16.625-0.895-23.159-4.414c-7.486-4.025-14.311-9.528-21.019-14.7c-3.364-2.605-6.767-5.172-10.344-7.466
						c-9.664-6.145-19.853-11.336-30.081-16.469l0,0c-7.777-3.928-18.316-14.312-27.63-12.23
						c-13.105,2.936-19.969,22.069-29.05,30.392c-10.889,9.975-16.8,19.853-30.684,10.169
						c-25.472-17.753-47.658-33.736-60.258-63.253c-6.261-14.661-6.708-31.15-13.261-45.694c-6.65-14.719-21.252-27.145-33.561-37.1
						c-10.52-8.497-23.761-14.02-32.395-24.733c-5.133-6.378-19.561-39.006-31.111-28.583c-2.081,1.886-3.461,2.178-6.397,1.652
						c-30.839-5.658-52.014-37.819-70.292-60.277c-4.414-5.425-8.186-15.964-14.7-19.153c-11.978-5.873-7.777,10.052-18.18,11.919
						c0,0,0,0-0.02,0l0,0c-10.306,1.808-19.308-13.514-25.317-19.911c-10.753-11.453-20.63-23.684-31.364-35.136
						c-6.708-7.156-15.186-12.483-21.642-19.892c-6.106-7.019-9.178-15.789-15.614-22.594
						c-9.508-10.033-17.072-21.836-27.281-31.228c-10.675-9.82-24.811-13.183-31.908-26.814c-4.9-9.372-17.072,12.114-19.367,15.4
						c-4.142,5.911-8.905,12.483-16.411,14c-6.261,1.264-7.136-2.255-12.639,2.314c-6.65,5.542-6.281,14.564-15.225,17.889
						c-25.219,9.353-43.925-12.542-56.739-31.188c-8.633-12.581-14.35-27.145-24.131-39.045
						c-13.066-15.886-22.517-13.105-33.017,3.053c-10.345,15.905-14.817,33.93-22.322,51.1
						c-10.597,24.402-35.214,41.63-44.353,67.433c-1.167,3.267-1.711,6.728-3.87,9.372c-7.953,9.722-12.872,21.778-21.7,30.82
						c-4.045,4.142-8.381,7.972-14.233,9.119c-6.105,1.206-14.564-4.375-19.678-0.564c-9.897,7.389-13.281,19.639-20.3,29.264
						c-10.637,14.603-25.803,16.917-42.604,14.369c-23.411-3.539-52.655-11.861-76.066-4.938
						c-9.936,2.936-15.05,11.452-24.111,15.536c-15.361,6.903-28.856-9.722-44.217-5.367c-10.636,3.014-16.294,12.27-22.108,20.864
						c-8.38,12.366-21.097,20.183-32.044,30.002c-11.745,10.539-24.422,23.917-41.008,27.748
						c-17.636,4.063-27.553-13.533-42.466-11.356c-9.509,1.4-14.098,12.717-21.447,17.306c-7.914,4.939-16.353-2.158-24.656,4.531
						c-6.533,5.27-9.042,14.563-13.805,21.214c-12.716,17.811-29.478,35.369-45.383,50.439C19.809,468.592-0.2,483.428-0.2,482.845
						c0,0,0,383.911,0,384.027c0-1.264,11.453-14.525,12.969-16.839c9.975-15.128,15.128-41.047,35.272-46.2
						c23.003-5.892,30.197,25.861,50.905,25.92c8.536,0.02,15.711-5.406,24.053-5.639c10.403-0.272,18.122,7.836,28.078,9.489
						c16.508,2.722,24.869-12.717,30.566-25.472c7.759-17.442,16.022-33.581,25.803-50.089c3.131-5.27,5.444-10.617,12.25-9.761
						c2.917,0.369,6.67,2.372,9.547,0.934c11.025-5.542,5.406-28.389,23.333-16.937c7.855,5.017,16.936,6.358,25.9,8.187
						c21.078,4.316,42.642,5.27,63.583,10.558c23.372,5.892,47.892-0.252,71.691,1.983c10.111,0.953,19.23,3.539,29.264,0.505
						c11.123-3.364,21.661-8.925,30.586-16.353c4.492-3.733,8.458-7.875,11.842-12.639c2.528-3.539,2.858-9.937,8.206-10.539
						c5.833-0.642,12.308,7.506,17.597,9.411c11.453,4.122,23.664-1.069,33.795-6.339c10.325-5.348,21.486-9.937,31.286-16.178
						c6.961-4.434,10.48-12.114,16.683-17.306c9.995-8.342,24.422-5.717,35.467-11.861c16.1-8.964,27.844-24.111,38.091-39.063
						c4.764-6.942,9.489-14,13.708-21.272c5.211-8.964,12.056-27.514,23.878-15.361l0,0c8.944,9.197,20.047,13.806,27.63,24.617
						c11.608,16.566,30.528,29.166,46.978,40.541c33.872,23.411,72.742,47.387,115.441,42.7c2.975-0.33,2.742-1.828,6.456-1.575
						c0,0,0,0,0.02,0c15.556,0.798,30.645,10.909,43.225,19.211c13.786,9.081,21.466,23.897,34.339,33.814
						c19.114,14.719,39.784,27.184,59.442,41.145c13.164,9.353,23.275,22.691,35.991,32.667c5.387,4.219,12.854,11.2,19.892,12.328
						c7.583,1.206,26.522-9.353,32.433-13.864c8.011-6.145,9.314-14.681,14.467-22.478c7.214-10.908,18.239-18.783,30.411-23.372
						c8.05-3.053,16.703-3.52,24.908-5.931c9.178-2.722,12.425-8.322,20.358-12.114c1.069-0.058,1.594-0.486,1.633-1.264
						c-0.583-0.058-0.739-0.331-0.505-0.797c16.508-12.464,27.708,10.694,34.961,21.934c10.617,16.431,26.133,27.202,44.703,33.211
						c33.406,10.85,58.508,33.056,84.331,55.825c1.789,1.575,3.675,3.111,5.736,4.336c0.855,0.505,1.614,1.011,2.158,1.886
						c0.544,0.895,0.934,1.867,1.497,2.742c0.642,0.972,1.4,1.847,2.081,2.78c1.225,1.672,3.248,2.158,5.017,3.033
						c0.214,0.117,1.983,0.817,1.983,0.992C1399.781,888.28,1399.781,550.181,1399.781,550.181z M188.8,740.872
						c-1.536,3.228-2.1,6.767-3.286,10.131c-1.594,4.53-3.578,8.711-6.592,12.464c-4.258,5.308-9.897,12.405-16.353,15.089
						c-4.317,1.789-11.745,2.294-16.333,1.458c-2.684-0.486-4.278-2.372-6.845-3.325c-4.142-1.537-5.561-3.248-7.777-6.942
						c-2.022-3.402-1.147-3.967,1.341-7.155c2.489-3.189,4.142-7.059,7.662-9.236c3.208-1.983,6.786-2.858,10.13-4.531
						c2.995-1.497,5.833-3.13,9.022-4.239c3.286-1.147,6.456-2.197,9.12-4.472c3.033-2.586,5.6-5.716,9.45-7.117
						c3.033-1.108,13.767-4.667,13.825,0.35C192.164,735.855,189.831,738.714,188.8,740.872z M1176.656,848.691
						c1.38,5.386,4.686,11.161,0.7,16.256c-5.717,7.252-18.453,8.614-26.911,7.33c-7.136-1.088-13.339-4.919-16.975-11.2
						c-2.684-4.627-4.687-11.122,0.292-14.894c2.411-1.828,5.172-3.014,7.428-5.095c1.672-1.556,3.033-3.441,4.744-4.978
						c1.711-1.537,3.48-2.995,5.114-4.647c3.053-3.092,5.814-3.986,10.092-2.236c2.839,1.167,4.627,3.208,6.767,5.25
						C1172.261,838.717,1175.139,842.819,1176.656,848.691z M1225.208,886.706c2.839,1.361,6.708,2.1,7.078,5.833
						c0.369,3.772-1.925,8.244-5.386,9.877c-3.345,1.575-7.137,0.428-10.598,0.078c-7-0.72-14.544-2.527-18.316-9.139
						c-1.517-2.645-3.208-7.175-0.758-9.722c2.236-2.333,5.853-2.878,8.925-3.014c4.064-0.155,7.895,0,11.725,1.517
						C1220.6,883.225,1222.583,885.441,1225.208,886.706z"/>
				</defs>
				<clipPath id="SVGID_4_">
					<use xlink:href="#SVGID_3_"  overflow="visible"/>
				</clipPath>
				<g clip-path="url(#SVGID_4_)">
					
						<image overflow="visible" enable-background="new    " width="1440" height="1000" xlink:href="assets/img/aquarell2.png"  transform="matrix(1.4752 -0.0853 0.0853 1.4752 -604.3994 -45.5859)">
					</image>
				</g>
			</g>
		</g>
	</g>
</g>
<image overflow="visible" width="1440" height="1000" xlink:href="assets/img/aquarell2.png"  transform="matrix(1 0 0 1 2576.5 3524.5)">
</image>
<image overflow="visible" width="1440" height="1000" xlink:href="assets/img/aquarell2.png"  transform="matrix(1 0 0 1 2576.5 3524.5)">
</image>
<image overflow="visible" width="1440" height="1000" xlink:href="assets/img/aquarell2.png"  transform="matrix(1 0 0 1 2576.5 3524.5)">
</image>
</svg>
