<?xml version="1.0" encoding="utf-8"?>
<!-- Generator: Adobe Illustrator 16.2.1, SVG Export Plug-In . SVG Version: 6.00 Build 0)  -->
<!DOCTYPE svg PUBLIC "-//W3C//DTD SVG 1.1//EN" "http://www.w3.org/Graphics/SVG/1.1/DTD/svg11.dtd">
<svg version="1.1" id="Ebene_1" xmlns="http://www.w3.org/2000/svg" xmlns:xlink="http://www.w3.org/1999/xlink" x="0px" y="0px"
	 width="1400px" height="972.222px" viewBox="0 0 1400 972.222" enable-background="new 0 0 1400 972.222" xml:space="preserve">
<filter  id="splash3-addon">
	<feColorMatrix  type="hueRotate" values="150"></feColorMatrix>
	<feColorMatrix  type="saturate" values="1.1"></feColorMatrix>
	<feComponentTransfer>
		<feFuncR  type="linear" slope="0.45"></feFuncR>
		<feFuncG  type="linear" slope="0.85"></feFuncG>
		<feFuncB  type="linear" slope="0.65"></feFuncB>
	</feComponentTransfer>
</filter>
<filter  id="hue_splash_3">
	<feColorMatrix  type="hueRotate" values="160"></feColorMatrix>
	<feColorMatrix  type="saturate" values="1.3"></feColorMatrix>
	<feComponentTransfer>
		<feFuncR  type="linear" slope="0.65"></feFuncR>
		<feFuncG  type="linear" slope="0.85"></feFuncG>
		<feFuncB  type="linear" slope="0.85"></feFuncB>
	</feComponentTransfer>
</filter>
<g>
	<g>
		<defs>
			<path id="SVGID_1_" d="M521.34,371.936c-3.034,1.011-6.087,1.322-7.934-1.05c-1.614-2.081-3.383-4.083-4.531-6.476
				c-1.381-2.858-0.681-3.636,0.408-6.417c1.42-3.637,2.042-7.624,5.348-10.054c4.355-3.189,7.272-5.601,7.544-11.065
				c0.351-6.787,2.665-13.321,4.843-19.718c0.68-1.964,2.275-4.589,2.508-6.611c0.408-3.461-3.228-2.82-5.989-2.703
				c-5.445,0.194-10.89,0.855-16.14,2.353c-5.64,1.595-9.606,5.211-14.644,8.012c-4.375,2.431-8.283,3.947-11.278,8.089
				c-2.47,3.403-4.414,6.846-7.681,9.587c-6.398,5.387-15.752,10.695-24.094,7.059c-4.181-1.809-8.362-3.5-12.581-5.23
				c-4.258-1.751-8.381-4.706-13.204-4.609c-4.764,0.097-8.634,2.373-11.959,5.62c-5.95,5.775-9.665,13.242-15.829,18.863
				c-5.95,5.425-10.481,12.329-14,19.543c-3.734,7.661-9.256,14.604-11.396,22.926c-2.216,8.614-7.934,15.79-12.232,23.471
				c-2.392,4.278-2.508,8.284-7.816,8.634c-1.731,0.117-5.076,0.758-6.748-0.039c-3.384-1.633-3.986-7.117-6.981-9.159
				c-4.22-2.858-9.003,1.284-13.184,2.12c-2.489,0.486-4.512-0.545-6.981-0.312c-3.48,0.331-7.04,0.953-10.52,0.117
				c-9.102-2.197-15.44-11.667-20.827-18.59c-3.967-5.095-12.076-5.775-14.759-11.687c-1.187-2.606-1.633-4.842-5.056-5.679
				c-2.839-0.699-6.105,0.098-8.809,0.739c-2.82,0.661-5.679,1.226-8.187,2.761c-7.214,4.415-14.235,8.537-21.565,13.36
				c-6.922,4.55-14.234,9.101-20.923,14.059c-3.208,2.373-6.417,5.29-9.237,8.129c-3.772,3.831-7.662,7.545-12.153,10.539
				c-10.132,6.748-23.607,11.046-35.761,11.551c-9.509,0.389-19.99,1.924-29.033,4.822c-9.489,3.034-26.972,16.821-37.277,9.237
				c-6.748-4.979-11.025-13.301-16.082-19.834c-2.411-3.112-4.978-6.165-8.031-8.693c-1.576-1.302-5.562-4.997-7.701-5.017
				c-8.828-0.117-18.571,2.119-26.31,6.339c-7.856,4.278-16.587,2.897-24.657-0.097V171.312c6.183,0.351,12.484,0.972,18.609,1.983
				c7.37,1.206,14.76,2.528,21.994,4.453c2.684,0.72,4.395,1.886,6.748,3.17c2.626,1.439,5.737,1.556,8.284,3.208
				c4.784,3.13,10.617,5.153,15.557,8.167c5.386,3.306,10.734,6.708,15.945,10.287c6.32,4.336,11.571,8.829,19.563,7.895
				c9.275-1.069,18.279-1.575,27.632-1.361c4.006,0.098,8.031,0.078,12.018-0.486c2.937-0.409,8.343-0.797,10.792-2.548
				c2.12-1.536,3.501-3.889,5.64-5.367c2.878-2.022,6.437-1.594,9.762-1.555c4.531,0.078,9.12,0.155,13.593-0.583
				c3.579-0.604,6.806-2.762,10.403-3.131c5.056-0.506,8.168,2.78,11.92,5.483c3.987,2.878,9.121,1.42,13.709,1.439
				c2.12,0,4.356,0.155,6.456-0.098c3.598-0.428,6.786-2.645,10.423-2.703c1.809-0.02,4.784,1.128,6.437,0.098
				c3.928-2.432-0.836-11.201,4.589-12.504c4.356-1.05,8.459,1.284,12.602,1.77c3.441,0.409,7.136-0.02,10.598-0.02
				c6.242,0,16.004,0.544,19.427,6.864c0.972,1.789,0.875,4.979,1.36,7c0.468,2.022,1.012,4.045,1.848,5.951
				c1.244,2.858,3.092,5.406,5.99,6.728c9.723,4.454,22.576-3.598,30.685-8.245c9.237-5.29,21.021-13.418,32.396-10.579
				c10.442,2.605,12.291,11.687,26.738,7.195c10.423-3.247,7.176-3.345,13.477-10.715c7.662-8.945,11.589-23.394,18.999-32.455
				c16.704-20.418,40.991-13.495,61.177-25.144c13.981-8.07,18.453-29.382,35.138-36.616c10.773-4.667,22.266-6.125,33.622-8.459
				c9.236-1.906,17.851-7.681,26.174,0.505c5.542,5.464,3.598,12.387,4.589,19.291c1.284,8.887,7.214,14.234,15.926,15.712
				c20.146,3.423,40.953-6.145,56.666-17.948c7.642-5.736,15.128-12.212,23.451-16.102c9.431-4.414,16.626-0.253,25.708-1.575
				c17.852-2.586,35.586-27.088,52.271-35.722c11.609-6.009,25.629-3.442,37.628-7.331c13.65-4.434,25.201-8.964,39.436-10.054
				c14.818-1.127,29.48-0.058,43.617-5.717c7.992-3.189,15.984-5.64,24.308-7.292c8.887-1.769,17.948-0.331,26.951-1.575
				c9.179-1.283,15.362,0.68,17.657,14.779c3.733,22.946-16.121,20.749-27.224,28.255c-11.454,7.739-21.682,25.551-30.861,37.336
				c-9.858,12.659-17.851,27.438-24.929,42.995c-5.095,11.201-7.079,19.368-5.717,31.969c0.603,5.698-0.097,29.033,12.037,23.686
				c5.017-2.198,7.234-9.354,11.104-13.009c3.792-3.559,8.439-3.636,12.504-6.204c15.595-9.82,31.677-18.862,48.673-26.038
				c15.401-6.514,33.699-12.893,50.676-12.503c6.611,0.155,14.137,5.405,20.243,0.35c5.562-4.589,5.912-11.104,8.284-17.404
				c2.664-7.039,10.54-9.022,17.249-7.098c6.845,1.964,9.995,6.651,12.426,13.126c2.373,6.32,2.742,13.106,3.637,19.718
				c0.895,6.748,2.995,13.224,3.909,19.952c0.544,3.967-0.234,8.887,2.353,12.212c7.662,9.917,32.319,10.229,42.528,5.639
				c6.223-2.8,11.531-6.845,18.045-9.236c19.271-7.098,40-12.757,60.068-17.093c16.859-3.656,27.107-14.682,34.38-30.297
				c7.39-15.907,17.696-62.032,44.007-51.92c9.742,3.753,15.867,12.932,25.474,16.49c7.739,2.878,17.171,2.878,23.782,8.303
				c3.753,3.072,5.095,7.661,8.226,11.182c3.247,3.636,7.642,5.853,12.251,7.272c8.147,2.527,15.265,1.478,23.393-0.078
				c8.576-1.633,15.304-0.136,22.965,4.162c7.739,4.336,15.266,9.47,22.11,15.148v803.696c0-1.284-11.279,0.505-12.64,0.583
				c-2.858,0.155-5.134-1.478-7.836-2.159c-3.384-0.855-6.903-0.564-10.345-0.602c-6.65-0.078-13.048,4.608-19.582,3.169
				c-10.56-2.313-21.235-13.242-23.335-23.665c-1.05-5.154,0.428-9.49,0.642-14.565c0.312-7.409-3.792-15.206-7.234-21.507
				c-2.859-5.23-5.581-7.04-10.17-10.268c-3.072-2.158-4.628-5.911-7.876-7.739c-3.792-2.139-13.301-3.753-17.54-2.586
				c-3.364,0.933-2.236,2.547-1.73,5.697c0.389,2.431,0.778,3.928-0.312,5.95c-1.419,2.625-3.228,3.851-4.083,7.059
				c-2.684,9.937-12.134,14.896-21.682,17.074c-9.956,2.256-18.882,3.461-29.032,1.458c-4.336-0.855-5.231-2.975-6.554-7.117
				c-0.836-2.625-1.497-5.328-2.956-7.7c-1.362-2.217-3.481-3.403-5.037-5.348c-1.983-2.47-4.395-4.24-6.319-6.865
				c-2.917-3.987-2.548-4.842-7.623-5.386c-2.606-0.272-6.846-0.486-9.49,0.155c-3.364,0.836-5.542,3.461-9.295,3.015
				c-4.064-0.486-4.104-2.412-5.62-5.465c-1.906-3.831-5.523-5.406-8.654-8.012c-3.422-2.858-4.025-6.339-4.939-10.559
				c-1.828-8.478-1.167-18.668-8.187-24.735c-3.461-2.995-7.37-5.659-10.559-8.945c-2.625-2.703-3.189-4.919-6.611-6.689
				c-4.143-2.158-7.332-4.045-11.007-6.767c-3.655-2.703-8.4-4.317-12.329-6.864c-18.434-11.959-34.769-26.66-51.201-41.128
				c-22.129-19.465-52.523-26.932-75.158-45.775c-5.814-4.842-9.762-11.707-13.146-18.357c-2.041-4.006-3.597-9.062-6.65-12.465
				c-2.042-2.256-4.55-3.248-7.039-4.862c-5.873-3.811-11.065-8.672-15.226-14.292c-3.52-4.764-8.109-6.981-12.776-10.637
				c-7.351-5.795-20.126-15.129-21.138-25.435c-0.312-3.073,0.078-6.981-0.856-9.918c-0.758-2.333-2.547-3.831-3.053-6.378
				c-1.127-5.678,2.003-12.29-1.186-17.579c-2.333-3.89-3.831-6.67-3.928-11.259c-0.039-2.314,0.156-4.278-1.069-6.359
				c-2.314-3.967-11.648-10.462-16.198-9.315c-5.62,1.439-8.012,8.711-11.512,12.406c-3.831,4.045-12.64,3.014-17.541,1.945
				c-4.394-0.953-5.892-3.228-8.983-5.873c-4.161-3.559-10.307-4.473-14.176-8.401c-0.855-0.875-1.711-3.442-2.684-4.005
				c-1.867-1.089-5.25-0.37-7.233-0.234c-8.459,0.583-19.796,3.792-26.952-1.672c-6.028-4.608-10.112-11.064-14.351-17.209
				c-4.161-6.008-8.984-11.279-13.359-17.035c-2.645-3.5-3.714-8.031-6.98-11.084c-3.792-3.52-9.334-6.495-14.39-7.37
				c-4.375-0.758-10.19,1.458-14.39-0.174c-2.994-1.167-4.123-5.484-5.425-8.207c-2.976-6.281-3.306-14.429-8.459-19.018
				c-1.867-1.653-3.443-4.142-5.426-5.445c-2.606-1.712-6.106-2.217-8.926-3.481c-6.709-2.956-18.96,1.323-23.646-4.453
				c-3.365-4.162-3.306-9.898-5.037-14.74c-0.875-2.45-2.431-3.676-3.675-5.679c-1.672-2.683-1.633-5.833-2.392-8.828
				c-0.622-2.411-1.691-9.528-3.714-11.162c-2.528-2.042-11.006-0.72-14.04-0.194c-7.798,1.361-15.381,4.531-23.374,3.597
				c-7.331-0.875-12.523,2.917-19.134,5.581c-5.017,2.022-10.365,3.812-15.79,4.201c-4.998,0.369-9.47-1.05-14.06-2.859
				c-3.15-1.245-7.759-2.159-10.404-4.355c-1.983-1.673-1.167-3.325-0.038-5.328c2.061-3.637,4.316-7.176,6.164-10.909
				c2.392-4.843,4.103-8.712,8.07-12.407c4.881-4.55,8.303-10.151,12.115-15.557c2.119-3.014,4.803-6.417,5.522-10.112
				c0.428-2.159-0.272-4.22-0.233-6.359c0.176-6.787,6.223-12.115,11.045-16.082c5.095-4.2,9.917-8.439,13.32-14.195
				c1.673-2.839,3.812-7.137-0.019-9.179c-3.948-2.101-9.646-0.311-13.671,0.603c-5.775,1.303-10.462,3.5-15.537,6.573
				c-2.742,1.672-5.445,3.403-8.361,4.744c-2.703,1.226-5.659,1.595-8.343,2.84c-1.964,0.914-3.656,2.08-5.756,2.702
				c-2.839,0.856-5.872,1.128-8.342,2.898c-4.356,3.13-7.72,7.603-12.678,9.957c-4.045,1.925-8.343,2.664-12.582,3.947
				c-3.461,1.05-6.767,2.819-10.189,4.045C526.124,369.913,523.751,371.138,521.34,371.936z M881.593,616.603
				c-2.353-3.422-7.681-9.178-11.959-5.581c-0.836,0.701-1.283,1.245-2.022,2.062c-0.875,0.991-1.459,1.399-1.75,2.741
				c-0.35,1.595,0.059,3.442-0.098,5.075c-0.213,2.236-0.213,4.434,0.389,6.631c1.187,4.297,4.512,5.503,8.712,5.309
				c6.475-0.292,6.495-6.359,7.701-11.123C883.091,619.578,883.033,618.684,881.593,616.603z M829.207,585.314
				c-1.186-0.739-4.104-0.447-5.503-0.447c-1.206-0.02-3.928,0.311-4.259,1.789c-0.933,4.356,9.607,6.067,10.521,2.275
				C830.198,587.998,830.062,585.84,829.207,585.314z"/>
		</defs>
		<clipPath id="SVGID_2_">
			<use xlink:href="#SVGID_1_"  overflow="visible"/>
		</clipPath>
		<g transform="matrix(1 0 0 1 -1.220703e-04 -2.441406e-04)" clip-path="url(#SVGID_2_)" filter="url(#hue_splash_3)">
			
				<image overflow="visible" enable-background="new    " width="1440" height="1000" xlink:href="assets/img/aquarell2.png"  transform="matrix(1.409 0.5986 -0.5986 1.409 -243.6191 -580.9451)">
			</image>
		</g>
	</g>
</g>
<g>
	<defs>
		<rect id="SVGID_3_" x="-0.081" width="1392.481" height="967.015"/>
	</defs>
	<clipPath id="SVGID_4_">
		<use xlink:href="#SVGID_3_"  overflow="visible"/>
	</clipPath>
	
		<g transform="matrix(1 2.980232e-08 -2.980232e-08 1 -6.103516e-05 0)" opacity="0.6" clip-path="url(#SVGID_4_)" filter="url(#splash3-addon)" enable-background="new    ">
		
			<image overflow="visible" width="800" height="600" xlink:href="assets/img/aquarell_addon.png"  transform="matrix(-0.9317 0.6901 -0.6901 -0.9317 804.333 441.6309)">
		</image>
	</g>
</g>
<image overflow="visible" width="800" height="600" xlink:href="assets/img/aquarell_addon.png"  transform="matrix(1 0 0 1 2576.5 3524.5)">
</image>
<image overflow="visible" width="800" height="600" xlink:href="assets/img/aquarell_addon.png"  transform="matrix(1 0 0 1 2576.5 3524.5)">
</image>
</svg>
