<?xml version="1.0" encoding="utf-8"?>
<!-- Generator: Adobe Illustrator 16.2.1, SVG Export Plug-In . SVG Version: 6.00 Build 0)  -->
<!DOCTYPE svg PUBLIC "-//W3C//DTD SVG 1.1//EN" "http://www.w3.org/Graphics/SVG/1.1/DTD/svg11.dtd">
<svg version="1.1" id="Ebene_1" xmlns="http://www.w3.org/2000/svg" xmlns:xlink="http://www.w3.org/1999/xlink" x="0px" y="0px"
	 width="7200px" height="5000px" viewBox="0 0 7200 5000" enable-background="new 0 0 7200 5000" xml:space="preserve">
<filter  id="splash1">
	<feColorMatrix  type="hueRotate" values="0"></feColorMatrix>
	<feColorMatrix  type="saturate" values="0.9"></feColorMatrix>
</filter>
<g filter="url(#splash1)">
	<defs>
		<path id="SVGID_1_" d="M6502.7,1909.7c3.4,0.8,8,1.1,10.3,4.1c3.4,4.6,3.3,13.3,3.9,18.7c1.3,11.8,1.6,23.9-1.4,35.5
			c-4.6,17.8-20.5,42.8-41.5,42.7c-12.3-0.1-24.2-7.9-33.4-15.4c-9.4-7.7-19.5-18.1-22.3-30.3c-2.9-12.1,6.3-20.7,11.3-30.7
			c1.9-3.8,4.1-7.6,7.1-10.7c3.3-3.3,7.6-4.7,11.9-6.1c7.6-2.4,15-4.6,22.7-6.6c5.9-1.5,12.5-4.7,18.7-4.2
			C6494.2,1906.9,6498.5,1908.7,6502.7,1909.7z M7200,0v928.4c0,25-172.6,88.5-235.8,144.7c-72.3,64.3-119.1,199.7-168.6,313.5
			c-47.4,109.2-66.4,249.4-115,351.6c-69.5,146.3-134.8,93.3-222.9,87.4c-79.7-5.3-136.8,141.5-214.3,164.2
			c-93.3,27.3-179.9,166.6-257.6,271.9c-76.3,103.5-180.7,65.7-256.7,160.3c-25.1,31.3-35.5,77.5-47.8,127.1
			c-22.5,90.7-47.3,145.8-89.9,207.1c-9.4,13.5-18,32.2-27.4,44.3c-9.4,12-22.9,9.1-32.9,19.6c-9.8,10.2-16.7,27.1-25.6,40.5
			c-12,17.9-25.4,27.4-38.2,42.1c-14.7,16.9-26.2,43.7-40.8,61.8c-16.7,20.8-35.7,28.6-53.5,45.2c-16.9,15.6-32.8,34.4-50.4,47.2
			c-42.1,30.8-83.7,62.9-127.4,85.9c-19.7,10.4-39.5,19.3-59.4,28c-16.2,7.1-36.8,7.6-51.7,21.5c-7.6,7-15.1,20.2-23.1,25.5
			c-10.1,6.7-38.3,3.8-47.7-2.6c-9.3-6.3-12.6-20.9-20.4-29.8c-27.8-31.7-62.4-17-81.4,29c-6.9,16.7-9.3,34.7-15.3,53.2
			c-10.9,33.3-25.3,34.3-44.5,47.2c-32.6,21.9-55.6,47.2-83.5,81.7c-43.3,53.6-92.4,105.4-144.3,133.3
			c-35.1,18.8-71.4,31.6-103.2,67c-73.1,81.5-103.5,249.6-170.8,340c-17.4,23.4-30.1,54.2-47.8,77.5
			c-39.9,52.2-95.4,104.5-142.9,123.7c-29.9,12.1-56.4,20-84.9,39.7c-31.2,21.5-66.8,24.4-98.9,42c-43.4,23.7-85.4,62-127.4,92.9
			c-36.7,26.9-91.7,19.3-119.2,81.2c-15.5,35-3.9,71.6-29.5,93.9c-8,7-17.5,5.8-26,8.4c-10.1,3-13.1,10.1-20.5,20.7
			c-15.2,21.5-43.8,28.2-62.3,33c-20.4,5.3-41.2,3-61.5,9c-17.1,5.1-34.7,5-51.9,8.7c-15.4,3.4-31.1,1.8-46.8,1.8
			c-10.2,0-20.4,0.8-30.5,4c-12.9,4.2-25.3,12.5-37.9,16.9c-17.6,6-36.4,0.6-53.9,6.9c-38.6,13.9-73.4,37.1-113.8,35.2
			c-42.7-2-84.3-7.9-127.3-3.4c-83.8,8.8-178.7,19.9-257.7,74.5c-71.9,49.7-142.7,130.9-219.5,153.4
			c-66.5,19.5-129.7,24.6-196.4,25.4c-72,0.9-126-38.8-196-38.6c-39.3,0.1-97.8,18.9-135.3-1.4c-33.6-18.2-21.7-5-42.6-72.5
			c-20.9-67.1-22.8-110.2-62.4-130.6c-26.5-13.7-80.1-6.7-107.8,0.2c-25.2,6.2-46.5,31.6-70.2,44.7c-30.8,16.9-55.7,14.5-89.9,19.4
			c-58.8,8.4-119.1,29.3-175.6,56c-29,13.7-75,12.4-94.6,58.6c51.4,14.4,119.1-22.8,165.4,12.5c-19.1,198.6-270.2,172.9-341.3,173.2
			c-45,0.2-77-28.3-120.4-41.4c-63.8-19.3-132.7,17.1-196.7-1.9c-2.1-13.1-1.4-26,2.1-38.5c-21.6-54.2-107.8-18.4-140.9-18.5
			c-49.9-0.2-135.9,29.5-177.9-29.4c2.1-93.1,9.1-160.8-41.8-210.2c-35.8-34.7-83.8-28.6-123-24.5c-49.6,5.1-106.4,34.6-150.5,78.5
			c-51.8,51.3-99.6,75-153.8,115.5c-95,71.1-73.4-7.7-140,171.5V3588.3V0C1271.8,0,7200,0,7200,0z M2915.1,3923.5
			c-6.5-7.4-38.1,0.3-44.9,1.4c-26.4,4.2-51.9,15.3-79,14.6c-28.6-0.8-57.5,0-86.3-0.1c-23.8-0.1-52.4-3.4-76.3-0.5
			c-10.9,1.4-21.7,6.2-32.4,9.1c-22.8,6.1-48.5,7.5-70.3,16.3c-10.8,4.4-20.4,11.1-31.6,15.1c-34.5,12.5-65.5,28.3-98.1,44
			c-37.3,18-85.3,24.1-125.8,31.4c-36,6.5-74.2,10.2-110.4,14.8c-41.3,5.2-82.2,13.2-122.6,24.2c-58.6,16-114.7,39-172.6,57.1
			c-14.8,4.6-29.4,7.9-44.5,11c-5.6,1.1-13.7,0.7-18.1,5.1c-14.6,14.6,7.8,37.5,19.2,44.7c33.3,21.1,79.4,20.7,117.3,20.4
			c44.4-0.4,88.9-3.9,132.8-10.4c35.8-5.3,70.8-13,105.1-24.1c26.8-8.7,52.9-16.1,81.5-16.4c59.6-0.6,114.2,38.6,173.7,30.3
			c41.6-5.8,81.5-32.7,117.9-51.7c58.4-30.4,116.7-61.3,177.1-87.5c65.2-28.3,106.8-85.9,168.6-117.6
			C2903.5,3950.4,2926.1,3936.2,2915.1,3923.5z"/>
	</defs>
	<clipPath id="SVGID_2_">
		<use xlink:href="#SVGID_1_"  overflow="visible"/>
	</clipPath>
	<g transform="matrix(1 0 0 1 0 0)" clip-path="url(#SVGID_2_)">
		
			<image overflow="visible" width="1440" height="1000" xlink:href="assets/img/aquarell2.png"  transform="matrix(7.4063 0 0 7.4063 0 0)">
		</image>
	</g>
</g>
</svg>
