<?xml version="1.0" encoding="utf-8"?>
<!-- Generator: Adobe Illustrator 16.2.1, SVG Export Plug-In . SVG Version: 6.00 Build 0)  -->
<!DOCTYPE svg PUBLIC "-//W3C//DTD SVG 1.1//EN" "http://www.w3.org/Graphics/SVG/1.1/DTD/svg11.dtd">
<svg version="1.1" id="Ebene_1" xmlns="http://www.w3.org/2000/svg" xmlns:xlink="http://www.w3.org/1999/xlink" x="0px" y="0px"
	 width="1400px" height="972.222px" viewBox="0 0 1400 972.222" enable-background="new 0 0 1400 972.222" xml:space="preserve">
<filter  id="hue_trenner_3_addon">
	<feColorMatrix  type="hueRotate" values="15"></feColorMatrix>
</filter>
<filter  id="hue_trenner_3">
	<feColorMatrix  type="hueRotate" values="25"></feColorMatrix>
	<feColorMatrix  type="saturate" values="0.9"></feColorMatrix>
	<feComponentTransfer>
		<feFuncR  type="linear" slope="0.9"></feFuncR>
		<feFuncG  type="linear" slope="0.9"></feFuncG>
		<feFuncB  type="linear" slope="0.9"></feFuncB>
	</feComponentTransfer>
</filter>
<g filter="url(#hue_trenner_3)">
	<g>
		<defs>
			<path id="SVGID_1_" d="M1290.412,793.866c-3.985-0.914-12.014-0.681-12.791,4.646c-0.699,4.763,5.385,6.765,8.553,8.748
				c4.199,2.644,8.689,4.801,13.141,6.998c2.741,1.361,4.763,3.946,8.164,3.11c4.763-1.166,5.307-8.572,4.296-12.499
				c-1.4-5.443-8.339-4.917-12.694-6.434C1295.855,797.346,1293.775,794.644,1290.412,793.866z M180.179,212.099
				c0.331,0.039,0.642,0.078,0.972,0.117c8.572,1.029,17.378-0.098,25.892,1.225c12.792,2.002,25.562,4.917,38.587,4.704
				c6.862-0.116,13.685-1.03,20.469-1.963c3.226-0.428,23.89-0.524,13.063-6.317c-12.402-6.628-24.591-10.264-35.282-19.905
				c-6.628-5.987-9.428-10.497-19.108-10.983c-9.583-0.485-18.719-4.762-28.381-4.295c-2.099,0.096-9.661,0.466-9.797,3.46
				c-0.175,3.712,10.963,5.364,13.005,7.813c-1.303,0.739-3.441,0.351-4.859,0.331c-3.539-0.039-7.193,0.097-10.711-0.467
				c-11.372-1.788-22.918-3.052-34.018-6.259c-11.274-3.265-22.102-8.106-33.746-10.07c-7.387-1.243-14.812-3.557-22.374-3.285
				c-12.46,0.447-6.59,8.572,0.428,13.141c4.18,2.721,8.747,4.159,13.141,6.375c15.59,7.815,31.316,15.552,47.995,20.819
				C163.52,209.086,171.781,211.029,180.179,212.099z M1039.728,740.506c-1.341-2.877-4.452-7.523-8.262-5.268
				c-2.799,1.672-3.654,6.959-2.061,9.7c1.653,2.818,7.076,4.004,9.934,2.585C1042.585,745.891,1040.777,742.761,1039.728,740.506z
				 M273.894,123.69c-9.777-4.82-16.97-13.18-25.62-19.964c-9.409-7.367-21.11-13.102-33.124-14.598
				c-7.367-0.914-16.115-0.467-22.879-3.966c-4.977-2.566-7.056-7.251-11.372-10.497c-12.228-9.195-33.668-10.691-48.345-13.588
				c-26.379-5.21-50.58-19.245-76.492-26.748C37.342,28.907,18.855,20.703,0,14.191v70.505c5.19,2.488,10.108,5.365,15.687,6.784
				c6.065,1.535,12.383,1.225,18.584,1.167c16.97-0.156,33.532,3.208,50.366,4.548c6.532,0.525,10.303,2.975,15.881,5.618
				c13.938,6.57,27.915,8.767,42.844,10.77c18.642,2.507,36.234,7.23,55.245,8.339c22.122,1.283,37.207,3.927,56.198,16.329
				c10.264,6.706,28.653,25.115,42.629,22.938c11.858-1.847,6.026-17.67,1.691-27.156
				C291.33,130.591,282.116,127.734,273.894,123.69z M1399.601,904.065c-0.855-0.7-1.711-1.438-2.566-2.216
				c-11.742-10.731-22.569-10.672-36.254-17.145c-13.471-6.376-18.234-19.361-26.495-30.558
				c-10.848-14.735-29.781-24.824-46.362-31.491c-19.75-7.951-25.484-14.249-36.934-31.394
				c-10.925-16.349-30.655-23.056-32.055-44.904c-1.613-25.329,9.195-49.259,3.286-74.801c-3.344-14.443-10.361-27.7-15.746-41.425
				c-3.014-7.678-4.685-16.464-10.109-22.86c-11.857-13.977-31.607-23.618-45.428-35.748
				c-19.167-16.794-40.044-34.659-53.612-56.489c-5.793-9.331-10.633-18.72-19.011-26.028c-4.763-4.16-14.21-12.052-12.266-19.517
				c1.147-4.413,6.648-4.548,10.38-4.723c17.631-0.855,33.921,1.03,49.978,8.319c17.125,7.795,33.92,15.902,51.26,23.055
				c8.475,3.5,16.795,6.59,25.349,9.7c9.214,3.363,18.778,11.547,25.25,18.758c4.433,4.957,6.862,11.236,10.867,16.484
				c3.751,4.918,5.151,6.688,5.093,12.83c-0.039,4.315,3.051,10.595,4.432,14.696c1.691,5.015,3.849,9.875,7.309,13.938
				c8.281,9.739,23.599,16.251,36.292,16.076c11.741-0.156,22.51-7.076,34.368-5.443c6.667,0.914,11.566,4.918,17.729,7.096
				c3.888,1.38,7.795,1.049,11.838,1.38c7.134,0.583,15.299,2.332,22.121,4.413c7.134,2.177,15.182,15.61,21.247,21.674v-45.079
				c0-1.419-6.104-5.637-7.173-6.531c-2.255-1.886-4.568-3.713-6.862-5.54c-4.685-3.771-9.913-6.064-15.551-8.106
				c-12.83-4.646-25.349-7.775-38.722-10.575c-11.625-2.43-22.686-6.901-34.562-8.087c-6.434-0.641-11.702-2.508-17.359-5.579
				c-8.903-4.84-14.269-13.141-18.622-22.005c-3.616-7.368-8.651-14.268-11.722-21.907c-2.178-5.404-3.869-11.061-6.687-16.251
				c-1.167-2.139-2.916-3.752-3.985-6.026c-1.225-2.585-1.419-4.14-3.48-6.162c-9.369-9.059-19.244-17.534-29.235-25.874
				c-8.165-6.804-17.087-12.946-27.448-15.881c-6.687-1.886-13.335-1.089-20.119-1.691c-9.447-0.836-17.028-5.871-25.076-10.439
				c-9.875-5.598-20.081-10.613-30.208-15.765c-14.19-7.211-28.497-14.132-42.901-20.896c-7.97-3.732-15.959-7.426-23.968-11.061
				c-17.32-7.873-35.904-18.992-54.196-24.124c-18.136-5.073-41.327,0.039-60.28-1.146c-15.882-0.991-32.327-3.363-47.178-9.312
				c-11.333-4.549-22.142-10.536-34.116-13.394c-7.25-1.729-24.998-4.51-28.711,4.957c-1.885,4.801,2.002,11.799,5.035,15.396
				c5.404,6.396,14.21,10.167,21.247,14.385c15.163,9.136,32.793,16.854,46.284,28.323c9.505,8.086,11.994,21.966-2.896,25.056
				c-14.715,3.052-34.932-1.594-46.712-10.827c-11.236-8.825-21.635-17.358-34.057-24.668
				c-14.948-8.767-31.355-12.071-48.519-12.499c-7.29-0.194-11.1,4.549-17.534,7.581c-6.843,3.208-14.074,3.868-21.422,2.177
				c-16.057-3.692-27.351-15.823-40.219-25.095c-13.315-9.603-28.148-14.19-44.36-16.251c-14.871-1.885-34.329-3.712-47.586,4.938
				c-8.845,5.773-13.121,16.328-23.113,20.722c-34.115,14.987-79.272-28.79-101.938-48.986
				c-20.313-18.098-37.458-31.549-64.342-38.489c-21.967-5.656-44.438-9.175-66.831-12.557c-7.893-1.206-39.014-13.433-41.522,0.952
				c-2.489,14.307-6.454,18.292-20.799,20.469c-34.912,5.307-68.833,5.074-104.037,3.596c-11.896-0.505-26.689,1.711-38.12-2.177
				c-12.441-4.237-24.998-15.745-37.245-21.46c-9.078-4.237-16.795-7.795-24.726-13.18C40.627,226.931,21.285,207.705,0,199.502
				v430.553c9.564,4.179,14.462,13.452,21.946,21.888c4.704,5.269,12.149,6.998,18.914,7.426c3.266,0.214,6.299-0.524,9.544-0.583
				c3.402-0.059,6.707-0.233,8.864-3.285c1.769-2.507,1.108-5.54,2.158-8.223c0.758-1.905,2.391-3.052,3.596-4.627
				c3.461-4.528,6.007-9.524,9.875-13.82c2.508-2.78,5.229-5.287,8.164-7.601c3.324-2.605,3.674-1.73,7.387-1.652
				c6.22,0.136,12.11-5.132,17.106-8.301c4.646-2.974,8.669-6.396,12.888-9.914c8.825-7.348,20.1-5.073,30.694-7.406
				c32.949-7.29,59.347-34.874,93.657-38.917c21.149-2.508,43.212-4.899,64.518-4.219c8.242,0.272,20.353,1.225,27.564,5.696
				c5.385,3.343,5.929,10.478,8.922,15.609c5.559,9.505,11.119,19.73,20.216,26.125c3.791,2.663,7.212,5.56,10.711,8.436
				c1.575,1.303,1.808,2.586,4.179,3.208c4.977,1.283,11.178-3.033,12.947-7.426c1.69-4.218-0.855-10.438,0.875-14.074
				c1.924-4.062,8.65-3.168,12.363-3.129c29.742,0.33,53.224,29.333,73.985,47.917c30.558,27.351,59.716,39.597,100.518,40.063
				c18.332,0.214,36.856-3.693,53.379,6.901c12.305,7.892,20.994,17.456,35.087,22.762c16.154,6.085,34.096,12.986,51.396,14.463
				c12.674,1.069,31.724-0.719,39.889-12.071c4.394-6.124,5.579-14.91,11.546-20.022c3.538-3.032,11.683-1.964,13.393-6.939
				c1.575-4.588-5.792-12.149-6.687-16.543c-1.342-6.512,3.557-13.004,1.866-19.186c-2.683-9.816-18.408-10.361-26.359-10.789
				c-5.637-0.312-11.255-0.136-16.892-0.292c-19.05-0.543-45.157,2.722-62.03-8.533c-10.672-7.115-5.151-13.646,4.821-17.262
				c10.672-3.868,19.866-2.779,30.752-1.322c19.38,2.605,38.664,0.37,58.083,1.05c16.349,0.564,28.109,7.698,39.928,18.545
				c7.192,6.59,12.966,14.132,23.094,15.57c13.102,1.848,21.519-3.79,33.474-6.822c12.363-3.13,25.426-3.889,37.886-0.816
				c29.8,7.347,37.712,36.564,57.053,56.819c9.214,9.642,21.732,22.277,35.554,24.668c9.836,1.711,17.379-3.868,26.787-4.821
				c27.662-2.838,45.254,37.187,62.496,53.438c9.097,8.592,19.809,15.182,28.284,24.454c11.022,12.052,18.915,26.573,28.012,40.044
				c7.833,11.605,15.551,23.015,30.072,25.795c10.4,2.002,21.286-0.059,31.764,1.769c13.004,2.255,29.449,7.114,41.288,12.693
				c11.003,5.171,25.99,15.065,35.262,23.035c4.374,3.771,5.89,9.195,10.07,12.966c8.203,7.444,23.015,8.922,33.279,11.353
				c12.869,3.052,25.795,5.715,37.848,11.274c6.687,3.071,13.53,8.339,20.391,11.353c5.579,2.449,12.053,6.414,17.204,12.927
				L1399.601,904.065L1399.601,904.065z M873.642,700.034c5.521,5.151,11.119,10.342,16.018,16.096
				c1.924,2.255,6.143,6.454,5.734,9.816c-0.466,4.005-7.659,2.449-10.069,1.964c-5.19-1.031-9.914-2.177-15.26-2.158
				c-3.538,0.02-7.678-0.622-11.139,0.117c-8.533,1.866-14.852,1.535-18.934-6.94c-2.196-4.567-4.121-8.28-7.678-12.032
				s-7.309-2.372-12.013-2.722c-4.626-0.33-16.406,1.128-16.951-5.403c-0.331-4.024,2.119-8.825,3.519-12.52
				c1.535-4.081,3.791-7.678,4.567-12.09c0.816-4.646-0.272-8.807-1.205-13.336c-0.681-3.285-0.661-7.309,3.401-8.047
				c3.286-0.603,6.415,1.536,9.098,3.129c3.81,2.255,7.736,4.374,11.274,7.037c4.043,3.032,7.756,6.687,11.353,10.244
				C854.611,682.385,864.137,691.19,873.642,700.034z M87.222,658.183c-2.06,0.836-6.337,0.253-7.251-2.08
				c-0.972-2.488,1.536-3.188,3.48-3.363c1.011-0.097,6.123-0.564,6.337,0.778C90.138,655.442,89.029,657.444,87.222,658.183z
				 M1278.535,950.077c2.216,0.408,5.968,1.711,5.307,4.626c-0.486,2.158-3.363,3.675-5.443,3.228
				c-2.021-0.428-4.295-2.449-5.734-3.811c-1.614-1.555-2.314-3.577,0.37-4.276C1274.783,949.396,1276.786,949.767,1278.535,950.077
				z M1264.461,491.65c-1.341-0.778-1.886-2.43-3.013-3.382c-2.819-2.372-5.171-4.879-7.115-8.009
				c-1.224-1.963-3.148-4.666-2.527-7.134c0.739-2.838,4.452-2.196,6.551-1.535c2.1,0.661,3.519,1.672,4.646,3.538
				c1.419,2.372,3.052,4.666,4.413,7.076c1.536,2.722,2.76,7.231,1.419,10.303C1267.571,492.602,1265.55,492.271,1264.461,491.65z
				 M1236.508,748.651c-1.691,0.524-3.382-0.097-4.685-1.146c-1.283-1.031-3.693-3.11-2.935-5.016c0.68-1.73,4.256-4.646,6.22-4.18
				c2.507,0.603,3.266,4.471,3.324,6.59C1238.452,746.493,1238.258,748.107,1236.508,748.651z"/>
		</defs>
		<clipPath id="SVGID_2_">
			<use xlink:href="#SVGID_1_"  overflow="visible"/>
		</clipPath>
		<g transform="matrix(1 0 0 1 -1.525879e-05 0)" clip-path="url(#SVGID_2_)">
			
				<image overflow="visible" enable-background="new    " width="1440" height="1000" xlink:href="assets/img/aquarell2.png"  transform="matrix(1.2241 0 0 1.2241 -43.1631 -23.2275)">
			</image>
		</g>
	</g>
</g>
<image overflow="visible" filter="url(#hue_trenner_3_addon)" enable-background="new    " width="800" height="600" xlink:href="assets/img/aquarell_addon.png"  transform="matrix(1.235 0 0 1.235 53.9434 230.2275)">
</image>
<image overflow="visible" width="800" height="600" xlink:href="assets/img/aquarell_addon.png"  transform="matrix(1 0 0 1 2576.5 3524.5)">
</image>
</svg>
