<?xml version="1.0" encoding="utf-8"?>
<!-- Generator: Adobe Illustrator 16.2.1, SVG Export Plug-In . SVG Version: 6.00 Build 0)  -->
<!DOCTYPE svg PUBLIC "-//W3C//DTD SVG 1.1//EN" "http://www.w3.org/Graphics/SVG/1.1/DTD/svg11.dtd">
<svg version="1.1" id="Ebene_1" xmlns="http://www.w3.org/2000/svg" xmlns:xlink="http://www.w3.org/1999/xlink" x="0px" y="0px"
	 width="1400px" height="972.222px" viewBox="0 0 1400 972.222" enable-background="new 0 0 1400 972.222" xml:space="preserve">
<filter  id="hue_vvk_1">
	<feColorMatrix  type="hueRotate" values="-10"></feColorMatrix>
</filter>
<g>
	<defs>
		<path id="SVGID_1_" d="M217.953,335.298c-1.284-5.639-3.637-10.83-8.05-14.738c-3.422-3.034-5.133-7.156-7.758-10.831
			c-2.897-4.083-6.358-7.855-10.364-10.889c-2.683-2.042-13.261-9.664-11.005-13.708c1.964-3.539,9.236,0.544,11.608,1.886
			c4.647,2.625,11.9,0.681,17.014,0.603c6.514-0.116,12.911-0.7,19.386-1.478c6.592-0.797,13.553-1.905,20.203-1.167
			c3.539,0.389,8.594,2.586,9.664,6.32c1.303,4.569,1.77,9.372,2.197,14.117c0.272,3.188,1.498,5.697,2.781,8.594
			c0.914,2.022,1.419,5.075,2.839,6.806c0.972,1.186,2.78,2.333,4.122,2.956c1.886,0.855,3.617,1.809,5.153,3.306
			c0.817,0.797,1.38,1.828,2.314,2.527c0.991,0.759,2.119,0.856,3.208,1.342c2.12,0.973,4.336,2.372,6.3,3.656
			c3.967,2.586,7.875,5.639,10.072,9.975c1.264,2.489,1.886,5.25,1.808,8.03c-0.272,9.956,4.803,15.556,10.014,23.353
			c3.481,5.192,8.07,8.458,11.667,13.339c3.578,4.842,8.886,6.883,13.397,10.52c2.178,1.75,4.491,3.267,6.747,4.861
			c11.706,8.283,23.761,19.134,33.697,29.77c2.217,2.372,8.847,8.381,5.717,12.056c-1.789,2.1-4.569,0.311-6.611-0.428
			c-3.753-1.381-8.089-2.392-12.114-1.75c-5.094,0.797-5.308,7.467-9.08,11.181c-3.694,3.636-10.15,8.77-15.789,7.544
			c-2.353-0.505-5.444-2.372-7.525-3.558c-7.836-4.492-9.022-12.055-13.514-19.172c-3.675-5.833-6.825-8.925-7.758-15.828
			c-0.564-4.18-3.306-4.919-6.437-7.428c-7.35-5.892-19.27-11.064-28.661-12.133c-7.642-0.875-12.969,1.069-19.561-3.422
			c-7.466-5.114-15.011-9.644-19.639-17.694c-3.306-5.775-5.561-12.056-8.225-18.142c-2.217-5.056-7.312-10.811-7.681-16.373
			c-0.117-1.808-0.02-3.519,0.117-5.211C218.4,341.19,218.653,338.429,217.953,335.298z M377.611,465.09
			c2.975-6.417-5.172-8.848-9.547-5.483c-1.245,0.973-4.822,2.605-4.9,4.239c-0.098,1.925,2.645,3.363,4.142,3.752
			C371,468.512,375.764,469.037,377.611,465.09z M490.681,693.834c-1.964-1.419-4.608-1.905-6.941-2.255
			c-2.47-0.37-4.881,1.672-7.156,2.43c-1.536,0.505-4.899-0.389-4.647,2.1c0.175,1.866,2.255,1.575,3.597,1.866
			c2.567,0.584,5.017,2.82,7,4.434c2.139,1.73,5.795,5.503,8.847,4.608C497.7,705.151,494.336,696.498,490.681,693.834z
			 M557.22,808.44c-3.87,0.272-6.845-0.311-10.947-0.467c-10.87-0.408-12.659,19.444-3.947,23.255
			c4.083,1.789,10.344,0.312,14.389-0.914c6.105-1.886,8.886-6.125,13.903-9.353c5.814-3.753,12.444-6.066,15.283-13.086
			c2.197-5.386,0.661-8.069-4.822-9.917c-5.795-1.964-8.828-0.777-12.445,4.142c-3.597,4.881-3.811,5.425-9.722,6.184
			C558.328,808.343,557.764,808.401,557.22,808.44z M0,176.496c4.589,4.783,9.858,9.061,13.592,14.544
			c2.994,4.395,3.072,10.033,5.775,15.283c3.189,6.183,8.594,10.441,12.483,16.042c4.317,6.203,9.43,12.231,14.525,17.831
			c8.536,9.411,15.206,20.319,22.206,30.878c5.192,7.816,10.228,16.586,19.347,20.222c8.75,3.48,17.772,5.502,26.522,9.45
			c9.839,4.434,24.188,7.409,30.274,17.131c3.481,5.542,6.456,11.355,9.45,17.169c6.961,13.417,14.603,26.502,27.437,35.136
			c13.047,8.789,25.355,12.736,33.172,27.708c4.2,8.031,11.064,14.797,14.447,23.178c4.375,10.831,2.605,23.742,6.281,35.039
			c2.489,7.661,6.864,14.506,10.539,21.642c10.189,19.775,24.5,40.386,44.703,51.022c7.447,3.928,15.886,5.444,23.353,9.353
			c5.444,2.858,10.169,6.903,15.536,9.858c13.105,7.194,28.136,5.075,40.191,15.342c10.851,9.236,15.712,25.006,28.603,31.889
			c7.895,4.22,17.267,4.161,25.939,4.453c8.633,0.272,14.525,6.125,21.156,11.239c10.286,7.933,20.825,15.497,30.489,24.208
			c6.184,5.561,12.542,13.436,20.125,17.149c5.075,2.489,9.081,3.539,13.63,7.603c17.578,15.653,27.008,34.65,29.264,57.692
			c1.497,15.283,3.169,29.536,6.883,44.392c2.411,9.664,2.567,19.133-3.461,27.553c-5.872,8.205-18.608,12.639-22.575,21.953
			c-3.248,7.661,3.286,15.146,7.544,20.941c4.9,6.65,9.78,14.797,16.664,19.6c6.669,4.647,15.905,6.067,23.411,2.547
			c8.264-3.87,7.992-11.103,13.047-17.228c4.958-6.008,14.739-4.044,21.603-3.675c10.033,0.564,21.389-0.311,31.208,2.003
			c5.697,1.342,8.108,5.483,12.502,8.847c4.297,3.286,8.906,4.258,14.02,5.522c6.456,1.595,14.895,4.161,19.561,9.178
			c4.628,4.958,7.875,10.228,13.514,14.466c11.978,9.003,27.495,11.647,42.175,10.87c8.283-0.447,16.508-1.964,24.364-4.667
			c5.191-1.77,9.392-0.583,14.525-1.322c5.892-0.836,10.072-5.017,15.4-7.408c4.317-1.925,9.022-1.828,13.242-3.637
			c3.325-1.419,6.222-4.414,9.294-6.338c10.325-6.397,8.77-1.109,15.264,6.242c8.108,9.158,18.589,13.008,28.37,20.844l0,0
			c7.409,5.95,13.534,13.008,21.525,18.278c4.744,3.131,9.275,5.522,12.347,10.5c5.678,9.217-1.983,22.73,10.558,25.589
			c6.903,1.575,15.108-0.155,22.303,1.03c9.431,1.575,18.258,5.406,27.786,7.331c11.161,2.255,22.031,5.794,31.539,12.191
			c3.189,2.139,5.153,7.196,9.292,9.063H0V176.496z M376.406,700.134c7.583,4.939,16.372,7.817,24.811,10.908
			c19.639,7.195,37.8,16.645,54.483,29.342c9.139,6.961,17.52,17.072,29.905,16.858c4.783-0.077,10.636-1.088,14.35-4.375
			c3.87-3.441,3.111-7.797,1.478-12.191c-1.789-4.822-3.714-9.197-3.111-14.486c0.797-7.117,4.647-13.495,5.872-20.534
			c3.48-20.047-19.25-22.847-34.047-22.05c-6.942,0.369-13.845,1.225-20.786,1.75c-5.736,0.428-11.706,0.855-17.422-0.059
			c-3.559-0.563-6.708-1.983-10.073-3.13c-9.605-3.286-19.172,2.956-28.641,0.195c-3.403-0.992-6.359-1.575-9.956-1.42
			c-4.997,0.233-14.661,0.895-15.886,7.136C366.431,693.29,372.77,697.762,376.406,700.134z M1021.845,946.787
			c-0.623-1.031-1.439-1.031-2.548-1.361c-1.322-0.408-2.702-0.758-4.083-0.797c-0.816-0.02-2.722,0.233-3.208,0.972
			c-0.525,0.798,0.506,2.839,1.031,3.403c0.797,0.855,1.808,0.895,2.8,1.361c1.419,0.642,2.684,0.505,4.239,0.564
			c1.399,0.059,2.858,0.447,3.305-1.342C1023.711,948.284,1022.447,947.779,1021.845,946.787z"/>
	</defs>
	<clipPath id="SVGID_2_">
		<use xlink:href="#SVGID_1_"  overflow="visible"/>
	</clipPath>
	<g transform="matrix(1 0 0 1 3.051758e-05 0)" clip-path="url(#SVGID_2_)" filter="url(#hue_vvk_1)">
		
			<image overflow="visible" width="1440" height="1000" xlink:href="assets/img/aquarell2.png"  transform="matrix(1.3595 0 0 1.3595 -310.7305 -106.917)">
		</image>
	</g>
</g>
<g>
	<defs>
		<rect id="SVGID_3_" width="1400" height="972.222"/>
	</defs>
	<clipPath id="SVGID_4_">
		<use xlink:href="#SVGID_3_"  overflow="visible"/>
	</clipPath>
	<g transform="matrix(1 -7.450581e-09 7.450581e-09 1 -3.814697e-06 0)" clip-path="url(#SVGID_4_)">
		
			<image overflow="visible" width="800" height="600" xlink:href="assets/img/aquarell_addon.png"  transform="matrix(1.1991 0.0905 -0.0905 1.1991 -60.9497 213.3506)">
		</image>
	</g>
</g>
</svg>
