<?xml version="1.0" encoding="utf-8"?>
<!-- Generator: Adobe Illustrator 16.2.1, SVG Export Plug-In . SVG Version: 6.00 Build 0)  -->
<!DOCTYPE svg PUBLIC "-//W3C//DTD SVG 1.1//EN" "http://www.w3.org/Graphics/SVG/1.1/DTD/svg11.dtd">
<svg version="1.1" id="Ebene_1" xmlns="http://www.w3.org/2000/svg" xmlns:xlink="http://www.w3.org/1999/xlink" x="0px" y="0px"
	 width="7200px" height="5000px" viewBox="0 0 7200 5000" enable-background="new 0 0 7200 5000" xml:space="preserve">
<filter  id="splash3-addon">
	<feColorMatrix  type="hueRotate" values="150"></feColorMatrix>
	<feColorMatrix  type="saturate" values="1.1"></feColorMatrix>
	<feComponentTransfer>
		<feFuncR  type="linear" slope="0.45"></feFuncR>
		<feFuncG  type="linear" slope="0.85"></feFuncG>
		<feFuncB  type="linear" slope="0.65"></feFuncB>
	</feComponentTransfer>
</filter>
<filter  id="hue_splash_3">
	<feColorMatrix  type="hueRotate" values="160"></feColorMatrix>
	<feColorMatrix  type="saturate" values="1.3"></feColorMatrix>
	<feComponentTransfer>
		<feFuncR  type="linear" slope="0.65"></feFuncR>
		<feFuncG  type="linear" slope="0.85"></feFuncG>
		<feFuncB  type="linear" slope="0.85"></feFuncB>
	</feComponentTransfer>
</filter>
<g>
	<defs>
		<path id="SVGID_1_" d="M2681.4,1913.3c-15.6,5.2-31.3,6.8-40.8-5.4c-8.3-10.7-17.4-21-23.3-33.3c-7.1-14.7-3.5-18.7,2.1-33
			c7.3-18.7,10.5-39.2,27.5-51.7c22.4-16.4,37.4-28.8,38.8-56.9c1.8-34.9,13.7-68.5,24.9-101.4c3.5-10.1,11.7-23.6,12.9-34
			c2.1-17.8-16.6-14.5-30.8-13.9c-28,1-56,4.4-83,12.1c-29,8.2-49.4,26.8-75.3,41.2c-22.5,12.5-42.6,20.3-58,41.6
			c-12.7,17.5-22.7,35.2-39.5,49.3c-32.9,27.7-81,55-123.9,36.3c-21.5-9.3-43-18-64.7-26.9c-21.9-9-43.1-24.2-67.9-23.7
			c-24.5,0.5-44.4,12.2-61.5,28.9c-30.6,29.7-49.7,68.1-81.4,97c-30.6,27.9-53.9,63.4-72,100.5c-19.2,39.4-47.6,75.1-58.6,117.9
			c-11.4,44.3-40.8,81.2-62.9,120.7c-12.3,22-12.9,42.6-40.2,44.4c-8.9,0.6-26.1,3.9-34.7-0.2c-17.4-8.4-20.5-36.6-35.9-47.1
			c-21.7-14.7-46.3,6.6-67.8,10.9c-12.8,2.5-23.2-2.8-35.9-1.6c-17.9,1.7-36.2,4.9-54.1,0.6c-46.8-11.3-79.4-60-107.1-95.6
			c-20.4-26.2-62.1-29.7-75.9-60.1c-6.1-13.4-8.4-24.9-26-29.2c-14.6-3.6-31.4,0.5-45.3,3.8c-14.5,3.4-29.2,6.3-42.1,14.2
			c-37.1,22.7-73.2,43.9-110.9,68.7c-35.6,23.4-73.2,46.8-107.6,72.3c-16.5,12.2-33,27.2-47.5,41.8c-19.4,19.7-39.4,38.8-62.5,54.2
			c-52.1,34.7-121.4,56.8-183.9,59.4c-48.9,2-102.8,9.9-149.3,24.8c-48.8,15.6-138.7,86.5-191.7,47.5c-34.7-25.6-56.7-68.4-82.7-102
			c-12.4-16-25.6-31.7-41.3-44.7c-8.1-6.7-28.6-25.7-39.6-25.8c-45.4-0.6-95.5,10.9-135.3,32.6c-40.4,22-85.3,14.9-126.8-0.5V881.6
			c31.8,1.8,64.2,5,95.7,10.2c37.9,6.2,75.9,13,113.1,22.9c13.8,3.7,22.6,9.7,34.7,16.3c13.5,7.4,29.5,8,42.6,16.5
			c24.6,16.1,54.6,26.5,80,42c27.7,17,55.2,34.5,82,52.9c32.5,22.3,59.5,45.4,100.6,40.6c47.7-5.5,94-8.1,142.1-7
			c20.6,0.5,41.3,0.4,61.8-2.5c15.1-2.1,42.9-4.1,55.5-13.1c10.9-7.9,18-20,29-27.6c14.8-10.4,33.1-8.2,50.2-8
			c23.3,0.4,46.9,0.8,69.9-3c18.4-3.1,35-14.2,53.5-16.1c26-2.6,42,14.3,61.3,28.2c20.5,14.8,46.9,7.3,70.5,7.4
			c10.9,0,22.4,0.8,33.2-0.5c18.5-2.2,34.9-13.6,53.6-13.9c9.3-0.1,24.6,5.8,33.1,0.5c20.2-12.5-4.3-57.6,23.6-64.3
			c22.4-5.4,43.5,6.6,64.8,9.1c17.7,2.1,36.7-0.1,54.5-0.1c32.1,0,82.3,2.8,99.9,35.3c5,9.2,4.5,25.6,7,36
			c2.4,10.4,5.2,20.8,9.5,30.6c6.4,14.7,15.9,27.8,30.8,34.6c50,22.9,116.1-18.5,157.8-42.4c47.5-27.2,108.1-69,166.6-54.4
			c53.7,13.4,63.2,60.1,137.5,37c53.6-16.7,36.9-17.2,69.3-55.1c39.4-46,59.6-120.3,97.7-166.9c85.9-105,210.8-69.4,314.6-129.3
			c71.9-41.5,94.9-151.1,180.7-188.3c55.4-24,114.5-31.5,172.9-43.5c47.5-9.8,91.8-39.5,134.6,2.6c28.5,28.1,18.5,63.7,23.6,99.2
			c6.6,45.7,37.1,73.2,81.9,80.8c103.6,17.6,210.6-31.6,291.4-92.3c39.3-29.5,77.8-62.8,120.6-82.8c48.5-22.7,85.5-1.3,132.2-8.1
			c91.8-13.3,183-139.3,268.8-183.7c59.7-30.9,131.8-17.7,193.5-37.7c70.2-22.8,129.6-46.1,202.8-51.7
			c76.2-5.8,151.6-0.3,224.3-29.4c41.1-16.4,82.2-29,125-37.5c45.7-9.1,92.3-1.7,138.6-8.1c47.2-6.6,79,3.5,90.8,76
			c19.2,118-82.9,106.7-140,145.3c-58.9,39.8-111.5,131.4-158.7,192c-50.7,65.1-91.8,141.1-128.2,221.1
			c-26.2,57.6-36.4,99.6-29.4,164.4c3.1,29.3-0.5,149.3,61.9,121.8c25.8-11.3,37.2-48.1,57.1-66.9c19.5-18.3,43.4-18.7,64.3-31.9
			c80.2-50.5,162.9-97,250.3-133.9c79.2-33.5,173.3-66.3,260.6-64.3c34,0.8,72.7,27.8,104.1,1.8c28.6-23.6,30.4-57.1,42.6-89.5
			c13.7-36.2,54.2-46.4,88.7-36.5c35.2,10.1,51.4,34.2,63.9,67.5c12.2,32.5,14.1,67.4,18.7,101.4c4.6,34.7,15.4,68,20.1,102.6
			c2.8,20.4-1.2,45.7,12.1,62.8c39.4,51,166.2,52.6,218.7,29c32-14.4,59.3-35.2,92.8-47.5c99.1-36.5,205.7-65.6,308.9-87.9
			c86.7-18.8,139.4-75.5,176.8-155.8c38-81.8,91-319,226.3-267c50.1,19.3,81.6,66.5,131,84.8c39.8,14.8,88.3,14.8,122.3,42.7
			c19.3,15.8,26.2,39.4,42.3,57.5c16.7,18.7,39.3,30.1,63,37.4c41.9,13,78.5,7.6,120.3-0.4c44.1-8.4,78.7-0.7,118.1,21.4
			c39.8,22.3,78.5,48.7,113.7,77.9c0,0,0,4133,0,4133c0-6.6-58,2.6-65,3c-14.7,0.8-26.4-7.6-40.3-11.1c-17.4-4.4-35.5-2.9-53.2-3.1
			c-34.2-0.4-67.1,23.7-100.7,16.3c-54.3-11.9-109.2-68.1-120-121.7c-5.4-26.5,2.2-48.8,3.3-74.9c1.6-38.1-19.5-78.2-37.2-110.6
			c-14.7-26.9-28.7-36.2-52.3-52.8c-15.8-11.1-23.8-30.4-40.5-39.8c-19.5-11-68.4-19.3-90.2-13.3c-17.3,4.8-11.5,13.1-8.9,29.3
			c2,12.5,4,20.2-1.6,30.6c-7.3,13.5-16.6,19.8-21,36.3c-13.8,51.1-62.4,76.6-111.5,87.8c-51.2,11.6-97.1,17.8-149.3,7.5
			c-22.3-4.4-26.9-15.3-33.7-36.6c-4.3-13.5-7.7-27.4-15.2-39.6c-7-11.4-17.9-17.5-25.9-27.5c-10.2-12.7-22.6-21.8-32.5-35.3
			c-15-20.5-13.1-24.9-39.2-27.7c-13.4-1.4-35.2-2.5-48.8,0.8c-17.3,4.3-28.5,17.8-47.8,15.5c-20.9-2.5-21.1-12.4-28.9-28.1
			c-9.8-19.7-28.4-27.8-44.5-41.2c-17.6-14.7-20.7-32.6-25.4-54.3c-9.4-43.6-6-96-42.1-127.2c-17.8-15.4-37.9-29.1-54.3-46
			c-13.5-13.9-16.4-25.3-34-34.4c-21.3-11.1-37.7-20.8-56.6-34.8c-18.8-13.9-43.2-22.2-63.4-35.3
			c-94.8-61.5-178.8-137.1-263.3-211.5c-113.8-100.1-270.1-138.5-386.5-235.4c-29.9-24.9-50.2-60.2-67.6-94.4
			c-10.5-20.6-18.5-46.6-34.2-64.1c-10.5-11.6-23.4-16.7-36.2-25c-30.2-19.6-56.9-44.6-78.3-73.5c-18.1-24.5-41.7-35.9-65.7-54.7
			c-37.8-29.8-103.5-77.8-108.7-130.8c-1.6-15.8,0.4-35.9-4.4-51c-3.9-12-13.1-19.7-15.7-32.8c-5.8-29.2,10.3-63.2-6.1-90.4
			c-12-20-19.7-34.3-20.2-57.9c-0.2-11.9,0.8-22-5.5-32.7c-11.9-20.4-59.9-53.8-83.3-47.9c-28.9,7.4-41.2,44.8-59.2,63.8
			c-19.7,20.8-65,15.5-90.2,10c-22.6-4.9-30.3-16.6-46.2-30.2c-21.4-18.3-53-23-72.9-43.2c-4.4-4.5-8.8-17.7-13.8-20.6
			c-9.6-5.6-27-1.9-37.2-1.2c-43.5,3-101.8,19.5-138.6-8.6c-31-23.7-52-56.9-73.8-88.5c-21.4-30.9-46.2-58-68.7-87.6
			c-13.6-18-19.1-41.3-35.9-57c-19.5-18.1-48-33.4-74-37.9c-22.5-3.9-52.4,7.5-74-0.9c-15.4-6-21.2-28.2-27.9-42.2
			c-15.3-32.3-17-74.2-43.5-97.8c-9.6-8.5-17.7-21.3-27.9-28c-13.4-8.8-31.4-11.4-45.9-17.9c-34.5-15.2-97.5,6.8-121.6-22.9
			c-17.3-21.4-17-50.9-25.9-75.8c-4.5-12.6-12.5-18.9-18.9-29.2c-8.6-13.8-8.4-30-12.3-45.4c-3.2-12.4-8.7-49-19.1-57.4
			c-13-10.5-56.6-3.7-72.2-1c-40.1,7-79.1,23.3-120.2,18.5c-37.7-4.5-64.4,15-98.4,28.7c-25.8,10.4-53.3,19.6-81.2,21.6
			c-25.7,1.9-48.7-5.4-72.3-14.7c-16.2-6.4-39.9-11.1-53.5-22.4c-10.2-8.6-6-17.1-0.2-27.4c10.6-18.7,22.2-36.9,31.7-56.1
			c12.3-24.9,21.1-44.8,41.5-63.8c25.1-23.4,42.7-52.2,62.3-80c10.9-15.5,24.7-33,28.4-52c2.2-11.1-1.4-21.7-1.2-32.7
			c0.9-34.9,32-62.3,56.8-82.7c26.2-21.6,51-43.4,68.5-73c8.6-14.6,19.6-36.7-0.1-47.2c-20.3-10.8-49.6-1.6-70.3,3.1
			c-29.7,6.7-53.8,18-79.9,33.8c-14.1,8.6-28,17.5-43,24.4c-13.9,6.3-29.1,8.2-42.9,14.6c-10.1,4.7-18.8,10.7-29.6,13.9
			c-14.6,4.4-30.2,5.8-42.9,14.9c-22.4,16.1-39.7,39.1-65.2,51.2c-20.8,9.9-42.9,13.7-64.7,20.3c-17.8,5.4-34.8,14.5-52.4,20.8
			C2706,1902.9,2693.8,1909.2,2681.4,1913.3z M4534,3171.5c-12.1-17.6-39.5-47.2-61.5-28.7c-4.3,3.6-6.6,6.4-10.4,10.6
			c-4.5,5.1-7.5,7.2-9,14.1c-1.8,8.2,0.3,17.7-0.5,26.1c-1.1,11.5-1.1,22.8,2,34.1c6.1,22.1,23.2,28.3,44.8,27.3
			c33.3-1.5,33.4-32.7,39.6-57.2C4541.7,3186.8,4541.4,3182.2,4534,3171.5z M4264.6,3010.6c-6.1-3.8-21.1-2.3-28.3-2.3
			c-6.2-0.1-20.2,1.6-21.9,9.2c-4.8,22.4,49.4,31.2,54.1,11.7C4269.7,3024.4,4269,3013.3,4264.6,3010.6z"/>
	</defs>
	<clipPath id="SVGID_2_">
		<use xlink:href="#SVGID_1_"  overflow="visible"/>
	</clipPath>
	<g transform="matrix(1 0 0 1 -1.220703e-04 -2.441406e-04)" clip-path="url(#SVGID_2_)" filter="url(#hue_splash_3)">
		
			<image overflow="visible" width="1440" height="1000" xlink:href="assets/img/aquarell2.png"  transform="matrix(7.2459 3.0785 -3.0785 7.2459 -1252.3906 -2986.875)">
		</image>
	</g>
</g>
<image overflow="visible" opacity="0.6" filter="url(#splash3-addon)" width="800" height="600" xlink:href="assets/img/aquarell_addon.png"  transform="matrix(-4.8173 3.5683 -3.5683 -4.8173 4159.2656 2283.4746)">
</image>
</svg>
