<?xml version="1.0" encoding="utf-8"?>
<!-- Generator: Adobe Illustrator 16.2.1, SVG Export Plug-In . SVG Version: 6.00 Build 0)  -->
<!DOCTYPE svg PUBLIC "-//W3C//DTD SVG 1.1//EN" "http://www.w3.org/Graphics/SVG/1.1/DTD/svg11.dtd">
<svg version="1.1" id="Ebene_1" xmlns="http://www.w3.org/2000/svg" xmlns:xlink="http://www.w3.org/1999/xlink" x="0px" y="0px"
	 width="7200px" height="5000px" viewBox="0 0 7200 5000" enable-background="new 0 0 7200 5000" xml:space="preserve">
<filter  id="splash2-addon">
	<feColorMatrix  type="hueRotate" values="-20"></feColorMatrix>
	<feColorMatrix  type="saturate" values="1.2"></feColorMatrix>
</filter>
<filter  id="splash2">
	<feColorMatrix  type="hueRotate" values="48"></feColorMatrix>
	<feColorMatrix  type="saturate" values="1.2"></feColorMatrix>
</filter>
<image overflow="visible" opacity="0.6" filter="url(#splash2-addon)" enable-background="new    " width="800" height="600" xlink:href="assets/img/aquarell_addon.png"  transform="matrix(8.139 -0.1023 0.3783 7.7719 3119.5938 121.8672)">
</image>
<g id="splash1" filter="url(#splash2)">
	<g>
		<defs>
			<path id="SVGID_1_" d="M7199.7,2829.5c-6.9-3.1-12.9-6.4-19.6-9.8c-23.4-11.8-50.5-41.3-78.4-26.4
				c-38.2,20.4-85.5-4.6-119.1-22.7c-38.5-20.7-73.6-49-108.1-75.6c-17.3-13.4-34.8-26.6-53.2-38.4
				c-49.7-31.6-102.1-58.3-154.7-84.7l0,0c-40-20.2-94.2-73.6-142.1-62.9c-67.4,15.1-102.7,113.5-149.4,156.3
				c-56,51.3-86.4,102.1-157.8,52.3c-131-91.3-245.1-173.5-309.9-325.3c-32.2-75.4-34.5-160.2-68.2-235
				c-34.2-75.7-109.3-139.6-172.6-190.8c-54.1-43.7-122.2-72.1-166.6-127.2c-26.4-32.8-100.6-200.6-160-147
				c-10.7,9.7-17.8,11.2-32.9,8.5c-158.6-29.1-267.5-194.5-361.5-310c-22.7-27.9-42.1-82.1-75.6-98.5c-61.6-30.2-40,51.7-93.5,61.3
				c0,0,0,0-0.1,0l0,0c-53,9.3-99.3-69.5-130.2-102.4c-55.3-58.9-106.1-121.8-161.3-180.7c-34.5-36.8-78.1-64.2-111.3-102.3
				c-31.4-36.1-47.2-81.2-80.3-116.2c-48.9-51.6-87.8-112.3-140.3-160.6c-54.9-50.5-127.6-67.8-164.1-137.9
				c-25.2-48.2-87.8,62.3-99.6,79.2c-21.3,30.4-45.8,64.2-84.4,72c-32.2,6.5-36.7-11.6-65,11.9c-34.2,28.5-32.3,74.9-78.3,92
				c-129.7,48.1-225.9-64.5-291.8-160.4c-44.4-64.7-73.8-139.6-124.1-200.8c-67.2-81.7-115.8-67.4-169.8,15.7
				c-53.2,81.8-76.2,174.5-114.8,262.8C2906.6,851.4,2780,940,2733,1072.7c-6,16.8-8.8,34.6-19.9,48.2
				c-40.9,50-66.2,112-111.6,158.5c-20.8,21.3-43.1,41-73.2,46.9c-31.4,6.2-74.9-22.5-101.2-2.9c-50.9,38-68.3,101-104.4,150.5
				c-54.7,75.1-132.7,87-219.1,73.9c-120.4-18.2-270.8-61-391.2-25.4c-51.1,15.1-77.4,58.9-124,79.9c-79,35.5-148.4-50-227.4-27.6
				c-54.7,15.5-83.8,63.1-113.7,107.3c-43.1,63.6-108.5,103.8-164.8,154.3c-60.4,54.2-125.6,123-210.9,142.7
				c-90.7,20.9-141.7-69.6-218.4-58.4c-48.9,7.2-72.5,65.4-110.3,89c-40.7,25.4-84.1-11.1-126.8,23.3c-33.6,27.1-46.5,74.9-71,109.1
				c-65.4,91.6-151.6,181.9-233.4,259.4c-9,8.5-111.9,84.8-111.9,81.8c0,0,0,1974.4,0,1975c0-6.5,58.9-74.7,66.7-86.6
				c51.3-77.8,77.8-211.1,181.4-237.6c118.3-30.3,155.3,133,261.8,133.3c43.9,0.1,80.8-27.8,123.7-29c53.5-1.4,93.2,40.3,144.4,48.8
				c84.9,14,127.9-65.4,157.2-131c39.9-89.7,82.4-172.7,132.7-257.6c16.1-27.1,28-54.6,63-50.2c15,1.9,34.3,12.2,49.1,4.8
				c56.7-28.5,27.8-146,120-87.1c40.4,25.8,87.1,32.7,133.2,42.1c108.4,22.2,219.3,27.1,327,54.3c120.2,30.3,246.3-1.3,368.7,10.2
				c52,4.9,98.9,18.2,150.5,2.6c57.2-17.3,111.4-45.9,157.3-84.1c23.1-19.2,43.5-40.5,60.9-65c13-18.2,14.7-51.1,42.2-54.2
				c30-3.3,63.3,38.6,90.5,48.4c58.9,21.2,121.7-5.5,173.8-32.6c53.1-27.5,110.5-51.1,160.9-83.2c35.8-22.8,53.9-62.3,85.8-89
				c51.4-42.9,125.6-29.4,182.4-61c82.8-46.1,143.2-124,195.9-200.9c24.5-35.7,48.8-72,70.5-109.4c26.8-46.1,62-141.5,122.8-79l0,0
				c46,47.3,103.1,71,142.1,126.6c59.7,85.2,157,150,241.6,208.5c174.2,120.4,374.1,243.7,593.7,219.6c15.3-1.7,14.1-9.4,33.2-8.1
				c0,0,0,0,0.1,0c80,4.1,157.6,56.1,222.3,98.8c70.9,46.7,110.4,122.9,176.6,173.9c98.3,75.7,204.6,139.8,305.7,211.6
				c67.7,48.1,119.7,116.7,185.1,168c27.7,21.7,66.1,57.6,102.3,63.4c39,6.2,136.4-48.1,166.8-71.3c41.2-31.6,47.9-75.5,74.4-115.6
				c37.1-56.1,93.8-96.6,156.4-120.2c41.4-15.7,85.9-18.1,128.1-30.5c47.2-14,63.9-42.8,104.7-62.3c5.5-0.3,8.2-2.5,8.4-6.5
				c-3-0.3-3.8-1.7-2.6-4.1c84.9-64.1,142.5,55,179.8,112.8c54.6,84.5,134.4,139.9,229.9,170.8c171.8,55.8,300.9,170,433.7,287.1
				c9.2,8.1,18.9,16,29.5,22.3c4.4,2.6,8.3,5.2,11.1,9.7c2.8,4.6,4.8,9.6,7.7,14.1c3.3,5,7.2,9.5,10.7,14.3
				c6.3,8.6,16.7,11.1,25.8,15.6c1.1,0.6,10.2,4.2,10.2,5.1C7199.7,4568.3,7199.7,2829.5,7199.7,2829.5z M971.8,3810.2
				c-7.9,16.6-10.8,34.8-16.9,52.1c-8.2,23.3-18.4,44.8-33.9,64.1c-21.9,27.3-50.9,63.8-84.1,77.6c-22.2,9.2-60.4,11.8-84,7.5
				c-13.8-2.5-22-12.2-35.2-17.1c-21.3-7.9-28.6-16.7-40-35.7c-10.4-17.5-5.9-20.4,6.9-36.8c12.8-16.4,21.3-36.3,39.4-47.5
				c16.5-10.2,34.9-14.7,52.1-23.3c15.4-7.7,30-16.1,46.4-21.8c16.9-5.9,33.2-11.3,46.9-23c15.6-13.3,28.8-29.4,48.6-36.6
				c15.6-5.7,70.8-24,71.1,1.8C989.1,3784.4,977.1,3799.1,971.8,3810.2z M6052.2,4364.7c7.1,27.7,24.1,57.4,3.6,83.6
				c-29.4,37.3-94.9,44.3-138.4,37.7c-36.7-5.6-68.6-25.3-87.3-57.6c-13.8-23.8-24.1-57.2,1.5-76.6c12.4-9.4,26.6-15.5,38.2-26.2
				c8.6-8,15.6-17.7,24.4-25.6c8.8-7.9,17.9-15.4,26.3-23.9c15.7-15.9,29.9-20.5,51.9-11.5c14.6,6,23.8,16.5,34.8,27
				C6029.6,4313.4,6044.4,4334.5,6052.2,4364.7z M6301.9,4560.2c14.6,7,34.5,10.8,36.4,30c1.9,19.4-9.9,42.4-27.7,50.8
				c-17.2,8.1-36.7,2.2-54.5,0.4c-36-3.7-74.8-13-94.2-47c-7.8-13.6-16.5-36.9-3.9-50c11.5-12,30.1-14.8,45.9-15.5
				c20.9-0.8,40.6,0,60.3,7.8C6278.2,4542.3,6288.4,4553.7,6301.9,4560.2z"/>
		</defs>
		<clipPath id="SVGID_2_">
			<use xlink:href="#SVGID_1_"  overflow="visible"/>
		</clipPath>
		<g clip-path="url(#SVGID_2_)">
			
				<image overflow="visible" enable-background="new    " width="1440" height="1000" xlink:href="assets/img/aquarell2.png"  transform="matrix(7.5867 -0.4387 0.4387 7.5867 -3107.5156 -234.4414)">
			</image>
		</g>
	</g>
</g>
</svg>
