<?xml version="1.0" encoding="utf-8"?>
<!-- Generator: Adobe Illustrator 16.2.1, SVG Export Plug-In . SVG Version: 6.00 Build 0)  -->
<!DOCTYPE svg PUBLIC "-//W3C//DTD SVG 1.1//EN" "http://www.w3.org/Graphics/SVG/1.1/DTD/svg11.dtd">
<svg version="1.1" id="Ebene_1" xmlns="http://www.w3.org/2000/svg" xmlns:xlink="http://www.w3.org/1999/xlink" x="0px" y="0px"
	 width="7200px" height="5000px" viewBox="0 0 7200 5000" enable-background="new 0 0 7200 5000" xml:space="preserve">
<filter  id="hue_trenner_1">
	<feColorMatrix  type="hueRotate" values="-30"></feColorMatrix>
</filter>
<g filter="url(#hue_trenner_1)">
	<defs>
		<path id="SVGID_1_" d="M4530,1241.8c13.2-7.9,18.8-22.6,28.8-33.6c35.2-38.7,90.8-62.7,133.9-91.5c25.4-17,45.3-50.1,61-76.3
			c7.7-12.8,12.2-27,15.8-41.4c2.5-10-0.6-22.7,2.3-31.5c6.8-20.4,39.8-16.4,50-34.5c3.5-6.2,1.6-12.4,6.3-19
			c6-8.5,17.2-15.8,24.9-23.3c14.9-14.4,19.3-17.8,20.3-37.8c6.8-5.9,13.7-9.1,22.5-13.6c4.9-2.5,29.6-13.8,31.1-20.4
			c3.1-13.1-17.4-20.3-12.9-36.2c5.7-20.4,25.5-33.7,25.3-56.1c-0.5-62.3,46.3-102.7,84.6-146.6c33.5-38.4,41.6-89.4,90.3-114.9
			c67.1-35,144.4,19.4,200.5,53.3c62.2,37.6,124,77.2,198.5,82c49.5,3.2,99.3-4.1,147.1-16.9c63.1-16.8,105.4-36.7,169.5-5.8
			c39,18.8,88.4,65.8,104.8,3.3c7.6-28.8,8.1-39.2,40.4-48.9c34.6-10.5,20.3-7.3,27.7-39.4c4-17.3,18.6-37.7,24.9-53.4
			c5.9-14.9,8.1-21.5,21.8-31.8c20.4-15.4,58.2-22.4,55.5-55.3c-2.3-27.6-26.4-57.1,11-73.2c10.9-4.7,26.5-1.3,38.1-3.2
			c26.1-4.1,65.6-8.1,86.6,14.5c8.6,9.3,4.5,25.2,20.6,25.5c11.4,0.2,21.1-18.8,30.8-23.4c16.5-7.9,37.9-8,56.2-9.4
			c7.5-34.2,9.3-66,24.5-97.9c26,1.4,82.5,19.8,107.5,0.5c17.2-13.2,30.1-73.2,31-92.3c47.1-6.7,105.4-16,148.7-34.8
			c19.8,42.1,2.8,60.1,54.5,79.3c20.7,7.7,30.9,6.8,40.7,29.3c10.7,24.3,4.8,54.9,25.3,76c17.5,18,47.5,16.7,71.9,19.8
			c2.8,0.4,33,83.9,44,93.9c26.9,24.4,187.8,22.4,219.9,38.1c14.8,7.3,83.8,35.2,83.8,35.2v1785.2c0,0-62.6-7.6-78.7,3.7
			c-27.1,19.2-44.4,78.2-66.5,115.1c-24.2,40.4-64.6,63.9-99,93.9c-21.7,18.8-94,49.7-102.4,76.6c-2.8,9,9.1,18.5,10.8,27.2
			c5.1,27.1,19.9,75.5,8.8,101.9c-15.5,37.1-97.2,68-89.3,114.4c-1-6.1-30.6,19.4-32.5,22.3c-10.6,15.8-5.1,33.1-9.5,49.7
			c-12.3,46.3-44.4,41.5-81.3,63.5c-3.1,21.3-4.8,49.1-13.4,68.5c-11.2,25.5-34.1,43.2-42.7,68.2c-8.8,25.6-8.4,63.3-40,61.1
			c-26.9-1.9-54.1-46.1-77.5-58.5c-55.1-29.3-98.7-27.5-160.1-12.5c-26,6.4-58.1,20.4-82.1,33c-29.8,15.6-76.4,117.4-94.9,120
			c-28.2,3.9-89-1.4-111.1-17.9c-36.3-27-3.5-21.7-11.5-57.7c-1.2-5.6-45.9-95.8-50.1-100c-39.2-39.4-104.2-19.5-149.9-43.9
			c-61.6-32.8-56.2-129-115.9-160.1c-55.6-28.9-92.1,23.1-112.7,65c-16.5,33.8-47.9,55.6-67.1,86.7c-18.7,30.4-24.8,74.1-29.2,109.1
			c-5.6,44.6-3.1,76.1-24,119.7c-23.1,48.1-29,64-16.8,113.8c15.5,63.4,22.3,75.6-5.5,132.5c-33.7,68.9-59.7,144.8-59.5,221
			c0.1,27.7-25,41-33.8,64.3c-12.1,32.1,10.8,58.2,7.4,90.7c-2,18.6-3.2,32.4-12.2,49.8c-7.9,15.4-20.2,27.5-30.3,41.3
			c-10.9,14.8-11.8,32.2-20.6,46.3c-15.9,25.6-56.8,16.6-72.7,42c-4.4,7.1-1.4,14.5-3.5,21.7c-4.1,14.5-14.7,26.9-25.1,36.7
			c-23.9,22.6-33.5,44.4-35,78.3c-2.9,66.6-14.2,130.2-32,195.1c-11.6,42.5-14.5,87.6-19.4,131.8c-5.8,52.7-45.1,203.2-125.3,166.4
			c-38.4-17.6-56.1-158.7-60-198.9c-1.9-19.5,11.2-37.7,7-57.3c-4.2-19.4-35.2-12.2-27.1-47.6c0.7-3.3-82.1-39.1-91.5-41.4
			c-37.2-9-58.9-2.1-92.1,15.3c-60.2,31.5-91.1,92.9-146.4,131.5c-58.5,41-94.5,72.5-135.7,129.1c-67.2,92.1-156,100.9-265.6,103.8
			c-67.4,1.8-109.6,34.2-153.1,89c-29.7,37.5-83.9,121.4-137.3,123.2c-64.6,2.1-115.4-59.9-188.4-43.5
			c-53.6,12-91.9,68.3-124.4,109.9c-41,52.5-50.8,26-89.6-37.7c-14.5-23.8-48.6-66.9-56.9-89.4c-6-16.3,3-26.8-2.2-41.1
			c-2.2-5.9,1.7-15.8-1.9-24.1c-7.7-18-56.3-32.9-69.8-52.3c-12.1-17.4-22.4-25.1-19.2-47.7c-56.1,1-64.5-22.3-99.8-44.6
			c-31.2-19.8-71.7-22.5-101.9-42.1c-36.6-23.8-17.7-16.5-28.4-51.9c-11.6-38.5-34.7-89.7-80.7-37c-24.6,28.3-52.2,121.8-113.1,95.1
			c-51-22.4-60.1-89.9-103.1-121c-40.9-29.5-88.7-26.8-108-84.3c-9.5-28.4,10.4-58.2-10.2-82.6c-36.5-43.3-155.9-17.6-210.7-17.4
			c-46,0.2-81.6,1-118-30c-35.6-30.3-29.2-37-72.6-45c-53.1-9.7-115.8,14.5-161.5,36.8c-35,17.1-61.7,44.6-95.1,62.5
			c-53.4,28.6-109.2,58.1-169.7,67.1c-40.3,6-97.4,11.2-134.5-6.6c-22.5-10.8-33.6-32.3-52.1-49.4c-20,9.6-46.2,5.7-68,5.6
			c-29.4-0.1-59.4,1.9-88.8-0.2c-0.6-38.3-1.5-88.8-40-112.5c-14.4-8.8-31.8-6.5-49.3-5.7c-47.4,2.3-93.4,15.4-141.4,13.4
			c-2.7-7.3-16.7-32.5-24.6-33.9c-20.9-3.7-47.1,38.1-70.5,40.5c-9.5-11.1-15.9-31.3-29.8-37.2c-6.2-2.6-65.2,96.8-71.3,106.1
			c-16.4,24.9-14.4,62.7-34.3,77.8c-13.3,10.1-30,7.2-37.9,22.1c-6.7,12.6,4.1,30.2-2.3,43.3c-8.7,17.6-36.6,17-51.7,12.2
			c-44.6-13.9-20.8-74.1-75.1-80.6c-1.6-40.5,11-80.8,12.2-121.3c1-33.7-5.5-45.1-20.1-72.8c-8.3-15.8-9.9-52.8-28.9-60.5
			c-26.5-10.7-62.6,37.3-76.1,54.7c-31.2,40.5-67,83.6-103.6,31.1c-9.5-13.7-42.3-35.4-45.4-51.9c-2.8-15.2,18.1-31.3,19.2-48.6
			c1.8-28.2-18.4-36.4-36.4-54.1c-39.7-39-28.7-90.7-41.8-142.4c-10.9-42.9-9.7-83.2-52.9-107.6c-44.2-25-97.8-6.5-144.5-21.8
			c-63.1-20.6-113.3-67.5-177.9-85.3c-48.7-13.5-169,68.3-199,88.5v-899.1c0,0,26.9-39,43-39c46.4,0,66.5-64.3,113.6-50.8
			c47,13.4,114.5,33.8,161,13c39.2-17.5,70.9-57,110.6-67.2c38.2-9.8,91.9-1.3,132-1.2c42,0.1,84.5-0.6,126.1-6.7
			c73.2-10.6,119.7-48,194.7-63c23-4.6,47.4-4.3,70.7-6c19.1-1.4,37.7-0.3,52.5-14.2c11.8-11,14.8-28.7,27-39.4
			c6.8-6,15.4-7.8,24.2-10.1c7.3-1.8,16.9-5.2,24.3-5.1c5,0.1,12.1,1.9,17,3.3c11.8,3.4,18.8,7.4,31.7,7.4
			c24.9,0.1,46.3-20.2,71.5-20c18.2,0.1,30,11.9,48.1,11.6c12.7-0.2,31.7-1.5,42.6-8.8c9-6,14.6-15.3,23.9-20.9
			c13.2-7.9,27.1-14.7,41.3-20.6c11.9-4.9,23.5-3.2,35.7-4.8c10.8-1.5,17.5-6.4,28.2-10.1c13-4.5,26.1-2.6,40-3
			c30.7-0.8,67.3-0.1,95.7-11.7c25.8-10.5,38.1-16.4,66-13.3c17.8,2,33.7,7,51.7,6.7c25.5-0.4,40.2-10.9,57.1-29.9
			c11.8-13.3,19.8-29.4,29.9-44c5.2-7.5,12.9-13.6,17.9-21c4-5.9,3.2-14.6,8.3-20.2c8.9,2.5,9.9,13.9,18.3,17.7
			c9.3,4.3,21-2.7,29.9-5.7c16.2-5.5,35.9-7.1,51.2,1.4c18.1,10.1,37.4,19.8,59,20.5c25.8,0.8,58.9,0.7,83.1,10.4
			c5.7,2.3,10.6,6.3,16.4,8.5c7.7,3,12.8,3,21.6,5c8.1,1.9,15.2,5.8,23.3,7.2c3.6,0.6,6.1,1.4,10.7,1.3c7.5-0.1,13-5,19.2-5.1
			c2.8,0,2.8,3.7,6.4,3.9c7.4,0.4,13.1-2.7,20-3.6c10.2-1.3,21-0.1,31.2-0.2c26.7-0.2,41.6-20.7,63.3-32.6c11.2-6.1,26-3.4,37.6-7.3
			c15.7-5.3,12-7.2,32.3-1.6c17.4,4.8,28.8,14.9,44.3,23c13.5,7.1,21.6,24.3,37,24.8c23.2,0.8,38.4-19.6,59.3-24.8
			c15.8-3.9,33.3-9.3,49.4-11c8.2-0.9,16,0.6,24-1.8c6.9-2,13-5.2,19.9-6.7c6.6-1.5,13.7-1.6,20.4-2.5c9.2-1.3,18.3-6.8,27.1-10.5
			c18-7.6,37.3-8.8,56.4-12.1c27.4-4.7,54.8-12,82.8-11.5c13.1,0.2,25.4,4.1,38.5,4.2c15.9,0.1,34.2,3.5,44.2,17.4
			c3,4.2,5.3,14.5,9,17.7c7.9,6.9,8.8-3.2,12.8-10.2c8.3-14.5,23.3-18.2,31.5-31.2c2.6-4.1,3.7-9.7,6.3-13.7
			c9.1-13.9,18-27.8,26.9-42c7.2-11.5,18.3-18.5,26.8-28.8c7.7-9.4,11.8-21.3,19.7-30.6c3.6-4.2,7.9-7.4,11-12.1
			c4-6,5.5-13.4,9.8-19.3c5.4-7.4,12.8-13.4,18.6-20.7c10-12.8,20.4-24.4,32.4-35.1c30.1-26.8,66.7-42.1,98.7-65.4
			c17.4-12.7,40.7-17.8,60.8-24.8c35.3-12.2,74.5-17.1,111.8-16.9c21.8,0.1,51,6.9,70.5-6c13.6-9,15.1-27.8,23.8-41
			c7.7-11.6,19-21,24.3-34.2c10.7-26.9,0.9-58.2,3.4-86c1.8-20.2,13.7-38.1,20.6-57c4.9-13.5,11.8-28.1,20.5-39.7
			c22.9-30.5,63-46.2,92.1-70.7c22.9-19.3,45.3-44.4,71.3-59c32.4-18.2,61.4-39.1,91.7-60.6c12.4-8.8,24.7-20.4,38.4-27.1
			c8.2-4,13.8-4.8,20.5-11.8c12.5-13.4,18.5-31.3,28.8-46.2c11.8-17,23.9-37.2,29.9-56.9c6.2-20.5,27.1-26.4,35.4-42.8
			c7.4-14.7-3.1-35,4.8-50c8.4-15.9,23.3-27.2,34.6-40.9c10.3-12.4,19.6-25.4,29.6-38.1c24.4-31.1,41.9-64.6,69-93.3
			c23.6-25,46-51.2,70.5-75.3c19-18.7,48.7-36,59.3-61.1c7.8-18.5,5.4-24,27.2-26.7c29.1-3.5,34.6,11.8,53.8,29
			c15.8,14.2,33.4,27.3,33.6,50.7c0.1,7.9-4.6,38.1-1.4,44.6c9.1,18.8,32.1,16.9,48.6,17.8c21,1.1,40.7,6,58.4,17.8
			c16.4,10.8,28.4,27.4,45.4,37.6c6.2,3.7,13.7,5.9,19.7,9.6c10.4,6.5,14,13.3,18.2,24.1c6.7,16.9,0.6,26.5,21.9,32.4
			C4476.7,1258.1,4509,1254.4,4530,1241.8z M5670.6,2987.7c-14.1-4.3-17.9,4.4-27.1,12.5c-8.5,7.4-9,5.8-11.2,18.7
			c-1.6,9.1-4.3,17.8-4.1,27.1c0.2,7.9-1.6,9.6,3.7,15c7.2,7.5,32.9,10.8,42.5,14.5c20.1,7.6,35.1,20.8,49.5,0.8
			c8.4-11.7,8.7-22,7.5-36.2C5728.8,3011.1,5696.5,2995.6,5670.6,2987.7z M6666.6,3143.6c-9.7-6.3-19.1-12.7-33.3-11.6
			c-13.9,1.1-28.3,4.4-42.1,7.1c-3.7,18.4,4.3,27.5,17.6,38.5c19.9,16.5,35.3,21.9,61.6,17.8c11-1.7,20.3-8.4,30.7-11.9
			c8.4-2.9,20.3-7.2,16.5-21.1c-3.6-13.2-22.7-6.8-31.4-9.1C6678.7,3151.3,6672.6,3147.5,6666.6,3143.6z M898.7,4461
			c-9.5-10.6-36.2-28.9-51.3-23.3c-20.5,7.7-16.8,39.5-12.5,55.7c5.3,20-9.9,53.6,6.4,67.4c12,10.2,33.8,18.3,48.4,24.2
			c19.4,7.8,66.8,13.4,77.3-11c7.7-18,1.7-53.6-11.9-67c-11.4-11.2-22.1-21-36.5-27.5C907.6,4474.7,906.8,4470.1,898.7,4461z"/>
	</defs>
	<clipPath id="SVGID_2_">
		<use xlink:href="#SVGID_1_"  overflow="visible"/>
	</clipPath>
	<g clip-path="url(#SVGID_2_)">
		
			<image overflow="visible" width="1440" height="1000" xlink:href="aquarell2.png"  transform="matrix(7.3858 0 0 7.3858 -3408.5664 -910)">
		</image>
	</g>
</g>
<image overflow="visible" width="800" height="600" xlink:href="aquarell_addon.png"  transform="matrix(6.341 1.607 -1.607 6.341 2013.5918 865.625)">
</image>
</svg>
