<?xml version="1.0" encoding="utf-8"?>
<!-- Generator: Adobe Illustrator 16.2.1, SVG Export Plug-In . SVG Version: 6.00 Build 0)  -->
<!DOCTYPE svg PUBLIC "-//W3C//DTD SVG 1.1//EN" "http://www.w3.org/Graphics/SVG/1.1/DTD/svg11.dtd">
<svg version="1.1" id="Ebene_1" xmlns="http://www.w3.org/2000/svg" xmlns:xlink="http://www.w3.org/1999/xlink" x="0px" y="0px"
	 width="7200px" height="5000px" viewBox="0 0 7200 5000" enable-background="new 0 0 7200 5000" xml:space="preserve">
<filter  id="hue_trenner_3_addon">
	<feColorMatrix  type="hueRotate" values="15"></feColorMatrix>
</filter>
<filter  id="hue_trenner_3">
	<feColorMatrix  type="hueRotate" values="25"></feColorMatrix>
	<feColorMatrix  type="saturate" values="0.9"></feColorMatrix>
	<feComponentTransfer>
		<feFuncR  type="linear" slope="0.9"></feFuncR>
		<feFuncG  type="linear" slope="0.9"></feFuncG>
		<feFuncB  type="linear" slope="0.9"></feFuncB>
	</feComponentTransfer>
</filter>
<g filter="url(#hue_trenner_3)">
	<defs>
		<path id="SVGID_1_" d="M6638.3,4139.9c-20.5-4.7-61.8-3.5-65.8,23.9c-3.6,24.5,27.7,34.8,44,45c21.6,13.6,44.7,24.7,67.6,36
			c14.1,7,24.5,20.3,42,16c24.5-6,27.3-44.1,22.1-64.3c-7.2-28-42.9-25.3-65.3-33.1C6666.3,4157.8,6655.6,4143.9,6638.3,4139.9z
			 M926.9,1147.1c1.7,0.2,3.3,0.4,5,0.6c44.1,5.3,89.4-0.5,133.2,6.3c65.8,10.3,131.5,25.3,198.5,24.2c35.3-0.6,70.4-5.3,105.3-10.1
			c16.6-2.2,122.9-2.7,67.2-32.5c-63.8-34.1-126.5-52.8-181.5-102.4c-34.1-30.8-48.5-54-98.3-56.5c-49.3-2.5-96.3-24.5-146-22.1
			c-10.8,0.5-49.7,2.4-50.4,17.8c-0.9,19.1,56.4,27.6,66.9,40.2c-6.7,3.8-17.7,1.8-25,1.7c-18.2-0.2-37,0.5-55.1-2.4
			c-58.5-9.2-117.9-15.7-175-32.2c-58-16.8-113.7-41.7-173.6-51.8c-38-6.4-76.2-18.3-115.1-16.9c-64.1,2.3-33.9,44.1,2.2,67.6
			c21.5,14,45,21.4,67.6,32.8c80.2,40.2,161.1,80,246.9,107.1C841.2,1131.6,883.7,1141.6,926.9,1147.1z M5348.7,3865.4
			c-6.9-14.8-22.9-38.7-42.5-27.1c-14.4,8.6-18.8,35.8-10.6,49.9c8.5,14.5,36.4,20.6,51.1,13.3
			C5363.4,3893.1,5354.1,3877,5348.7,3865.4z M1409,692.3c-50.3-24.8-87.3-67.8-131.8-102.7c-48.4-37.9-108.6-67.4-170.4-75.1
			c-37.9-4.7-82.9-2.4-117.7-20.4c-25.6-13.2-36.3-37.3-58.5-54c-62.9-47.3-173.2-55-248.7-69.9c-135.7-26.8-260.2-99-393.5-137.6
			C192.1,204.7,97,162.5,0,129v362.7c26.7,12.8,52,27.6,80.7,34.9c31.2,7.9,63.7,6.3,95.6,6c87.3-0.8,172.5,16.5,259.1,23.4
			c33.6,2.7,53,15.3,81.7,28.9c71.7,33.8,143.6,45.1,220.4,55.4c95.9,12.9,186.4,37.2,284.2,42.9c113.8,6.6,191.4,20.2,289.1,84
			c52.8,34.5,147.4,129.2,219.3,118c61-9.5,31-90.9,8.7-139.7C1498.7,727.8,1451.3,713.1,1409,692.3z M7200,4706.8
			c-4.4-3.6-8.8-7.4-13.2-11.4c-60.4-55.2-116.1-54.9-186.5-88.2c-69.3-32.8-93.8-99.6-136.3-157.2
			c-55.8-75.8-153.2-127.7-238.5-162c-101.6-40.9-131.1-73.3-190-161.5c-56.2-84.1-157.7-118.6-164.9-231
			c-8.3-130.3,47.3-253.4,16.9-384.8c-17.2-74.3-53.3-142.5-81-213.1c-15.5-39.5-24.1-84.7-52-117.6
			c-61-71.9-162.6-121.5-233.7-183.9c-98.6-86.4-206-178.3-275.8-290.6c-29.8-48-54.7-96.3-97.8-133.9
			c-24.5-21.4-73.1-62-63.1-100.4c5.9-22.7,34.2-23.4,53.4-24.3c90.7-4.4,174.5,5.3,257.1,42.8c88.1,40.1,174.5,81.8,263.7,118.6
			c43.6,18,86.4,33.9,130.4,49.9c47.4,17.3,96.6,59.4,129.9,96.5c22.8,25.5,35.3,57.8,55.9,84.8c19.3,25.3,26.5,34.4,26.2,66
			c-0.2,22.2,15.7,54.5,22.8,75.6c8.7,25.8,19.8,50.8,37.6,71.7c42.6,50.1,121.4,83.6,186.7,82.7c60.4-0.8,115.8-36.4,176.8-28
			c34.3,4.7,59.5,25.3,91.2,36.5c20,7.1,40.1,5.4,60.9,7.1c36.7,3,78.7,12,113.8,22.7c36.7,11.2,78.1,80.3,109.3,111.5v-231.9
			c0-7.3-31.4-29-36.9-33.6c-11.6-9.7-23.5-19.1-35.3-28.5c-24.1-19.4-51-31.2-80-41.7c-66-23.9-130.4-40-199.2-54.4
			c-59.8-12.5-116.7-35.5-177.8-41.6c-33.1-3.3-60.2-12.9-89.3-28.7c-45.8-24.9-73.4-67.6-95.8-113.2
			c-18.6-37.9-44.5-73.4-60.3-112.7c-11.2-27.8-19.9-56.9-34.4-83.6c-6-11-15-19.3-20.5-31c-6.3-13.3-7.3-21.3-17.9-31.7
			c-48.2-46.6-99-90.2-150.4-133.1c-42-35-87.9-66.6-141.2-81.7c-34.4-9.7-68.6-5.6-103.5-8.7c-48.6-4.3-87.6-30.2-129-53.7
			c-50.8-28.8-103.3-54.6-155.4-81.1c-73-37.1-146.6-72.7-220.7-107.5c-41-19.2-82.1-38.2-123.3-56.9
			c-89.1-40.5-184.7-97.7-278.8-124.1c-93.3-26.1-212.6,0.2-310.1-5.9c-81.7-5.1-166.3-17.3-242.7-47.9
			c-58.3-23.4-113.9-54.2-175.5-68.9c-37.3-8.9-128.6-23.2-147.7,25.5c-9.7,24.7,10.3,60.7,25.9,79.2c27.8,32.9,73.1,52.3,109.3,74
			c78,47,168.7,86.7,238.1,145.7c48.9,41.6,61.7,113-14.9,128.9c-75.7,15.7-179.7-8.2-240.3-55.7c-57.8-45.4-111.3-89.3-175.2-126.9
			c-76.9-45.1-161.3-62.1-249.6-64.3c-37.5-1-57.1,23.4-90.2,39c-35.2,16.5-72.4,19.9-110.2,11.2c-82.6-19-140.7-81.4-206.9-129.1
			c-68.5-49.4-144.8-73-228.2-83.6c-76.5-9.7-176.6-19.1-244.8,25.4c-45.5,29.7-67.5,84-118.9,106.6
			c-175.5,77.1-407.8-148.1-524.4-252c-104.5-93.1-192.7-162.3-331-198c-113-29.1-228.6-47.2-343.8-64.6
			c-40.6-6.2-200.7-69.1-213.6,4.9c-12.8,73.6-33.2,94.1-107,105.3c-179.6,27.3-354.1,26.1-535.2,18.5
			c-61.2-2.6-137.3,8.8-196.1-11.2c-64-21.8-128.6-81-191.6-110.4c-46.7-21.8-86.4-40.1-127.2-67.8
			C209,1223.4,109.5,1124.5,0,1082.3v2214.9c49.2,21.5,74.4,69.2,112.9,112.6c24.2,27.1,62.5,36,97.3,38.2c16.8,1.1,32.4-2.7,49.1-3
			c17.5-0.3,34.5-1.2,45.6-16.9c9.1-12.9,5.7-28.5,11.1-42.3c3.9-9.8,12.3-15.7,18.5-23.8c17.8-23.3,30.9-49,50.8-71.1
			c12.9-14.3,26.9-27.2,42-39.1c17.1-13.4,18.9-8.9,38-8.5c32,0.7,62.3-26.4,88-42.7c23.9-15.3,44.6-32.9,66.3-51
			c45.4-37.8,103.4-26.1,157.9-38.1c169.5-37.5,305.3-179.4,481.8-200.2c108.8-12.9,222.3-25.2,331.9-21.7
			c42.4,1.4,104.7,6.3,141.8,29.3c27.7,17.2,30.5,53.9,45.9,80.3c28.6,48.9,57.2,101.5,104,134.4c19.5,13.7,37.1,28.6,55.1,43.4
			c8.1,6.7,9.3,13.3,21.5,16.5c25.6,6.6,57.5-15.6,66.6-38.2c8.7-21.7-4.4-53.7,4.5-72.4c9.9-20.9,44.5-16.3,63.6-16.1
			c153,1.7,273.8,150.9,380.6,246.5C2632,3454,2782,3517,2991.9,3519.4c94.3,1.1,189.6-19,274.6,35.5
			c63.3,40.6,108,89.8,180.5,117.1c83.1,31.3,175.4,66.8,264.4,74.4c65.2,5.5,163.2-3.7,205.2-62.1c22.6-31.5,28.7-76.7,59.4-103
			c18.2-15.6,60.1-10.1,68.9-35.7c8.1-23.6-29.8-62.5-34.4-85.1c-6.9-33.5,18.3-66.9,9.6-98.7c-13.8-50.5-94.7-53.3-135.6-55.5
			c-29-1.6-57.9-0.7-86.9-1.5c-98-2.8-232.3,14-319.1-43.9c-54.9-36.6-26.5-70.2,24.8-88.8c54.9-19.9,102.2-14.3,158.2-6.8
			c99.7,13.4,198.9,1.9,298.8,5.4c84.1,2.9,144.6,39.6,205.4,95.4c37,33.9,66.7,72.7,118.8,80.1c67.4,9.5,110.7-19.5,172.2-35.1
			c63.6-16.1,130.8-20,194.9-4.2c153.3,37.8,194,188.1,293.5,292.3c47.4,49.6,111.8,114.6,182.9,126.9
			c50.6,8.8,89.4-19.9,137.8-24.8c142.3-14.6,232.8,191.3,321.5,274.9c46.8,44.2,101.9,78.1,145.5,125.8
			c56.7,62,97.3,136.7,144.1,206c40.3,59.7,80,118.4,154.7,132.7c53.5,10.3,109.5-0.3,163.4,9.1c66.9,11.6,151.5,36.6,212.4,65.3
			c56.6,26.6,133.7,77.5,181.4,118.5c22.5,19.4,30.3,47.3,51.8,66.7c42.2,38.3,118.4,45.9,171.2,58.4c66.2,15.7,132.7,29.4,194.7,58
			c34.4,15.8,69.6,42.9,104.9,58.4c28.7,12.6,62,33,88.5,66.5L7200,4706.8L7200,4706.8z M4494.3,3657.2
			c28.4,26.5,57.2,53.2,82.4,82.8c9.9,11.6,31.6,33.2,29.5,50.5c-2.4,20.6-39.4,12.6-51.8,10.1c-26.7-5.3-51-11.2-78.5-11.1
			c-18.2,0.1-39.5-3.2-57.3,0.6c-43.9,9.6-76.4,7.9-97.4-35.7c-11.3-23.5-21.2-42.6-39.5-61.9c-18.3-19.3-37.6-12.2-61.8-14
			c-23.8-1.7-84.4,5.8-87.2-27.8c-1.7-20.7,10.9-45.4,18.1-64.4c7.9-21,19.5-39.5,23.5-62.2c4.2-23.9-1.4-45.3-6.2-68.6
			c-3.5-16.9-3.4-37.6,17.5-41.4c16.9-3.1,33,7.9,46.8,16.1c19.6,11.6,39.8,22.5,58,36.2c20.8,15.6,39.9,34.4,58.4,52.7
			C4396.4,3566.4,4445.4,3611.7,4494.3,3657.2z M448.7,3441.9c-10.6,4.3-32.6,1.3-37.3-10.7c-5-12.8,7.9-16.4,17.9-17.3
			c5.2-0.5,31.5-2.9,32.6,4C463.7,3427.8,458,3438.1,448.7,3441.9z M6577.2,4943.5c11.4,2.1,30.7,8.8,27.3,23.8
			c-2.5,11.1-17.3,18.9-28,16.6c-10.4-2.2-22.1-12.6-29.5-19.6c-8.3-8-11.9-18.4,1.9-22C6557.9,4940,6568.2,4941.9,6577.2,4943.5z
			 M6504.8,2585.2c-6.9-4-9.7-12.5-15.5-17.4c-14.5-12.2-26.6-25.1-36.6-41.2c-6.3-10.1-16.2-24-13-36.7
			c3.8-14.6,22.9-11.3,33.7-7.9c10.8,3.4,18.1,8.6,23.9,18.2c7.3,12.2,15.7,24,22.7,36.4c7.9,14,14.2,37.2,7.3,53
			C6520.8,2590.1,6510.4,2588.4,6504.8,2585.2z M6361,3907.3c-8.7,2.7-17.4-0.5-24.1-5.9c-6.6-5.3-19-16-15.1-25.8
			c3.5-8.9,21.9-23.9,32-21.5c12.9,3.1,16.8,23,17.1,33.9C6371,3896.2,6370,3904.5,6361,3907.3z"/>
	</defs>
	<clipPath id="SVGID_2_">
		<use xlink:href="#SVGID_1_"  overflow="visible"/>
	</clipPath>
	<g transform="matrix(1 0 0 1 -1.525879e-05 0)" clip-path="url(#SVGID_2_)">
		
			<image overflow="visible" width="1440" height="1000" xlink:href="assets/img/aquarell2.png"  transform="matrix(6.2974 0 0 6.2974 -222.0508 -63.5)">
		</image>
	</g>
</g>
<image overflow="visible" filter="url(#hue_trenner_3_addon)" width="800" height="600" xlink:href="assets/img/aquarell_addon.png"  transform="matrix(6.3532 0 0 6.3532 277.5 1172.4961)">
</image>
<image overflow="visible" width="800" height="600" xlink:href="assets/img/aquarell_addon.png"  transform="matrix(1 0 0 1 2576.5 3524.5)">
</image>
</svg>
