<?xml version="1.0" encoding="utf-8"?>
<!-- Generator: Adobe Illustrator 16.2.1, SVG Export Plug-In . SVG Version: 6.00 Build 0)  -->
<!DOCTYPE svg PUBLIC "-//W3C//DTD SVG 1.1//EN" "http://www.w3.org/Graphics/SVG/1.1/DTD/svg11.dtd">
<svg version="1.1" id="Ebene_1" xmlns="http://www.w3.org/2000/svg" xmlns:xlink="http://www.w3.org/1999/xlink" x="0px" y="0px"
	 width="7200px" height="5000px" viewBox="0 0 7200 5000" enable-background="new 0 0 7200 5000" xml:space="preserve">
<filter  id="hue_trenner_2_addon">
	<feColorMatrix  type="hueRotate" values="-55"></feColorMatrix>
</filter>
<filter  id="hue_trenner_2">
	<feColorMatrix  type="hueRotate" values="-65"></feColorMatrix>
	<feColorMatrix  type="saturate" values="1.2"></feColorMatrix>
	<feComponentTransfer>
		<feFuncR  type="linear" slope="0.9"></feFuncR>
		<feFuncG  type="linear" slope="0.9"></feFuncG>
		<feFuncB  type="linear" slope="0.9"></feFuncB>
	</feComponentTransfer>
</filter>
<g filter="url(#hue_trenner_2)">
	<defs>
		<path id="SVGID_1_" d="M7200,794.5v1332.2c0,0-123.8,40-155.8,19.8c-109.3-69.1-182.3,24.2-257.4,132.5
			c-62.6,90.3-67.2,55-172.9,39.1c-149.6-22.5-284-67.1-416.4-165.8c-66.3-49.4-121.6-136.8-193.7-173.3
			c-79-40-173.4-40.6-239.9,21.3c-24.3,22.6-36.8,60.3-64.6,78.7c-29,19.2-53.4-3.3-83.4,8.7c-53.3,21.5-59.5,72.7-121,36.7
			c-40.1-23.6-74.9-64.9-98.1-104.8c-24.6-42.3-54.4-77.5-83.7-118.5c-18.2-25.5-18.9-55.5-38.3-78.9
			c-25.2-30.3-61.2-49.2-84.2-82.7c-16.1-23.5-16.1-37-17.9-65.3c-30.5-1-70.7,10.4-94.8-10.1c-16.8-14.3-12.3-42.4-29-56.1
			c-19.3-15.9-63.7-7.3-86.7-7.5c-62.7-0.5-92.6-17.6-135.3-62.1c-39.9-41.5-72.3-90-115.4-128.4c-28.7-25.5-60.5-40.6-95-57.3
			c-20.8-10.1-87.4-29.2-103.7-6.1c-20.2,28.6,50.7,108,63.4,126.1c12.5,17.9,80.8,96.9,36.5,111.2c33.7,44.5,69.5,90.5,109.2,130.1
			c17.8,17.8,44.8,41.9,31.1,69.8c-15.6,31.8-66.7,17.8-95,10.5c2.9,17.3,13.4,24,23.4,37.2c41.7,54.8,87.2,106.8,121.2,167
			c37.7,66.7,64.5,138.7,98.3,207.2c66.3,134.1,166.7,242.6,202.6,390.2c12.1,49.6,7,101.2,17.1,152.1c10.6,53.1,15.9,99.1,15.9,154
			c0,17.1-12.1,38.4-10.5,53c-21.9,3.5-40.8-6.4-62.3-2.3c-5.1,16-9.4,38.6-23.3,45.7c-9.3-21.8-18.1-45.2-24.9-69
			c-18.7-65.9-9.3-136.6-26.2-202.9c-19.3-75.7-60.5-143.5-83.8-217.8c-17.4-55.4-42.7-106.1-60.2-160.4
			c-13.1-40.7-23.3-71.1-42.9-107.4c-6.8-12.6-13.5-29.5-19.8-42.7c-50.8-106.5-143.6-181-219.2-273c-21-25.6-34.5-53.7-57.5-77.5
			c-21.6-22.3-42.6-45.4-69-62.1c-31-19.6-69.3-36.6-93.5-63.5c-13.1-14.7-26-25.1-40.8-37c-21.2-17.1-47.7-45.7-77-44.8
			c-15.4,0.4-20.8,9.7-36.6-1.6c-17-12.1-26.1-36.5-51.4-34.9c4.3,19.1,38.5,56,9.8,66c-22.6,7.8-59.6-10.2-76.3-24.2
			c-19.4-16.2-32.3-46.1-53.8-59.7c-19.2-12.2-212.1-76.5-214.2-37.6c-0.3,6.6,14.6,23.1,17.7,29.1c2.9,5.6,1.8,9.4,6.3,14.6
			c8,9.3,8.3,6.8,19.6,11.1c13.7,5.2,24.9,10.1,37.3,17.7c31.7,19.5,71.3,31.5,87.7,67.4c24.1,52.5,53,103.2,60.1,162.3
			c8.1,67.4,8.1,100.5,43.5,161.5c17.9,31,84.5,85.1,73.3,125.6c-11.6,41.5-171.7-25.8-197.9-31.1c-75-15.3-162.2,9.7-220.4,100.9
			c-23.4,36.7-28.7,89-54.5,122.7c-62.7,81.9-146-26.8-194.6,47.2c-31.6,48.2,14.3,141.9-51,173.6
			c-154.9-88.2-199.2,142.2-298.5,226.1c-57,48.2-133.5,40.3-197.1,61.6c-56.9,19.1-110.7,70.8-170.9,63.2
			c-65.8-8.3-46.7-37.6-95.8-74.1c-133.3-98.9-136.8,190.8-148.1,305.7c-7.3,75.2-271.8,156.8-336.8,242.7
			c-33.8,44.6,68.7,91.4,63.7,146.4c-8.8,96.3-133.1,58.3-159.6,96.7c-19.3,28,38.7,102.9,9.2,135.9c-62.5,70-215.2,20.1-294.4,38.4
			c-39.4,9.2-54.8,28.4-99.9,26.4c-66.1-2.8-129.9-34.6-188.9-64c-23.9-11.9-86.4-65.6-114.9-36.5c-20.4,20.7,2.2,117.1,6.1,143.1
			c5.4,36.7,20.7,59.5-5.7,87.9c-48.7,52.2-97.2,22.7-153.9,36.3c-47.9,11.5-70.3,79.4-103.3,111.5c-34.6,33.6-79.8,54-126.6,64.5
			c-40.9,9.1-101.6,6.5-113.7,52.5c-5.6,21.1,2.7,50.4,3.4,71.9c1,32,10.5,90.8-6.3,116.6c-22.1,33.8-84.1,27.4-115.1,41.5
			c-49.6,22.6-46.4,55.6-48.8,101.1c-2.2,41.3-75.4,165.9-129.2,111.4c-11-11.2-5.1-28.6-10.4-41.9c-4.9-12.5-14.7-21.1-25.1-29.3
			c-3.8-3-31-21.4-31-21.7c-1.2-37.9-18.5-83.6-67.5-65.3c-41.6,15.5-32.4,78.5-39.8,113.9c-11.9,57-3.1,97-51.2,138.1
			c-33.9,29-61.2,52.1-106.2,56.4c-40,3.8-103.3-2.1-140.6,14.2C92.2,4840.1,0,4807.8,0,4807.8V583.6c0,0,205.6-61.6,310.7-17.5
			c25,10.5,56.1,22.4,83,12.4c22.8-8.4,36.2-29.6,45.1-51.1c5.2-12.7,8.3-25.1,11.2-38.5c2.2-10.4,4.5-24.4,13.4-31.5
			c15.8-12.6,49.3-4.1,68.4-5.5c32.9-2.4,65.7-7.4,97.6-16c49.7-13.5,120.6-68.5,170.9-44.5c44,21,71.5,120.3,99.2,166.8
			c44.6,74.8,88,128.7,149.1,174.1c72.8,54.1,131.9,77.4,215.3,96.4c112,25.6,220.7,70.2,331.3,103.8c-29-8.8,92.3,33.7,104.3,23.8
			c26.6-22,42.4-122.2,54.8-165.2c14.5-50.1,13-115.5,30.3-161.3c28.2-74.5,49.6-54.6,119.5-85.7C1984.4,649,1941.2,686.4,2064,686
			c178.6-0.6,368,95.2,529.4,195.7c32.2,20,67.7,15.7,96.3,37.4c25.7,19.5,29.2,57.8,60.9,53.7c28.6-27.1,20.8-66.5,25.9-113.8
			c6.9-64-3.2-105.5-29.4-162.4c-36.3-79.1-77.4-154.2-128-218.5c-47.1-59.9-99.6-150.4-158.4-189.7c-57-38.2-158.9-27-139.7-143.6
			c11.8-71.6,43.6-81.6,90.7-75.1c46.3,6.4,92.8-1,138.4,8c42.7,8.5,83.8,20.9,124.8,37.1c72.5,28.7,147.7,23.2,223.8,29
			c73.1,5.6,132.3,28.5,202.4,51.1c61.5,19.9,133.5,6.8,193.1,37.3c85.6,43.8,176.7,168.4,268.3,181.5c46.7,6.7,83.6-14.4,132,8
			c42.7,19.8,81.2,52.7,120.4,81.8c87.4,65,197.6,109.8,300.6,88c70.5-15,45.5-31.8,71.7-116.6c8.6-27.9,20.7-72.6,40.7-86.5
			c17.2-11.9,50.9,10,66.1,13.5c68.6,16,158.1,27,224,55.3c85.5,36.8,108.5,145,180.3,186c103.6,59.2,228.3,24,314,127.8
			c38.1,46.1,58.3,119.6,97.6,165c32.4,37.4,15.6,37.9,69.2,54.4c74.2,22.7,83.7-23.4,137.3-36.6c134.9-33.3,185.9,189.4,390.6-28.6
			c42.3-45.1,201.3-74.7,227.7-17.9c8.7,18.8-14,45.5-4.4,63.2c18.5,34,135.2,39,171.1,22.2c9.1-4.3,35.7-38,34.7-37.7
			c165.5-44.1,328,151.1,503.7,75.7c66.8-28.7,133.9-57.7,183.8-101.5C6925.6,839.6,7200,794.5,7200,794.5z M2272.2,94.5
			c-0.1-0.5-0.2-1.1-0.4-1.6c-3.8-14-17.4-21-30.7-23.3c-30.7-5.2-80.6,3.8-93.2,37.1c-4.8,12.7,10.8,12.3,19.5,16.1
			c5.8,2.5,10.6,7,16,10.2c9.5,5.6,20.8,5.7,31.5,5.5c13-0.2,26.1,1.4,37.9-5.3C2264.8,126.6,2274.8,108.2,2272.2,94.5z
			 M6065.9,899.1c-9.1-0.2-18.8,3.9-27.6,1.1c-9-2.8-16.8-5.2-26.5-2.2c-7.9,2.4-14.6,10.4-21.7,14.5c-5.9,3.4-14.7,4.8-18.5,10.9
			c-4,6.4-2.6,17.6,0.7,24c6.3,12.2,24.1,10,35.6,9.2c20.2-1.3,40.3,2.8,60.3-2.8c13.9-3.9,34.3-10.1,32.3-26.9
			c-0.8-6.6-0.4-15.3-5.3-20.2C6088.6,900,6074.8,899.2,6065.9,899.1z M2392.3,3399.9c-7.8-11.7-24.5-12.2-37-11.7
			c-17.7,0.6-55.9,10.7-48.5,35.4c1.3,4.2,10.5,13.9,14.2,16.7c7.1,5.4,18.5,6.6,26.8,9c10.2,2.9,16.8,4.2,26.9,2.9
			c4.2-0.5,15.8,0.5,19.1-2.3c4.1-3.5,4.9-13.4,5.1-18.4C2399.3,3421.1,2398.3,3409,2392.3,3399.9z M2075.4,3928.7
			c2.9,9.4,14.6,14.9,23.1,17.1c20,5,47.4,6.3,46-21.6c-1.8-35-38.2-19.2-59.1-12.9C2078.5,3913.3,2072.7,3920.1,2075.4,3928.7z
			 M6881.9,2370.5c4.6-8.7,0.3-20.9-4.3-28.4c-10.6-17.7-29.1-38-47.9-17.3c-23.5,26,13.5,40.6,32.6,50.9
			C6868.8,2379.2,6877.7,2378.4,6881.9,2370.5z M404.3,471.2c-1.8-14.1-10-36.5-29.8-28.4c-8.8,3.6-8.4,15-8.7,23
			c-0.6,12.2-1.3,24.4-4.5,36.3c-2.4,9.2,0.2,28.3,9.2,34.4c8.8,6.1,22-1.3,28.4-9.3C410.3,512.7,406.4,488.5,404.3,471.2z"/>
	</defs>
	<clipPath id="SVGID_2_">
		<use xlink:href="#SVGID_1_"  overflow="visible"/>
	</clipPath>
	<g clip-path="url(#SVGID_2_)">
		
			<image overflow="visible" width="1440" height="1000" xlink:href="assets/img/aquarell2.png"  transform="matrix(8.0126 0 0 8.0126 -1503.3359 -2467.4922)">
		</image>
	</g>
</g>
<image overflow="visible" filter="url(#hue_trenner_2_addon)" width="800" height="600" xlink:href="assets/img/aquarell_addon.png"  transform="matrix(-6.9865 0 0 -6.9865 5621.1836 4419.9258)">
</image>
</svg>
