<?xml version="1.0" encoding="utf-8"?>
<!-- Generator: Adobe Illustrator 16.2.1, SVG Export Plug-In . SVG Version: 6.00 Build 0)  -->
<!DOCTYPE svg PUBLIC "-//W3C//DTD SVG 1.1//EN" "http://www.w3.org/Graphics/SVG/1.1/DTD/svg11.dtd">
<svg version="1.1" id="Ebene_1" xmlns="http://www.w3.org/2000/svg" xmlns:xlink="http://www.w3.org/1999/xlink" x="0px" y="0px"
	 width="7200px" height="5000px" viewBox="0 0 7200 5000" enable-background="new 0 0 7200 5000" xml:space="preserve">
<path d="M1710,3928.4c-3,4-5.4,7.4-7,9.7c-16,22.4-31.2,46.2-54.1,62.4c-20.1,14.2-41.8,26.2-60.4,42.5
	c-18.9,16.5-27.3,37.8-43,56.2c-2.6,3.1-5.7,5.6-8,8.9c-3.6,5-5.4,10.9-7.6,16.6c-2.7,7-6.5,13.5-10.8,19.7
	c-3.5,5.1-6.3,10.6-9.8,15.6c-2.7,3.8-7.3,7.2-7.8,12.1c-0.8,7.9,8.8,11.3,14.8,13.1c13.6,4.2,26.3,9,40.7,9.2
	c13.9,0.2,27.9-2.5,40.9-7.5c13.5-5.1,24.6-15.4,37.4-22.1c13.2-7,30-10.8,36.1-26.1c5.8-14.6,12.3-29.2,14.5-44.8
	c1.1-7.8,1.6-15.8,4.2-23.3c3.6-10.3,10.9-18.2,15.5-27.8c5-10.4,10.5-20.6,16.3-30.5c21.7-37.6,47.9-72.9,68.1-111.3
	c5.5-10.4,8-15.5-0.3-23.8C1767.6,3855.1,1728.3,3903.7,1710,3928.4z"/>
<path d="M3306.9,3574.5c-10.9-12.7-18.6-25.5-34.4-33c-17.1-8.2-62.1-11.8-51.3,19.7c4.6,13.3,16.1,24.5,25.4,34.5
	c8,8.6,23.6,20,28.3,30.8c6.5,15.3,19.5,28.8,37.4,28.8c15.8,0,16.5-15.4,16.6-29.2C3329,3604.7,3320.5,3590.3,3306.9,3574.5z"/>
<path d="M2590,2972.9c-15.3,7.7-27.2,25.9-34.6,40.7c-3.3,6.6-21.7,37-11.1,41.7c8.7,3.9,24.3-7.4,31-11.9
	c15.3-10.5,42.4-31.4,43.3-52.7C2619.4,2973.5,2603.6,2966.1,2590,2972.9z"/>
<path d="M5679,4410.3c-22.3,2.8-39.4,24.2-38.4,46.3c2.6,56.4,74.6,82.3,122.1,76.9c32.6-3.7,62-17.4,90.7-32.6
	c9.4-5,23-11.4,22.4-24c-0.5-11.9-13.3-22.7-22-29.2c-22.6-16.8-55.6-22.3-82.3-28.9C5742.5,4411.8,5709,4406.6,5679,4410.3z"/>
<path d="M6446.9,5000c-23.9-10.7-47.6-21.9-69.6-34.3c-39.4-22.1-69.4-52.5-112.2-70.6c-45.6-19.4-89.8-41.8-135-62.1
	c-55.7-25-118.8-33.8-177-52.1c-74.4-23.4-148.4-46.4-216.6-85.3c-64.6-36.8-97.1-92.9-149.7-141.7c-33.7-31.3-50.4-63.1-55.1-108.8
	c-4.3-41.6-10.9-70.6-44.2-98.9c-72.5-61.6-170.5-99.1-256.8-133.9c-47.5-19.2-92.4-78.1-114.2-124.4c-15.3-32.4,0.1-17.2-21.7-27.3
	c-26.5-12.3-59.1-23-87-33.6c-43.7-16.5-101.3-15.8-147.8-13.6c-110.4,5.3-195.8-36.7-287.6-98.5c-23.1-15.6-46.9-21.6-75.5-11.2
	c-25.8,9.3-30.1,31.1-47.9,49.1c-34.3,34.5-84.8,22.8-122.9,47.6c-22.2,14.5-19.4,38.5-45.6,50.1c-30.6,13.5-66.5,11.3-92.6-8.1
	c-36.1-26.9-70.6-47.8-111.8-67.9c-37.5-18.2-70.6-30.3-103.8-56.3c-39.2-30.7-85.9-50.8-124.7-81.9c-14.5-11.6-26-26.9-40.8-38
	c-16.9-12.6-37.3-11.8-54.1-22.4c-14.3-8.9-20-24.9-32.7-36c-16.9-14.8-37.7-23.4-53.5-40.1c-21.4-22.6-37.2-53.4-70.4-57.3
	c-15.5-1.8-17.3,2.1-29.8,5.7c-47.2,13.2-90.1,13.8-134.5,38.9c-32.3,18.3-64.5,52.9-102.8,57.5c-86.1,10.4-143.5-107.3-195.3-156.2
	c-15.5-14.6-32.6-19.1-50.7-30.3c-27.1-16.7-50.5-38.5-76.1-57.2c-22-16.1-46-32.3-73.2-37.7c-22.7-4.5-37.1,7.7-58.6,10
	c-56.4,6-123.2-15.4-168.3-48.4c-25.9-18.9-52-50.4-82.5-61.2c-19.1-6.7-54.6-14.1-73.3-2c-25.8,16.7-33.8,52.2-60.3,70.2
	c-19.9,13.6-44.8,31.5-69.8,30.7c-16-0.5-32.4-10.4-47.4-10.5c-21.1-0.2-39,23.9-50.3,39c-13.7,18.4-30.7,34.9-47,51
	c-41.6,41.1-68.7,89.6-100.3,138.5c-42.1,65.1-86.3,128.8-132.6,191c-13,17.4-26.2,31.2-31.5,52.2c-5.2,21-1.6,43.4-7.1,64.4
	c-9.7,37-28.3,54-56.1,78.8c-33.5,29.8-64.1,66-100.3,91.6c-28.9,20.4-57.5,44.8-77.3,74.8c-18.1,27.5-30.9,51.6-57.9,72.5
	c-34,26.3-80.8,59.1-121.6,37.4c-29.2-15.5-64.5-53.5-97.7-58.2c-77.4-10.8-122.7,53.1-165.7,109.5c-45.1,59.2-111.8,92-160.7,147.2
	c-24.4,27.5-42.4,60.8-64.2,90.3c-41.4,56-84.8,85.5-146.3,120c-20.8,11.7-43.5,21.4-61.6,37.2c-7.2,6.3-12.5,16.4-20.5,21.8
	c-16.3,11.1-39.8,15.8-57.8,25.1c-5.2,2.7-10.4,5.5-15.5,8.3c-38.2,21-74.8,44.8-113.9,64.1c-24,11.8-46.2,27.7-70.4,39.1
	c-35,16.5-75.8,23.4-110.3,41.9c-5.5,2.9-11.8,6.2-18.6,9.8H6446.9z"/>
</svg>
