<?xml version="1.0" encoding="utf-8"?>
<!-- Generator: Adobe Illustrator 16.2.1, SVG Export Plug-In . SVG Version: 6.00 Build 0)  -->
<!DOCTYPE svg PUBLIC "-//W3C//DTD SVG 1.1//EN" "http://www.w3.org/Graphics/SVG/1.1/DTD/svg11.dtd" [
	<!ENTITY st0 "fill:#1D1D1B;">
]>
<svg version="1.1" id="Ebene_1" xmlns="http://www.w3.org/2000/svg" xmlns:xlink="http://www.w3.org/1999/xlink" x="0px" y="0px"
	 width="7200px" height="5000px" viewBox="0 0 7200 5000" style="enable-background:new 0 0 7200 5000;" xml:space="preserve">
<path style="&st0;" d="M7209.72,2829.55c-6.87-3.1-12.85-6.37-19.63-9.78c-16.62-8.38-37.24-14.45-52.31-25.7
	c-6.4-4.78-11.95-16.42-21.23-15.5c-1.68,0.16-13.27,15.62-12.3,14.56c-14.52,15.91-22.55,19.04-40.51,8.89
	c-42.47-24-80.45-62.25-123.62-83.66c-11-5.45-21.83-7.73-32.95-12.27c-22.16-9.05-41.41-27.82-61.7-40.8
	c-19.29-12.34-50.59-29.24-73.15-43.99c-17.45-11.41-36.08-30.47-55.64-38.21c-5.68-2.24-12.09-1.89-17.77-4.14
	c-16.35-6.46-32.38-18.83-47.51-27.84c-14.82-8.82-29.9-10.17-46.13-15.92c-20.05-7.11-48.81-34.04-71.8-26.32
	c-19.51,6.55-27.91,28.19-42.4,40.76c-15.7,13.63-28.87,21.29-40.27,39.87c-8.87,14.46-21.79,20.58-33.87,32.03
	c-13.43,12.73-18.41,31.58-31.79,43.83c-18.15,16.62-38.64,23.59-53.92,44.82c-14.5,20.15-25.49,50.6-55.54,40.86
	c-27.8-9.01-46.25-35.26-70.34-50.19c-11.25-6.96-23-10.02-34.21-17.76c-38.86-26.82-74.86-58.31-112.01-87.4
	c-19.79-15.5-43.13-29.72-57.19-50.99c-9.74-14.73-18.81-29.53-29.3-43.84c-23.15-31.58-39.99-72.79-55.25-108.52
	c-18.45-43.16-18.82-89.37-29.85-134.36c-7.07-28.85-21.39-55.26-33.06-82.64c-11.01-25.84-21.38-52.39-39.08-74.54
	c-9.48-11.87-23.2-21.05-31.58-33.64c-5.75-8.62-7.76-16.69-15.53-24.47c-13.15-13.16-30.24-22.19-44.5-34.06
	c-20.05-16.69-37.67-35.52-58.77-51.11c-36.35-26.87-76.11-48.83-112.08-76.21c-28.09-21.39-49.57-45.23-65.84-76.49
	c-7.2-13.84-14.3-26.33-23.93-38.58c-23.51-29.93-46.3-68.47-84.21-81.81c-15.92-5.6-18.48-1.53-28.99,7.96
	c-10.71,9.67-17.78,11.22-32.87,8.45c-47.33-8.69-97.61-40.97-138.69-65.34c-26.41-15.66-48.77-38.82-69.26-61.37
	c-45.38-49.92-87.72-102.5-129.73-155.25c-21.02-26.39-41.95-52.84-63.25-79c-10.68-13.12-21.54-26.07-32.37-39.05
	c-4.5-5.4-7.96-11.45-14.39-14.51c-1.57-0.75-17.77-1.65-17.84-2.75c0.1,1.64,0.74,3.04,1.95,4.17c-6.93,0.21-12.13-5.62-17.65,0.69
	c-0.43,4.49-1.07,8.96-1.92,13.38c-2.08,5.53-5.13,10.47-9.15,14.82c-13.3,21.49-23.26,54.12-51.5,40.65
	c-3.14-1.5-12.51-10.31-16.52-12.68c-9.72-5.75-18.21-12.44-27.02-19.41c-27.83-22.01-48.88-50.79-74.3-74.65
	c-50.72-47.59-100.71-96.74-139.46-154.87c-15.85-23.78-38.95-41.2-60.19-59.82c-24.6-21.57-51.32-32.64-71.64-59.58
	c-16.76-22.21-29.28-45.95-41.6-70.66c-10.42-20.91-23.09-36.53-39.18-53.5c-23.46-24.74-35.95-56.46-58.53-81.71
	c-18.75-20.96-40.69-38.57-60.73-58.22c-18.33-17.97-30.64-37.02-53.07-49.71c-14.21-8.04-27.85-17.28-42.29-24.89
	c-10.72-5.65-22.99-7.46-33.44-13.3c-23-12.85-44.4-47.72-56.3-70.57c-4.54-8.71-7.13-25.82-19.7-23.52
	c-6.22,1.14-14.8,12.11-19.19,16.33c-9.34,8.99-9.88,13.03-12.72,24c-3.27,12.61-14.09,24.48-21.64,34.52
	c-15.71,20.89-32.41,41.11-49.38,60.99c-19.61,22.97-34.39,43.98-66.79,42.49c-9.06-0.42-18.8,1.49-27.42-1.99
	c-7.05-2.85-10.9-7.22-19.08-7.76c-8.13,21.49-22.02,44.35-35.76,62.67c-14.98,19.96-32.37,44.68-58.29,50.59
	c-28.04,6.4-65.28-3.57-91.89-12.13c-19.16-6.16-35.57-17.61-54.01-25.39c-9.97-4.2-20.37-7.91-28.58-15.26
	c-7.45-6.68-8.31-16.05-14.16-22.74c-10.44-11.92-23.75-21.48-34.19-33.68c-11.92-13.92-21.43-29.47-34.43-42.52
	c-35.49-35.63-63.27-81.84-92.59-123.12c-26.3-37.01-61.11-68.95-92.38-101.81c-16.57-17.4-27.49-45.9-51.74-54.67
	c-9.07-3.28-19.73-7.87-27.73-1.86c-7.35,5.52-16.18,19.3-22.11,26.51c-14.77,17.94-26.62,38.55-39.26,58.01
	c-13.26,20.4-19.62,41.63-28.37,64.21c-22.22,57.31-52.11,111.41-75.11,168.46c-11.43,28.34-21.34,57.35-33.28,85.48
	c-3.28,7.73-4.83,13.71-11.59,18.81c-6.87,5.18-12.13,7.84-18.11,14.92c-13.27,15.71-26.87,31.15-40.41,46.64
	c-27.72,31.74-55.29,63.78-79.16,98.57c-23.85,34.76-42.86,72.49-56.93,112.21c-5.96,16.82-8.77,34.62-19.89,48.21
	c-12.11,14.79-28.22,26.27-38.82,42.32c-15.69,23.76-29.23,48.79-45.53,72.25c-24.35,35.06-49.95,71.89-88.66,94.07
	c-31.17,17.86-54.03-3.77-82.79-12.64c-10.93-3.38-21-0.3-30.15,6.53c-14.93,11.14-35.11,30.15-46.8,44.75
	c-8.73,10.9-14.27,25.48-19.11,38.32c-10.04,26.66-28.82,46.14-40.44,71.51c-27.09,59.12-117.98,72.35-175.97,81.27
	c-18.24,2.81-36.56,0.35-54.79,2.67c-13.06,1.66-22.48,3.21-35.41-1.18c-35.59-12.06-65.58-37.61-103.98-41.88
	c-25.57-2.84-49.5,3.94-75.82,1.61c-61.49-5.46-127.23-18.87-185.89,7.85c-38.77,17.66-61.39,56.41-100.43,73.95
	c-13.3,5.97-25.5,4.11-40.33,4.23c-17.32,0.14-35.21,1.05-52.49-0.22c-15.22-1.12-19.96-8.72-34.54-13.12
	c-13.94-4.2-27.47-9.94-40.76-15.97c-21.51-9.76-32.37-9.2-54.11-4.81c-5.75,1.16-5.53-1.68-15,4.43
	c-14.88,9.6-30.23,20.02-42.77,32.58c-35.06,35.14-60.83,78.09-91.81,116.62c-13.7,17.03-28.13,34.09-46.56,46.18
	c-14.88,9.76-31.12,16.46-45.21,27.56c-31.89,25.12-60.69,55.45-90.81,82.71c-57.83,52.35-126.4,103.83-207.33,107.9
	c-25.2,1.27-49.34-9.16-69.89-22.57c-27.75-18.1-83.02-71.45-120.03-55.44c-14.92,6.46-18.95,27.72-32.67,37.35
	c-12.54,8.8-23.52,14.54-33.43,22.82c-5.84,4.88-11.31,10.65-16.51,18.45c-6.69,10.04-25.06,36.46-37.85,39.53
	c-12.53,3-31.58-17.92-45.73-22.04c-7.38-2.15-27.27-8-34.69-3.21c-5.82,3.75-4.05,8.97-5.64,15.78
	c-12.67,54.05-62.21,107.73-100.73,145.24c-38.41,37.4-73.32,74.95-108.56,115.68c-30,34.67-60.64,68.91-93.79,100.62
	c-27.51,26.3-54.9,58.47-88.36,76.46c-16.02,8.62-32.38,16.64-48.94,24.29v1974.97c20.28-17.13,40.12-34.54,55.2-56.66
	c18.65-27.35,38.73-50.54,53.92-79.86c15.29-29.52,32.61-59.85,51.06-87.44c9.13-13.65,19.88-26.08,29.14-39.61
	c7.85-11.47,12.32-25.67,20.91-36.5c6.9-8.7,22.63-16.08,33.01-19.73c22.76-8.02,41.72,0.85,62.11,8.55
	c37.2,14.04,84.71,12.69,108.99,47.59c10.59,15.22,20,31.91,34.72,42.54c22.93,16.55,40.46,33.76,69.66,33.52
	c26.16-0.21,53.48-13.58,77.28-25.35c9.54-4.72,14.81-14.16,23.01-19.12c14.93-9.02,31.5,13.3,44.92,18.61
	c14.33,5.68,27.76,9.34,40.13,18.9c10.14,7.83,14.47,8.96,28.08,9.58c29.17,1.34,60.21,2.09,89.12,6.63
	c11.08,1.74,10.81,2.67,19.98-2.36c7.45-4.08,25.23-5.75,30.55-10.7c1.84-1.71,0.8-4.75,2.21-6.71
	c12.82-17.78,29.29-31.99,42.03-49.5c7.54-10.37,10.04-21.7,13.39-33.8c11.83-42.66,39.72-82.87,59.79-122.14
	c20.14-39.42,38.02-81.56,63.68-117.86c10.49-14.83,19.8-29.92,29.19-45.47c7.02-11.63,14.55-30.23,24.29-39.66
	c5.97-5.77,13.85-6.53,22.39-7.08c14.45-0.94,17.72,3.14,28.27,11.08c16.17,12.16,39.73-4.66,47.7-21.01
	c6.07-12.45,10.03-27.37,15.99-40.28c4.5-9.75,8.54-19.49,12.25-29.57c0.76-2.06,0.91-7.29,2.57-9.07c16.33-17.45,48.42-5.66,65,3.5
	c10.71,5.92,19.07,15.62,30.05,20.77c9.11,4.26,19.94,7.16,29.4,10.79c46.56,17.85,97.81,15.7,145.45,30.45
	c46.2,14.3,91.96,10.03,139.74,10.64c32.85,0.42,66.32,3.31,97.43,14.55c25.28,9.14,48.59,21.25,75.37,26.84
	c20.16,4.21,40.78,1,60.48,4.85c3.62,0.71,6.05,4.5,12.54,5.08c24.75,2.2,47.9-1.54,70.63-10.81c15.66-6.38,34.12-5.47,50.99-3.75
	c41.2,4.2,83.04,0.85,124.33,3.4c40.72,2.51,77.91,16.04,119.47,10.02c22.54-3.27,42.96-10.92,62.98-21.36
	c37.24-19.42,75.78-36.3,112.45-56.81c35.26-19.71,54.61-55.57,77.05-89.64c6.4-9.7,15.12-19.03,21.07-28.72
	c6.45-10.5,3.14-17,16.88-15.87c15.92,1.3,36.29,24.2,50.58,31.54c10.89,5.59,22.54,9.82,33.61,15.02
	c21.1,9.91,56.02,13.35,79.38,10.58c40.22-4.78,75.4-28.24,110.25-46.59c25.8-13.58,52.28-25.96,78.13-39.47
	c28.52-14.92,63.62-25.4,88.91-45.53c33.51-26.68,58.52-78.05,95.65-94.73c29.07-13.05,64.27-24.31,96.51-24.56
	c16.58-0.13,22.98-1.44,36.76-10.46c16.27-10.64,37.94-13.76,53.15-24.1c10.17-6.91,15.64-24.19,25.4-33.3
	c15.23-14.2,32.11-22.03,45.19-38.26c9.06-11.24,21.53-19.19,30.37-29.96c14.32-17.47,22.42-40.96,37.06-59.17
	c19.4-24.13,43.05-44.62,60.61-70.16c23.9-34.77,49.92-67.18,75.04-101.07c10.46-14.12,19.75-28.67,26.6-44.9
	c2.98-7.08,6.61-28.81,12.93-33.85c18.58-14.79,34.94,23.56,45.69,37.21c15.78,20.03,30.6,38.22,55.75,39.95
	c2.59,0.18,2.85-5.44,6.15-5.09c7.12,0.77,15.55,7.83,21.41,11.42c27.93,17.15,46.08,53.59,64.65,80.05
	c16.12,22.99,37.37,48.89,58.34,66.87c24.84,21.3,49.21,43.25,75.59,62.65c23.04,16.95,48.2,30.62,70.2,49.03
	c41.35,34.59,83.65,61.42,130.58,88.43c34.15,19.66,68.41,39.13,103.29,57.46c86.12,45.27,179.82,87.82,276.43,104.61
	c28.3,4.92,57.41,6.21,86.03,3.81c18.09-1.52,27.6-4.8,42.01-13.47c2.51-1.51,0.78-6.43,3.78-7.97c6-3.08,25.21,8.36,29.77,10.24
	c27.84,11.51,57.1,21.3,83.78,35.37c27.97,14.75,53.64,33.41,81.79,48.06c42.69,22.21,92.79,38.66,130.1,69.82
	c32.09,26.81,46.04,69.37,75.51,99.14c32.65,32.97,75.65,45.5,112.24,72.71c30.26,22.5,50.96,41.45,85.41,57.63
	c85.37,40.1,156.26,107.08,225.22,170.31c59.23,54.31,121.29,104.35,188.23,145.71c11.47,7.09,26.84,16.57,40.26,11.65
	c27.77-10.18,40.83-40.94,72.5-45.97c28.1-4.46,38.79-8.57,60.4-30.48c19.13-19.4,38.15-40.54,49.49-65.62
	c10.43-23.04,14.04-43.29,32.61-61.94c14.94-15,33.51-25.91,47.56-41.88c7.31-8.32,11.93-15.94,21.41-22.05
	c16.42-10.59,33.25-19.2,49.32-30.6c27.91-19.8,58.67-24.57,91.19-29.94c22.75-3.76,43.83-13.12,65.95-19.06
	c13.86-3.73,59.12-12.42,65.9-21.61c-2.29-5.55-0.25-9.93,6.09-13.11c8.8-6.54,18.14-12.17,28.03-16.89
	c5.46-0.31,8.24-2.49,8.35-6.54c-2.95-0.31-3.82-1.68-2.62-4.1c14.01-10.59,38.44-10.49,54.95-14.46c13.88-3.33,18.86-6,32.28,1.05
	c29.91,15.7,39.86,46.91,57.47,72.8c27.65,40.64,42.74,78.93,77.74,114.91c12.5,12.85,25.25,21.06,40.16,30.62
	c23.55,15.09,45.29,33.73,69.69,47.42c47.76,26.8,105.25,37.53,156.62,55.13c49.12,16.83,89.07,56.01,133.49,82.61
	c18.39,11.01,34.12,24.6,53.07,35.27c24.6,13.86,48.94,36.61,67.34,58.08c13.09,15.27,25.58,22.1,41.76,34.56
	c20.76,15.97,39.21,35.35,58.83,52.65c13.11,11.57,36.38,25.73,46.29,40.58c-1.77-0.46-3.37-0.16-4.8,0.9
	c1.2,2.96,3.31,5.15,6.32,6.58c4.58,6.94,11.23,4.86,11.82,14.28c0.07,1.17,17.78,10.17,35.33,18.76V2829.55z"/>
</svg>
