<?xml version="1.0" encoding="utf-8"?>
<!-- Generator: Adobe Illustrator 16.2.1, SVG Export Plug-In . SVG Version: 6.00 Build 0)  -->
<!DOCTYPE svg PUBLIC "-//W3C//DTD SVG 1.1//EN" "http://www.w3.org/Graphics/SVG/1.1/DTD/svg11.dtd">
<svg version="1.1" id="Ebene_1" xmlns="http://www.w3.org/2000/svg" xmlns:xlink="http://www.w3.org/1999/xlink" x="0px" y="0px"
	 width="7200px" height="5000px" viewBox="0 0 7200 5000" style="enable-background:new 0 0 7200 5000;" xml:space="preserve">
<path d="M0,0l0,3588.33V5004.8c66.63-179.21,45.06-100.43,140.05-171.54c54.18-40.52,102.08-64.22,153.83-115.55
	c44.19-43.87,100.97-73.37,150.55-78.51c39.28-4.06,87.28-10.13,123.04,24.53c50.94,49.43,43.93,117.08,41.8,210.2
	c42.05,58.85,128.01,29.13,177.92,29.37c33.11,0.17,119.36-35.67,140.92,18.54c-3.51,12.47-4.23,25.31-2.09,38.45
	c63.97,19.04,132.87-17.34,196.65,1.93c43.44,13.13,75.46,41.66,120.44,41.43c71.1-0.31,322.22,25.42,341.34-173.16
	c-46.26-35.3-113.95,1.9-165.36-12.53c19.65-46.22,65.62-44.95,94.63-58.64c56.5-26.68,116.85-47.63,175.64-56.01
	c34.21-4.89,59.16-2.5,89.93-19.43c23.73-13.09,45.06-38.41,70.22-44.66c27.7-6.86,81.23-13.86,107.78-0.15
	c39.55,20.38,41.54,63.53,62.4,130.63c20.99,67.51,9.08,54.31,42.64,72.48c37.48,20.32,95.96,1.45,135.29,1.39
	c69.99-0.19,123.96,39.44,195.96,38.57c66.71-0.83,129.9-5.94,196.41-25.44c76.75-22.52,147.55-103.68,219.47-153.38
	c78.98-54.61,173.92-65.69,257.7-74.47c42.94-4.5,84.58,1.41,127.26,3.42c40.36,1.89,75.17-21.3,113.79-35.2
	c17.47-6.3,36.31-0.93,53.87-6.9c12.57-4.33,24.99-12.68,37.86-16.88c10.08-3.25,20.29-3.98,30.49-4.02
	c15.7-0.06,31.44,1.53,46.83-1.84c17.24-3.69,34.78-3.54,51.9-8.66c20.34-6.03,41.09-3.77,61.49-9.05
	c18.52-4.83,47.14-11.52,62.31-32.98c7.46-10.58,10.42-17.67,20.53-20.69c8.56-2.57,18.01-1.37,26.02-8.37
	c25.62-22.27,13.98-58.93,29.51-93.9c27.5-61.86,82.57-54.3,119.23-81.2c42.06-30.89,84.06-69.19,127.44-92.93
	c32.12-17.57,67.67-20.4,98.91-41.95c28.5-19.66,55.01-27.61,84.88-39.67c47.5-19.26,103.09-71.48,142.95-123.73
	c17.69-23.22,30.37-54.04,47.8-77.45c67.3-90.42,97.69-258.51,170.83-340.02c31.79-35.42,68.06-48.19,103.17-67.03
	c51.93-27.84,101-79.65,144.34-133.28c27.9-34.51,50.88-59.82,83.51-81.68c19.21-12.87,33.62-13.88,44.48-47.19
	c6.03-18.53,8.39-36.54,15.31-53.24c19-46,53.59-60.77,81.36-29.05c7.83,8.96,11.08,23.53,20.4,29.83c9.43,6.4,37.6,9.24,47.7,2.58
	c7.93-5.28,15.47-18.42,23.06-25.45c14.95-13.91,35.49-14.34,51.71-21.47c19.88-8.76,39.74-17.68,59.43-28.03
	c43.62-22.97,85.21-55.1,127.36-85.87c17.54-12.81,33.51-31.62,50.37-47.22c17.86-16.55,36.78-24.38,53.52-45.18
	c14.56-18.06,26.05-44.87,40.77-61.76c12.83-14.68,26.25-24.2,38.21-42.06c8.94-13.41,15.89-30.37,25.64-40.54
	c10.01-10.5,23.54-7.56,32.89-19.58c9.39-12.08,17.94-30.79,27.35-44.29c42.58-61.36,67.38-116.42,89.86-207.13
	c12.27-49.57,22.66-95.83,47.78-127.11c76-94.63,180.32-56.84,256.66-160.34c77.68-105.29,164.31-244.6,257.58-271.9
	c77.52-22.7,134.58-169.51,214.29-164.17c88.08,5.88,153.37,58.89,222.88-87.38c48.58-102.23,67.56-242.47,115-351.62
	c49.51-113.89,96.27-249.2,168.57-313.54c63.21-56.21,235.77-119.69,235.77-144.71V0C7200,0,1271.76,0,0,0z"/>
</svg>
