<?xml version="1.0" encoding="utf-8"?>
<!-- Generator: Adobe Illustrator 16.2.1, SVG Export Plug-In . SVG Version: 6.00 Build 0)  -->
<!DOCTYPE svg PUBLIC "-//W3C//DTD SVG 1.1//EN" "http://www.w3.org/Graphics/SVG/1.1/DTD/svg11.dtd">
<svg version="1.1" id="Ebene_1" xmlns="http://www.w3.org/2000/svg" xmlns:xlink="http://www.w3.org/1999/xlink" x="0px" y="0px"
	 width="7200px" height="5000px" viewBox="0 0 7200 5000" enable-background="new 0 0 7200 5000" xml:space="preserve">
<path d="M0,881.6c0,0,264.8,14.601,367,105.301c50,44.3,117.2,73.6,184.1,102.699C727.1,1165.9,889.9,968.3,1055.7,1013
	c-1-0.3,25.6,33.8,34.8,38.2c36,17,134.5-10.5,171.4-22.5c-5.2-19.7,0.8-43.7-4.4-63.9C1314,937.4,1426,965.9,1485.6,982.9
	c63.101,295.8,256.2-4.7,391.301,29c53.699,13.399,63.199,60.1,137.5,37c53.6-16.7,36.899-17.2,69.3-55.101
	c39.399-46,59.6-120.3,97.7-166.899c85.899-105,210.8-69.4,314.6-129.301c71.9-41.5,94.9-151.1,180.7-188.3
	c66-28.6,155.7-39.8,224.5-56c15.2-3.6,49-25.7,66.2-13.6c20,14.1,32.199,59.3,40.8,87.5c26.2,85.899,1.3,102.899,71.8,118
	c103.2,22.1,213.6-23.3,301.1-89.101c39.301-29.5,77.801-62.8,120.601-82.8c48.5-22.7,85.5-1.3,132.2-8.1
	c91.8-13.3,183-139.3,268.8-183.7c59.7-30.9,131.8-17.7,193.5-37.7c70.2-22.8,129.601-46.1,202.8-51.7
	c76.2-5.8,151.6-0.3,224.3-29.4c41.101-16.4,82.2-29,125-37.5c45.7-9.1,92.3-1.7,138.601-8.1c47.199-6.6,79,3.5,90.799,76
	c19.201,118-82.899,106.7-140,145.3c-58.899,39.8-111.5,131.399-158.699,192c-50.701,65.1-91.801,141.1-128.201,221.1
	c-26.199,57.6-36.399,99.6-29.399,164.4c5.101,47.899-2.8,87.699,26,115.199c31.8,4.101,35.3-34.6,61-54.3
	c28.601-22,64.2-17.6,96.399-37.899c161.701-101.801,351.5-198.7,530.4-198.101c123,0.4,79.7-37.399,160.1-143.5
	c70.101,31.5,91.4,11.3,119.701,86.7c17.399,46.3,15.799,112.5,30.399,163.2c12.5,43.5,28.3,144.899,54.899,167.2
	c12,10.1,133.5-32.9,104.5-24.101c110.801-34,219.701-79.2,331.9-105.1c83.6-19.3,142.8-42.8,215.7-97.601
	c61.2-46,104.7-100.5,149.3-176.199c27.8-47,55.4-147.601,99.3-168.801c50.399-24.199,121.5,31.4,171.2,45.101
	c56.2,15.5,112.2,17.899,168.7,19.5c28.2,112.2,51.5,154.3,150.601,112.1C6997,574.8,7200,742.9,7200,742.9v4133
	c0,0-79.2-3.301-119.1-14.9c-46-13.4-76.101,10.4-116.101,21.8c-46.399,13.2-109.8-20.3-153-36.3
	c-62.399-23.1-75.601-70.3-104.2-146.4c-15.3,20.801-38.8,29.5-59.8,36.9c0.7-4.7-0.2-11.3,1.2-17.1
	c-84.9-40.301-177.3-34.601-265.5-55.801c-6.5-1.5-98.9-16.399-97.3-10.1c-30.8-120.7-80.7-237.7-188.601-212.2
	c-64.5,15.2-86.399,61.5-121.5-33.8c-9-24.5-18.399-57.3-23.899-83.1c-9-42.301,8.899-35.9-28.899-51
	c-79.801-31.801-187-17.701-256.5-87.101c-18.601-18.601-24.301-65.8-40.9-89.899c-46.2-66.801-122-62.5-173.6-124.301
	c-64.201-76.8-134.801-74.899-217.4-88.6c-33.1-5.5-105.3-6.5-132-36.7c-29.5-33.399,11.6-136,9.2-137.601
	c-57.3-37.6-151.101-0.5-159.8-97.8c-5-55.7,53.5-92.5,63.8-148.2c-107.5-9.8-330-169.5-337.5-245.699
	c-11.3-116.301-14.899-409.5-148.399-309.4c-49.201,36.9-30.101,66.601-96,75C4373.9,2991.3,4320,2939,4263,2919.7
	c-63.699-21.5-140.299-13.601-197.399-62.4c-99.5-84.899-143.899-318.1-299.101-228.8c-65.5-32.1-19.399-126.9-51.1-175.7
	c-48.7-74.899-132.1,35.101-195-47.8c-25.9-34.1-31.2-87-54.6-124.2c-58.301-92.3-145.7-117.6-220.801-102.1
	c-61,12.6-123.5,32.7-185.3,37.3c-11.399,0.8-164.5-35.2-148.3-52.7c69-74.7,144.3-190,201.5-283.2
	c30.199-49.199,102.8-95,90.699-161.8c-192.199-22-339.199,162-518.699,205.5c-69.4,16.8-128.601-31.399-81.2-134.899
	c46.101-100.801,312.399-149.4,304.601-295.9c-245.301-24-399.801,266.8-636.4,269.5c4.9-55,22.6-119.3-25.7-140.9
	c-83.6-37.399-129.5,145.4-169.5,198.4c-50.7,67.4-114.1,107.1-163.899,169.6c-81.801,102.5-215.7,256.801-337,213
	C1508.7,2178.4,1477.4,2067.1,1417,2035.7c-49.899-26-175.399-13.7-228.699,13.6c-72.2,37-127.601,125.4-194,175.4
	C861.7,2324.6,727,2369.7,577.101,2392.5c-105.9,16.1-110.5,51.8-173.3-39.6C328.601,2243.3,282.7,2142.6,173.101,2212.6
	C141.1,2233,111,2288.1,0,2246.9V881.6z"/>
<path d="M4533.961,3171.507c-12.103-17.575-39.476-47.183-61.473-28.725c-4.295,3.604-6.648,6.357-10.438,10.623
	c-4.534,5.104-7.453,7.24-8.952,14.072c-1.793,8.178,0.261,17.704-0.524,26.102c-1.076,11.514-1.143,22.755,1.967,34.091
	c6.074,22.143,23.182,28.336,44.784,27.344c33.255-1.529,33.391-32.657,39.558-57.177
	C4541.655,3186.811,4541.352,3182.242,4533.961,3171.507z"/>
<path d="M4264.571,3010.574c-6.068-3.752-21.109-2.26-28.269-2.324c-6.187-0.057-20.243,1.624-21.864,9.177
	c-4.806,22.408,49.37,31.158,54.111,11.712C4269.699,3024.426,4269.006,3013.315,4264.571,3010.574z"/>
</svg>
