<?xml version="1.0" encoding="utf-8"?>
<!-- Generator: Adobe Illustrator 16.2.1, SVG Export Plug-In . SVG Version: 6.00 Build 0)  -->
<!DOCTYPE svg PUBLIC "-//W3C//DTD SVG 1.1//EN" "http://www.w3.org/Graphics/SVG/1.1/DTD/svg11.dtd">
<svg version="1.1" id="Ebene_1" xmlns="http://www.w3.org/2000/svg" xmlns:xlink="http://www.w3.org/1999/xlink" x="0px" y="0px"
	 width="97.94px" height="131.85px" viewBox="0 0 97.94 131.85" style="enable-background:new 0 0 97.94 131.85;"
	 xml:space="preserve">
<path d="M2.26,28.21l-0.2-0.13l0.01-0.24c0.09-2.1,0.9-4.09,2.4-5.92l0.32-0.38l0.33,0.37c1.3,1.44,2.79,2.64,4.42,3.56
	c3.16,1.79,5.78,1.65,7.75,0.55c0.44-0.62,0.66-1.61,0.66-2.94c0-1.01-0.28-1.79-0.84-2.39c-0.37-0.34-0.7-0.64-0.96-0.88
	c-0.16-0.14-0.52-0.4-1.31-0.79c-0.68-0.37-2.05-1-4.07-1.9c-2.07-0.91-3.53-1.65-4.36-2.19c-2.44-1.65-3.67-3.89-3.67-6.67
	c0-2.79,1.08-4.89,3.2-6.25c2.06-1.33,4.64-2,7.68-2c3.01,0,6.21,0.72,9.52,2.13l0.31,0.13L23.38,2.6
	c-0.34,1.97-1.08,3.91-2.19,5.77l-0.27,0.45l-0.39-0.36c-1.39-1.28-2.88-2.34-4.44-3.14c-1.52-0.79-2.91-1.19-4.12-1.19
	c-1.16,0-2.1,0.18-2.78,0.54C8.84,5.12,8.67,5.84,8.67,6.8c0,1,0.31,1.76,0.95,2.32c0.69,0.61,1.46,1.12,2.29,1.5
	c0.86,0.4,1.64,0.76,2.32,1.07c0.69,0.31,1.14,0.52,1.34,0.62c0.19,0.1,0.66,0.31,1.39,0.64c0.75,0.34,1.22,0.56,1.42,0.66
	c0.2,0.1,0.64,0.35,1.32,0.75c0.71,0.41,1.19,0.75,1.47,1.03c0.25,0.25,0.62,0.62,1.09,1.11c0.52,0.54,0.88,1.04,1.09,1.53
	c0.55,1.31,0.83,2.65,0.83,3.99c0,3.01-1.1,5.33-3.26,6.89c-2.12,1.53-5.04,2.3-8.68,2.3C8.61,31.22,5.25,30.21,2.26,28.21z
	 M38.85,29.25l-0.01,1.46h8.16v-1.35l-0.01-0.11c-0.44-1.63-0.66-4.53-0.66-8.61V10.62c0-1.07,0.06-2.65,0.19-4.69
	c0.12-2.01,0.28-3.34,0.46-3.95l0.02-1.48h-8.16v1.35l0.01,0.11c0.44,1.63,0.66,4.4,0.66,8.23v10.44
	C39.51,24.72,39.29,27.62,38.85,29.25z M68.67,29.36l-0.01-0.11c-0.52-1.97-0.78-4.72-0.78-8.19V9.66L83.11,31l0.15,0.2l6.24-0.62
	l-0.13-0.49c-0.07-0.27-0.2-1.09-0.41-3.45c-0.17-1.91-0.25-3.69-0.25-5.29v-9.98c0-1.59,0.07-3.4,0.21-5.4
	c0.14-1.99,0.29-3.34,0.45-4.02l0.01-1.45h-6.77v1.35L82.64,2c0.24,0.66,0.46,1.85,0.65,3.53c0.19,1.7,0.29,3.27,0.29,4.67v9.68
	L69.46,0.07l-7.27,0.51l0.01,1.4c0.36,2.09,0.54,5.24,0.54,9.36v8.51c0,4.61-0.22,7.77-0.66,9.41l-0.01,1.46h6.61V29.36z
	 M19.1,79.23c2.16-1.56,3.26-3.88,3.26-6.89c0-1.34-0.28-2.68-0.83-3.99c-0.22-0.5-0.57-1-1.09-1.53c-0.48-0.49-0.84-0.86-1.09-1.11
	c-0.28-0.28-0.76-0.62-1.47-1.03c-0.68-0.4-1.12-0.65-1.32-0.75c-0.2-0.1-0.67-0.32-1.42-0.66c-0.73-0.33-1.2-0.55-1.39-0.64
	c-0.2-0.1-0.64-0.3-1.34-0.62c-0.68-0.31-1.46-0.66-2.32-1.07c-0.83-0.39-1.6-0.89-2.29-1.5c-0.64-0.56-0.95-1.32-0.95-2.32
	c0-0.96,0.18-1.68,0.52-2.14c0.68-0.36,1.62-0.54,2.78-0.54c1.21,0,2.6,0.4,4.12,1.19c1.55,0.8,3.04,1.86,4.44,3.14l0.39,0.36
	l0.27-0.45c1.11-1.85,1.85-3.8,2.19-5.77l0.06-0.34l-0.31-0.13c-3.31-1.41-6.51-2.13-9.52-2.13c-3.03,0-5.61,0.67-7.68,2
	c-2.12,1.36-3.2,3.47-3.2,6.25c0,2.78,1.23,5.02,3.67,6.67c0.83,0.54,2.3,1.28,4.36,2.19c2.02,0.89,3.39,1.53,4.07,1.9
	c0.79,0.39,1.15,0.65,1.31,0.79c0.26,0.24,0.59,0.54,0.96,0.88c0.57,0.59,0.84,1.37,0.84,2.39c0,1.33-0.22,2.32-0.66,2.94
	c-1.97,1.1-4.59,1.24-7.75-0.55c-1.63-0.92-3.12-2.12-4.42-3.56l-0.33-0.37l-0.32,0.38c-1.51,1.83-2.32,3.82-2.4,5.92L0.23,78.4
	l0.2,0.13c2.99,2,6.35,3.01,9.99,3.01C14.06,81.54,16.98,80.76,19.1,79.23z M41.08,60.64v10.94c0,3.67-0.19,6.36-0.59,8.09v1.35
	h8.07v-1.35l-0.01-0.11c-0.44-1.63-0.66-4.36-0.66-8.11V60.48c0-2.51,0.05-4.47,0.14-5.84c2.15,0.11,4.72,0.51,7.74,1.2H57V55.4
	c0-1.25,0.07-2.67,0.21-4.24l0.04-0.48l-0.48,0.01c-5.38,0.08-9.5,0.12-12.24,0.12s-6.86-0.04-12.24-0.12l-0.48-0.01l0.04,0.48
	c0.14,1.57,0.21,2.99,0.21,4.24v0.43l1.32-0.01c3.02-0.67,5.56-1.07,7.56-1.19C41.04,56.04,41.08,58.06,41.08,60.64z M76.96,81.03
	h-8.33l0.03-1.51c0.54-1.4,0.81-3.32,0.81-5.72V58.76c0-2.74-0.23-4.91-0.69-6.46l-0.02-0.12v-1.39l0.46,0.03
	c0.76,0.06,2.13,0.08,4.08,0.08l5.99-0.08c3.67,0,6.55,0.57,8.58,1.69c2.11,1.17,3.18,3.15,3.18,5.89c0,2.69-0.85,4.89-2.52,6.53
	c-1.49,1.47-3.45,2.39-5.83,2.75l4.26,4.97c2.01,2.34,3.58,3.97,4.66,4.85c1.06,0.86,2.02,1.42,2.86,1.68l0.3,0.09v1.75h-8
	l-0.13-0.19c-0.38-0.57-1.35-1.84-2.87-3.79l-7.41-9.02c-0.03,0-0.05,0-0.08,0v5.36c0,2.68,0.22,4.76,0.65,6.16l0.02,0.13V81.03z
	 M76.35,54.43c-0.04,1.26-0.06,4.65-0.07,10.11c0.55,0.05,1.21,0.08,1.96,0.08c2.1,0,3.6-0.46,4.45-1.35
	c0.85-0.91,1.29-2.29,1.29-4.13c0-1.82-0.38-3.07-1.13-3.72c-0.77-0.67-2.01-1.01-3.7-1.01C77.61,54.41,76.79,54.42,76.35,54.43z
	 M21.7,102.57c0.44,2.23,0.66,5.64,0.66,10.13c0,4.5-0.1,7.74-0.29,9.62c-0.18,1.78-0.61,3.19-1.26,4.21
	c-1.07,0.65-2.74,0.97-4.95,0.97c-2.23,0-3.89-0.59-4.95-1.75c-0.45-0.48-0.85-1.29-1.18-2.42c-0.34-1.15-0.51-3.15-0.51-5.92v-5.16
	c0-3.96,0.2-7.22,0.59-9.77v-1.35H1.73v1.35l0.02,0.12c0.43,1.46,0.65,4.29,0.65,8.39v8.3c0,4.32,1.03,7.52,3.06,9.51
	c2.03,1.99,5.33,3,9.82,3c4.49,0,7.75-1.04,9.69-3.09c1.93-2.04,2.91-5.71,2.91-10.88v-7.51c0-1,0.06-2.4,0.19-4.18
	c0.12-1.76,0.28-2.97,0.46-3.57l0.02-1.44h-6.86L21.7,102.57z M62.3,123.95c-3.89,1.97-6.93,2.97-9.03,2.97
	c-2.77,0-5.11-1.02-6.96-3.05c-1.86-2.03-2.8-4.95-2.8-8.68c0-2.35,0.46-4.38,1.35-6.04c0.88-1.63,2.02-2.95,3.37-3.9
	c0.91-0.13,1.99-0.19,3.21-0.19c1.24,0,2.64,0.27,4.16,0.79c1.52,0.53,3.24,1.5,5.13,2.9l0.35,0.26l0.25-0.35
	c1.26-1.72,2.09-3.51,2.46-5.33l0.07-0.33l-0.3-0.15c-3.09-1.47-6.34-2.22-9.66-2.22c-4.95,0-9.16,1.47-12.51,4.38
	c-3.37,2.92-5.07,6.77-5.07,11.44c0,4.66,1.48,8.43,4.41,11.21c2.92,2.78,6.5,4.19,10.65,4.19c1.63,0,3.29-0.26,4.93-0.78
	c1.65-0.52,2.84-0.98,3.64-1.42c0.78-0.42,2.24-1.33,4.33-2.7l0.37-0.24l-2.01-2.94L62.3,123.95z M97.46,101.01
	c-5.38,0.08-9.5,0.12-12.24,0.12s-6.86-0.04-12.24-0.12l-0.48-0.01l0.04,0.48c0.14,1.57,0.21,2.99,0.21,4.24v0.43l1.32-0.01
	c3.02-0.67,5.56-1.07,7.56-1.19c0.09,1.4,0.14,3.42,0.14,6.01v10.94c0,3.67-0.19,6.36-0.59,8.09v1.35h8.07V130l-0.01-0.11
	c-0.44-1.63-0.66-4.36-0.66-8.11v-10.99c0-2.51,0.05-4.47,0.14-5.84c2.15,0.11,4.72,0.51,7.74,1.2h1.23v-0.43
	c0-1.25,0.07-2.67,0.21-4.24l0.04-0.48L97.46,101.01z"/>
</svg>
