<?xml version="1.0" encoding="utf-8"?>
<!-- Generator: Adobe Illustrator 16.2.1, SVG Export Plug-In . SVG Version: 6.00 Build 0)  -->
<!DOCTYPE svg PUBLIC "-//W3C//DTD SVG 1.1//EN" "http://www.w3.org/Graphics/SVG/1.1/DTD/svg11.dtd">
<svg version="1.1" id="Ebene_1" xmlns="http://www.w3.org/2000/svg" xmlns:xlink="http://www.w3.org/1999/xlink" x="0px" y="0px"
	 width="7200px" height="5000px" viewBox="0 0 7200 5000" enable-background="new 0 0 7200 5000" xml:space="preserve">
<g>
	<defs>
		<path id="SVGID_1_" d="M3052.7,3087.7c4.5,1.1,8.9,2.3,13.3,3.9c12.5,4.6,27.1,23.9,15.7,36.6c-3.3,3.7-8,6.6-10.3,11
			c-5.4,10.1,6.7,26.1,11.8,34.2c3.8,6.2,12.4,19.4-0.6,20.7c-6.7,0.6-19.4-2-12.2,8.9c4.5,6.9,6.4,15.2,5.7,23.4
			c-1.2,13.8-13.7,16.5-25,18.5c-11.8,2-23.6,4.5-35.4,6.5c-7.5,1.2-32.3,12.8-29,21.1c7.1,18.3-11.9,54.4-17.6,68.3
			c-1.4,3.5-2.9,7.6-1,11.2c9.8,18.8,72.3,25.5,89.4,25.5c42.4,0,85.2-0.9,126.6,2.9c6.7,27.7-135,30.2-150.4,30.8
			c-78.2,3.1-156.2-3.7-234.3-1.2c-29,0.9-60.3,6.1-89.6,10.6c-35.3,5.5-68.7,21.8-103.7,29.3c-32.4,7-63,5.3-96.2,5.1
			c-40.2-0.4-80.1-5-118.7-7.1c-30.7-1.7-51.1,16-78.5,24.6c-53.6,16.8-107.2,14.5-163.5,20.1c-58.8,5.8-109.9,40-163,67.9
			c-39,20.5-77.2,39.9-113.8,66.8c-53.4,39.4-112.2,70.5-175.8,91.6c-34.7,11.5-63.3,33.8-99.7,40.8c-35,6.8-72.5,12.4-107.1,25.1
			c-49.3,18.1-99.9,41.5-149.6,57.6c-23.6,7.6-47.8,14.6-69.9,24.4c-13.9,6.1-30.3,20.3-44.8,23.3c-33,6.9-56.2-13.7-83.4-27.6
			c-27.2-13.9-48.4,0.1-75.7,13.8c-47.4,23.8-91.2,57.8-117.8,104.5c-13.5,23.7-24.9,45.8-52.4,60.7
			c-83.4,45.2-197.9,27.2-281.7,76.7c-64.9,38.3-116.9,85.7-198.9,58.2c-35.5-11.9-53.5-49.5-91.2-61.1
			c-53.8-16.6-103.8,20.1-147.4,51.1c-36.2,25.8-50.2,63.1-77.6,95.7c-25.2,29.9-98.9,90-98.9,90V5000h7200V210.9
			c0,0-132-4.3-236.7,82.4c-87.5,72.4-84.5,237.1-109.7,262.3c-10.3,10.3-49.7,2-57.7,12.2c-12.6,16.1-12.2,62.8-46.2,114.3
			c-24.3,36.8-21,117.7-5.5,158.8c15.4,40.9,26.5,48.4-4.9,121.2c-16.7,38.8,10.4,87.5,13.4,129.5c3,42.1-10.6,83.7-39.1,115
			c-11,12-23.7,18.6-30.6,34.8c-13.3,31.4,10.6,71.3-7.2,102.3c-5.5,9.5-15,11.6-20.2,20.5c-7.9,13.7,1.7,33.5-8.1,45.4
			c-21.3,25.7-24.2-52.3-31.3-71.9c-4.1-11.2-13.9-19.7-16.4-33c-5-26.7,0.9-30.7-23-47.5c-18.3-12.9-38.7-22.1-53.4-39.7
			c-16.8-20.1-17.1-57.6-49.4-58.6c-26.8-0.9-43.6,29.5-51.8,51.6c-11.6,31.5,10.5,64.6,0.3,96.9c-6.6,21-32.5,35.5-35.1,57.6
			c-2.1,17.6,10.5,40.1,4.7,62c-10.4,39.3-21.3,58.8-14.3,100.9c5.4,32.1-3,53.8-16,83.9c-33.7,77.6-34.8,46.4-126.2,98
			c-40,22.6,19.9,120.7-1.3,164.3c-39.1,80.4-240.1,19.8-285.2,104.5c-13.4,25.1-9.7,55-34,76.3c-37,32.4-92.2,35.7-130.6,68.8
			c-49.6,43-30.2,59.6-52.6,119.6c-37.1,99.5-136.2,121.5-230.4,108.4c-69.7-9.8-157.5-28.8-218.9,10.7
			c-41.6,26.7-98.5,62-150.5,50.1c-43.1-9.9-75.4-30.1-93.5-69.8c-18.9-41.5-45.6-77.3-65.6-117.9c-9.2-18.6-31-60.8-57.5-22.7
			c-17.8,25.6-5,62.7-5.4,91.2c-0.5,30.7-15.6,54.9-20.1,84.5c-4,26.2-7.6,52.1-9.2,78.6c-2.6,43.4,0.3,87.4-3.9,130.7
			c-6.8,70,5.6,55.5-53.8,103.5c-28.1,22.7-71.8,38.2-92.2,70.9c-16.7,26.8-9.7,76.6-26.2,97.4c-41.7,52.5-125,32.4-166.1,96.4
			c-38.9,60.6,1.1,146.1,3.8,209.8c1.7,41.6-1.5,68,10.2,111.8c6.8,25.7,33.3,63.2,15.6,89.8c-13.2,19.8-107.8,33.6-117.6,14.9
			c-18.2-34.7-29.3-84-47.5-114.8c-11.4-19.3-42.6-36.7-51.6-56.5c-12.5-27.3,10.3-65-13.1-93.7c-26.5-32.5-98.2-29.7-135.1-26.8
			c1.4-112.9-48.5-34-107.3-75.5c-66.6-47-5.7-87.4-115.8-102.2c-89.4-12-198.8-37.3-287.2-15.9c-88.8,21.5-158.9,88.8-244.1,113.2
			c-73,20.9-151.6-11.6-228.2,8.1C3193.5,3024.5,3054.6,3051.5,3052.7,3087.7z"/>
	</defs>
	<use xlink:href="#SVGID_1_"  overflow="visible"/>
	<clipPath id="SVGID_2_">
		<use xlink:href="#SVGID_1_"  overflow="visible"/>
	</clipPath>
</g>
</svg>
