<?xml version="1.0" encoding="utf-8"?>
<!-- Generator: Adobe Illustrator 16.2.1, SVG Export Plug-In . SVG Version: 6.00 Build 0)  -->
<!DOCTYPE svg PUBLIC "-//W3C//DTD SVG 1.1//EN" "http://www.w3.org/Graphics/SVG/1.1/DTD/svg11.dtd">
<svg version="1.1" id="Ebene_1" xmlns="http://www.w3.org/2000/svg" xmlns:xlink="http://www.w3.org/1999/xlink" x="0px" y="0px"
	 width="7200px" height="5000px" viewBox="0 0 7200 5000" enable-background="new 0 0 7200 5000" xml:space="preserve">
<path d="M4529.99,1241.832c13.181-7.869,18.756-22.637,28.793-33.649c35.217-38.684,90.781-62.658,133.907-91.475
	c25.414-16.979,45.322-50.136,61.021-76.263c7.664-12.771,12.185-27.031,15.837-41.383c2.528-9.963-0.615-22.671,2.333-31.507
	c6.806-20.43,39.815-16.378,50.009-34.529c3.476-6.186,1.572-12.443,6.269-19.044c6.044-8.499,17.154-15.817,24.936-23.296
	c14.948-14.352,19.342-17.755,20.318-37.794c6.844-5.877,13.737-9.07,22.505-13.586c4.862-2.504,29.563-13.825,31.126-20.435
	c3.095-13.088-17.379-20.298-12.946-36.184c5.712-20.435,25.463-33.655,25.287-56.106c-0.507-62.267,46.26-102.692,84.621-146.628
	c33.479-38.351,41.563-89.371,90.342-114.873c67.114-35.002,144.383,19.371,200.533,53.319
	c62.242,37.619,123.987,77.229,198.532,81.994c49.521,3.168,99.344-4.115,147.126-16.867
	c63.072-16.833,105.437-36.681,169.485-5.765c39.025,18.839,88.351,65.801,104.782,3.339c7.567-28.753,8.074-39.181,40.382-48.939
	c34.612-10.462,20.309-7.342,27.729-39.376c4.013-17.257,18.639-37.716,24.858-53.392c5.916-14.914,8.123-21.46,21.753-31.761
	c20.436-15.446,58.229-22.417,55.496-55.257c-2.305-27.636-26.352-57.126,10.993-73.183c10.916-4.696,26.47-1.342,38.107-3.158
	c26.078-4.076,65.572-8.104,86.563,14.484c8.631,9.285,4.491,25.16,20.581,25.517c11.414,0.249,21.109-18.75,30.756-23.403
	c16.451-7.933,37.941-7.997,56.219-9.368c7.518-34.197,9.324-66.041,24.535-97.86c25.98,1.381,82.512,19.771,107.477,0.542
	c17.185-13.234,30.092-73.153,31-92.31c47.129-6.698,105.377-15.968,148.737-34.826c19.771,42.115,2.753,60.119,54.48,79.289
	c20.698,7.679,30.872,6.801,40.714,29.267c10.662,24.335,4.755,54.91,25.258,75.965c17.487,17.965,47.51,16.671,71.87,19.835
	c2.782,0.356,33.011,83.903,43.995,93.896c26.879,24.429,187.809,22.353,219.939,38.106c14.796,7.253,83.75,35.188,83.75,35.188
	v1785.208c0,0-62.605-7.625-78.689,3.741c-27.137,19.177-44.375,78.177-66.51,115.078c-24.213,40.372-64.557,63.946-99.041,93.861
	c-21.685,18.819-93.983,49.667-102.352,76.58c-2.801,9.017,9.129,18.517,10.77,27.226c5.097,27.113,19.889,75.453,8.846,101.863
	c-15.494,37.062-97.215,68.003-89.297,114.355c-1.045-6.098-30.551,19.361-32.513,22.271c-10.642,15.783-5.067,33.099-9.471,49.691
	c-12.282,46.299-44.424,41.451-81.32,63.512c-3.095,21.344-4.784,49.071-13.366,68.53c-11.238,25.479-34.104,43.17-42.715,68.228
	c-8.816,25.645-8.417,63.316-40.041,61.14c-26.947-1.865-54.109-46.055-77.513-58.498c-55.105-29.296-98.709-27.528-160.112-12.542
	c-25.971,6.356-58.083,20.436-82.121,33.006c-29.798,15.578-76.37,117.416-94.892,119.95c-28.217,3.861-88.965-1.445-111.129-17.906
	c-36.32-26.996-3.456-21.724-11.472-57.713c-1.24-5.574-45.859-95.79-50.106-100.042c-39.229-39.352-104.187-19.541-149.948-43.911
	c-61.589-32.796-56.16-128.957-115.903-160.063c-55.633-28.852-92.129,23.11-112.651,65.045
	c-16.52,33.762-47.92,55.604-67.104,86.705c-18.746,30.408-24.751,74.11-29.174,109.083c-5.634,44.551-3.085,76.146-23.999,119.716
	c-23.091,48.08-28.968,63.951-16.832,113.76c15.466,63.443,22.3,75.589-5.507,132.506c-33.684,68.905-59.694,144.778-59.509,221.021
	c0.068,27.748-24.994,40.953-33.771,64.327c-12.078,32.142,10.808,58.21,7.41,90.669c-1.953,18.58-3.231,32.371-12.224,49.774
	c-7.948,15.373-20.162,27.484-30.326,41.3c-10.886,14.802-11.784,32.171-20.63,46.348c-15.935,25.562-56.766,16.569-72.66,42.032
	c-4.442,7.117-1.426,14.538-3.456,21.675c-4.121,14.45-14.714,26.859-25.122,36.73c-23.853,22.593-33.499,44.404-34.992,78.304
	c-2.949,66.606-14.235,130.206-31.976,195.075c-11.629,42.521-14.548,87.608-19.43,131.808
	c-5.819,52.675-45.127,203.199-125.334,166.42c-38.371-17.613-56.111-158.658-59.968-198.923
	c-1.875-19.526,11.188-37.745,6.951-57.341c-4.179-19.371-35.197-12.225-27.104-47.568c0.742-3.261-82.121-39.142-91.475-41.407
	c-37.189-9.021-58.864-2.108-92.129,15.29c-60.23,31.497-91.133,92.852-146.395,131.544
	c-58.513,40.958-94.462,72.494-135.723,129.074c-67.173,92.1-155.973,100.887-265.598,103.767
	c-67.437,1.777-109.615,34.173-153.131,89.033c-29.739,37.502-83.918,121.43-137.266,123.188
	c-64.566,2.118-115.444-59.86-188.446-43.517c-53.621,11.999-91.903,68.257-124.436,109.879
	c-41.046,52.519-50.761,25.991-89.61-37.668c-14.537-23.823-48.622-66.948-56.931-89.414c-6.034-16.306,2.987-26.811-2.178-41.065
	c-2.157-5.946,1.68-15.846-1.864-24.126c-7.714-18.023-56.297-32.913-69.79-52.273c-12.116-17.409-22.378-25.054-19.195-47.695
	c-56.101,1.006-64.508-22.251-99.773-44.609c-31.214-19.801-71.732-22.456-101.922-42.091
	c-36.563-23.784-17.701-16.451-28.382-51.902c-11.609-38.479-34.72-89.747-80.716-36.984
	c-24.613,28.294-52.195,121.79-113.14,95.067c-50.985-22.368-60.095-89.933-103.112-120.951
	c-40.89-29.485-88.722-26.83-108.043-84.347c-9.549-28.412,10.446-58.152-10.184-82.609
	c-36.545-43.33-155.904-17.594-210.678-17.369c-46.006,0.195-81.555,0.967-117.992-30.023
	c-35.617-30.306-29.232-37.023-72.65-44.961c-53.075-9.695-115.835,14.47-161.509,36.828
	c-34.982,17.125-61.656,44.551-95.087,62.457c-53.436,28.598-109.244,58.104-169.7,67.076
	c-40.294,5.984-97.391,11.237-134.492-6.649c-22.456-10.827-33.636-32.347-52.079-49.413c-20.024,9.646-46.191,5.683-68.032,5.585
	c-29.417-0.127-59.401,1.874-88.76-0.205c-0.645-38.254-1.484-88.819-39.992-112.524c-14.372-8.846-31.79-6.513-49.257-5.673
	c-47.431,2.255-93.446,15.426-141.425,13.444c-2.704-7.333-16.715-32.464-24.633-33.86c-20.895-3.681-47.148,38.146-70.474,40.538
	c-9.539-11.12-15.935-31.331-29.778-37.248c-6.2-2.646-65.162,96.757-71.323,106.091c-16.402,24.878-14.411,62.683-34.26,77.767
	c-13.269,10.086-29.975,7.205-37.893,22.075c-6.718,12.624,4.149,30.199-2.295,43.253c-8.67,17.574-36.555,16.969-51.717,12.233
	c-44.551-13.913-20.758-74.057-75.072-80.568c-1.62-40.489,10.965-80.784,12.205-121.312c1.024-33.714-5.507-45.06-20.064-72.759
	c-8.279-15.768-9.949-52.85-28.881-60.475c-26.498-10.672-62.623,37.267-76.087,54.744c-31.175,40.479-67.017,83.585-103.61,31.106
	c-9.52-13.659-42.325-35.383-45.43-51.933c-2.832-15.173,18.111-31.253,19.214-48.573c1.807-28.207-18.394-36.408-36.408-54.08
	c-39.708-38.957-28.685-90.674-41.846-142.362c-10.926-42.931-9.744-83.2-52.86-107.618c-44.18-25.024-97.83-6.547-144.539-21.783
	c-63.082-20.571-113.315-67.451-177.882-85.299c-48.71-13.464-168.986,68.315-198.975,88.513V2826.5c0,0,26.933-39,42.996-39
	c46.381,0,66.468-64.262,113.557-50.812c46.992,13.43,114.458,33.782,160.991,13.001c39.249-17.536,70.941-57.024,110.621-67.232
	c38.233-9.841,91.934-1.288,131.983-1.205c41.974,0.088,84.454-0.649,126.066-6.688c73.236-10.628,119.711-47.963,194.724-62.999
	c23.022-4.618,47.383-4.281,70.679-5.961c19.059-1.372,37.688-0.327,52.527-14.191c11.805-11.027,14.821-28.665,26.957-39.396
	c6.757-5.976,15.397-7.84,24.175-10.076c7.255-1.845,16.881-5.219,24.331-5.136c5.038,0.059,12.126,1.865,17.047,3.281
	c11.785,3.383,18.785,7.371,31.702,7.4c24.888,0.059,46.328-20.152,71.518-20.03c18.238,0.088,30.023,11.883,48.076,11.639
	c12.653-0.171,31.692-1.489,42.599-8.812c8.973-6.015,14.586-15.28,23.92-20.904c13.181-7.947,27.133-14.694,41.319-20.601
	c11.854-4.94,23.481-3.154,35.656-4.838c10.818-1.499,17.517-6.41,28.178-10.11c12.985-4.511,26.147-2.626,39.973-3.007
	c30.745-0.85,67.271-0.127,95.722-11.707c25.834-10.524,38.146-16.412,66.021-13.337c17.838,1.968,33.685,6.981,51.708,6.713
	c25.453-0.376,40.216-10.867,57.106-29.916c11.824-13.342,19.82-29.393,29.896-43.979c5.203-7.542,12.927-13.596,17.906-20.991
	c3.954-5.863,3.241-14.567,8.27-20.25c8.865,2.519,9.949,13.864,18.258,17.721c9.285,4.306,20.981-2.675,29.896-5.692
	c16.218-5.477,35.891-7.137,51.22,1.426c18.092,10.105,37.375,19.806,59.05,20.465c25.775,0.78,58.864,0.692,83.088,10.446
	c5.683,2.285,10.643,6.259,16.402,8.523c7.675,3.018,12.811,3.018,21.578,5.043c8.113,1.88,15.201,5.795,23.256,7.177
	c3.594,0.61,6.132,1.361,10.672,1.308c7.538-0.083,13.034-5.042,19.195-5.13c2.821-0.039,2.841,3.705,6.396,3.881
	c7.352,0.366,13.063-2.71,20.034-3.584c10.174-1.283,20.963-0.121,31.214-0.185c26.684-0.171,41.554-20.704,63.287-32.557
	c11.16-6.088,25.981-3.433,37.551-7.313c15.729-5.282,12.01-7.156,32.327-1.581c17.447,4.779,28.842,14.889,44.326,23.018
	c13.522,7.098,21.588,24.257,37.014,24.774c23.159,0.762,38.391-19.635,59.323-24.77c15.827-3.887,33.333-9.275,49.442-10.999
	c8.183-0.874,16.032,0.562,23.97-1.772c6.894-2.021,12.956-5.16,19.938-6.707c6.6-1.47,13.747-1.572,20.435-2.49
	c9.178-1.254,18.268-6.829,27.055-10.544c18.014-7.616,37.287-8.846,56.424-12.107c27.377-4.657,54.793-12.038,82.756-11.521
	c13.054,0.244,25.375,4.071,38.546,4.169c15.935,0.117,34.202,3.466,44.171,17.389c3.036,4.247,5.292,14.528,8.963,17.706
	c7.947,6.874,8.797-3.217,12.79-10.202c8.279-14.46,23.315-18.238,31.478-31.2c2.606-4.149,3.661-9.695,6.298-13.737
	c9.051-13.894,17.975-27.806,26.859-41.958c7.215-11.468,18.268-18.517,26.752-28.817c7.723-9.383,11.813-21.309,19.693-30.613
	c3.603-4.247,7.898-7.421,10.993-12.103c4.003-6.043,5.497-13.415,9.822-19.297c5.448-7.416,12.829-13.367,18.59-20.68
	c10.047-12.756,20.386-24.379,32.425-35.095c30.12-26.801,66.665-42.081,98.68-65.44c17.379-12.688,40.655-17.838,60.817-24.833
	c35.285-12.244,74.477-17.125,111.802-16.886c21.812,0.142,50.956,6.947,70.483-5.951c13.63-9.002,15.144-27.846,23.843-40.987
	c7.703-11.638,19.048-21.05,24.311-34.25c10.721-26.908,0.908-58.229,3.359-86.007c1.786-20.24,13.737-38.127,20.581-56.99
	c4.901-13.483,11.784-28.09,20.475-39.679c22.886-30.545,63.033-46.177,92.06-70.688c22.896-19.336,45.254-44.434,71.323-59.05
	c32.386-18.155,61.383-39.113,91.68-60.592c12.438-8.826,24.682-20.401,38.429-27.138c8.191-4.013,13.796-4.75,20.465-11.848
	c12.546-13.356,18.531-31.346,28.841-46.191c11.805-16.989,23.921-37.199,29.877-56.902c6.21-20.533,27.133-26.391,35.393-42.764
	c7.391-14.65-3.075-35.022,4.784-49.95c8.416-15.934,23.306-27.231,34.631-40.9c10.252-12.375,19.635-25.443,29.613-38.136
	c24.438-31.092,41.896-64.601,68.979-93.315c23.589-25.019,46.006-51.166,70.502-75.32c18.99-18.722,48.682-36.013,59.294-61.076
	c7.821-18.468,5.419-24.033,27.23-26.669c29.125-3.52,34.563,11.789,53.749,28.983c15.836,14.187,33.43,27.328,33.615,50.683
	c0.059,7.904-4.608,38.092-1.444,44.624c9.109,18.775,32.054,16.862,48.632,17.75c21.011,1.123,40.694,6.019,58.415,17.76
	c16.364,10.847,28.422,27.382,45.43,37.609c6.22,3.74,13.728,5.907,19.664,9.646c10.389,6.537,14.001,13.278,18.248,24.067
	c6.658,16.93,0.605,26.542,21.851,32.376C4476.682,1258.089,4508.979,1254.374,4529.99,1241.832z"/>
<g id="ljAcj5_1_">
	
		<image overflow="visible" width="1600" height="1113" id="ljAcj5" xlink:href="5D777B4F1BD426EA.jpg"  transform="matrix(2.5513 0 0 2.5513 524.2241 244.1733)">
	</image>
</g>
<rect x="524.224" y="-730.492" width="4082.042" height="581.884"/>
<path d="M5670.557,2987.709c-14.055-4.29-17.921,4.406-27.14,12.507c-8.469,7.441-8.981,5.773-11.214,18.721
	c-1.569,9.097-4.325,17.775-4.054,27.129c0.23,7.908-1.566,9.571,3.66,15.019c7.229,7.533,32.896,10.821,42.538,14.481
	c20.056,7.613,35.12,20.835,49.466,0.8c8.351-11.662,8.729-22.031,7.49-36.23
	C5728.768,3011.063,5696.489,2995.625,5670.557,2987.709z"/>
<path d="M6666.608,3143.637c-9.749-6.31-19.1-12.733-33.308-11.613c-13.931,1.099-28.318,4.355-42.069,7.135
	c-3.741,18.385,4.294,27.52,17.569,38.532c19.861,16.476,35.281,21.922,61.57,17.79c10.965-1.724,20.341-8.396,30.703-11.916
	c8.4-2.854,20.326-7.245,16.531-21.098c-3.63-13.247-22.664-6.765-31.414-9.123
	C6678.708,3151.327,6672.584,3147.503,6666.608,3143.637z"/>
<path d="M898.702,4461.014c-9.477-10.646-36.185-28.937-51.333-23.289c-20.546,7.659-16.753,39.526-12.487,55.669
	c5.289,20.012-9.92,53.579,6.426,67.407c12.039,10.185,33.816,18.339,48.372,24.218c19.428,7.847,66.824,13.402,77.305-10.974
	c7.747-18.017,1.691-53.604-11.929-67.014c-11.413-11.235-22.116-21.03-36.535-27.455
	C907.595,4474.709,906.755,4470.062,898.702,4461.014z"/>
</svg>
