<?xml version="1.0" encoding="utf-8"?>
<!-- Generator: Adobe Illustrator 16.2.1, SVG Export Plug-In . SVG Version: 6.00 Build 0)  -->
<!DOCTYPE svg PUBLIC "-//W3C//DTD SVG 1.1//EN" "http://www.w3.org/Graphics/SVG/1.1/DTD/svg11.dtd">
<svg version="1.1" id="Ebene_1" xmlns="http://www.w3.org/2000/svg" xmlns:xlink="http://www.w3.org/1999/xlink" x="0px" y="0px"
	 width="7200px" height="5000px" viewBox="0 0 7200 5000" enable-background="new 0 0 7200 5000" xml:space="preserve">
<g>
	<defs>
		<path id="SVGID_1_" d="M1120.9,1740.1c-6.6-29-18.7-55.7-41.4-75.8c-17.6-15.6-26.4-36.8-39.9-55.7c-14.9-21-32.7-40.4-53.3-56
			c-13.8-10.5-68.2-49.7-56.6-70.5c10.1-18.2,47.5,2.8,59.7,9.7c23.9,13.5,61.2,3.5,87.5,3.1c33.5-0.6,66.4-3.6,99.7-7.6
			c33.9-4.1,69.7-9.8,103.9-6c18.2,2,44.2,13.3,49.7,32.5c6.7,23.5,9.1,48.2,11.3,72.6c1.4,16.4,7.7,29.3,14.3,44.2
			c4.7,10.4,7.3,26.1,14.6,35c5,6.1,14.3,12,21.2,15.2c9.7,4.4,18.6,9.3,26.5,17c4.2,4.1,7.1,9.4,11.9,13c5.1,3.9,10.9,4.4,16.5,6.9
			c10.9,5,22.3,12.2,32.4,18.8c20.4,13.3,40.5,29,51.8,51.3c6.5,12.8,9.7,27,9.3,41.3c-1.4,51.2,24.7,80,51.5,120.1
			c17.9,26.7,41.5,43.5,60,68.6c18.4,24.9,45.7,35.4,68.9,54.1c11.2,9,23.1,16.8,34.7,25c60.2,42.6,122.2,98.4,173.3,153.1
			c11.4,12.2,45.5,43.1,29.4,62c-9.2,10.8-23.5,1.6-34-2.2c-19.3-7.1-41.6-12.3-62.3-9c-26.2,4.1-27.3,38.4-46.7,57.5
			c-19,18.7-52.2,45.1-81.2,38.8c-12.1-2.6-28-12.2-38.7-18.3c-40.3-23.1-46.4-62-69.5-98.6c-18.9-30-35.1-45.9-39.9-81.4
			c-2.9-21.5-17-25.3-33.1-38.2c-37.8-30.3-99.1-56.9-147.4-62.4c-39.3-4.5-66.7,5.5-100.6-17.6c-38.4-26.3-77.2-49.6-101-91
			c-17-29.7-28.6-62-42.3-93.3c-11.4-26-37.6-55.6-39.5-84.2c-0.6-9.3-0.1-18.1,0.6-26.8C1123.2,1770.4,1124.5,1756.2,1120.9,1740.1
			z M1942,2407.6c15.3-33-26.6-45.5-49.1-28.2c-6.4,5-24.8,13.4-25.2,21.8c-0.5,9.9,13.6,17.3,21.3,19.3
			C1908,2425.2,1932.5,2427.9,1942,2407.6z M2523.5,3584c-10.1-7.3-23.7-9.8-35.7-11.6c-12.7-1.9-25.1,8.6-36.8,12.5
			c-7.9,2.6-25.2-2-23.9,10.8c0.9,9.6,11.6,8.1,18.5,9.6c13.2,3,25.8,14.5,36,22.8c11,8.9,29.8,28.3,45.5,23.7
			C2559.6,3642.2,2542.3,3597.7,2523.5,3584z M2865.7,4173.4c-19.9,1.4-35.2-1.6-56.3-2.4c-55.9-2.1-65.1,100-20.3,119.6
			c21,9.2,53.2,1.6,74-4.7c31.4-9.7,45.7-31.5,71.5-48.1c29.9-19.3,64-31.2,78.6-67.3c11.3-27.7,3.4-41.5-24.8-51
			c-29.8-10.1-45.4-4-64,21.3c-18.5,25.1-19.6,27.9-50,31.8C2871.4,4172.9,2868.5,4173.2,2865.7,4173.4z M0,923.4
			c23.6,24.6,50.7,46.6,69.9,74.8c15.4,22.6,15.8,51.6,29.7,78.6c16.4,31.8,44.2,53.7,64.2,82.5c22.2,31.9,48.5,62.9,74.7,91.7
			c43.9,48.4,78.2,104.5,114.2,158.8c26.7,40.2,52.6,85.3,99.5,104c45,17.9,91.4,28.3,136.4,48.6c50.6,22.8,124.4,38.1,155.7,88.1
			c17.9,28.5,33.2,58.4,48.6,88.3c35.8,69,75.1,136.3,141.1,180.7c67.1,45.2,130.4,65.5,170.6,142.5c21.6,41.3,56.9,76.1,74.3,119.2
			c22.5,55.7,13.4,122.1,32.3,180.2c12.8,39.4,35.3,74.6,54.2,111.3c52.4,101.7,126,207.7,229.9,262.4c38.3,20.2,81.7,28,120.1,48.1
			c28,14.7,52.3,35.5,79.9,50.7c67.4,37,144.7,26.1,206.7,78.9c55.8,47.5,80.8,128.6,147.1,164c40.6,21.7,88.8,21.4,133.4,22.9
			c44.4,1.4,74.7,31.5,108.8,57.8c52.9,40.8,107.1,79.7,156.8,124.5c31.8,28.6,64.5,69.1,103.5,88.2c26.1,12.8,46.7,18.2,70.1,39.1
			c90.4,80.5,138.9,178.2,150.5,296.7c7.7,78.6,16.3,151.9,35.4,228.3c12.4,49.7,13.2,98.4-17.8,141.7
			c-30.2,42.2-95.7,65-116.1,112.9c-16.7,39.4,16.9,77.9,38.8,107.7c25.2,34.2,50.3,76.1,85.7,100.8c34.3,23.9,81.8,31.2,120.4,13.1
			c42.5-19.9,41.1-57.1,67.1-88.6c25.5-30.9,75.8-20.8,111.1-18.9c51.6,2.9,110-1.6,160.5,10.3c29.3,6.9,41.7,28.2,64.3,45.5
			c22.1,16.9,45.8,21.9,72.1,28.4c33.2,8.2,76.6,21.4,100.6,47.2c23.8,25.5,40.5,52.6,69.5,74.4c61.6,46.3,141.4,59.9,216.9,55.9
			c42.6-2.3,84.9-10.1,125.3-24c26.7-9.1,48.3-3,74.7-6.8c30.3-4.3,51.8-25.8,79.2-38.1c22.2-9.9,46.4-9.4,68.1-18.7
			c17.1-7.3,32-22.7,47.8-32.6c53.1-32.9,45.1-5.7,78.5,32.1c41.7,47.1,95.6,66.9,145.9,107.2c0,0,0,0,0,0
			c38.1,30.6,69.6,66.9,110.7,94c24.4,16.1,47.7,28.4,63.5,54c29.2,47.4-10.2,116.9,54.3,131.6c35.5,8.1,77.7-0.8,114.7,5.3
			c48.5,8.1,93.9,27.8,142.9,37.7c57.4,11.6,113.3,29.8,162.2,62.7c16.4,11,26.5,21.4,31.5,31H0V923.4z M1935.8,3616.4
			c39,25.4,84.2,40.2,127.6,56.1c101,37,194.4,85.6,280.2,150.9c47,35.8,90.1,87.8,153.8,86.7c24.6-0.4,54.7-5.6,73.8-22.5
			c19.9-17.7,16-40.1,7.6-62.7c-9.2-24.8-19.1-47.3-16-74.5c4.1-36.6,23.9-69.4,30.2-105.6c17.9-103.1-99-117.5-175.1-113.4
			c-35.7,1.9-71.2,6.3-106.9,9c-29.5,2.2-60.2,4.4-89.6-0.3c-18.3-2.9-34.5-10.2-51.8-16.1c-49.4-16.9-98.6,15.2-147.3,1
			c-17.5-5.1-32.7-8.1-51.2-7.3c-25.7,1.2-75.4,4.6-81.7,36.7C1884.5,3581.2,1917.1,3604.2,1935.8,3616.4z M5255.2,4884.9
			c-3.2-5.3-7.4-5.3-13.1-7c-6.8-2.1-13.9-3.9-21-4.1c-4.2-0.1-14,1.2-16.5,5c-2.7,4.1,2.6,14.6,5.3,17.5c4.1,4.4,9.3,4.6,14.4,7
			c7.3,3.3,13.8,2.6,21.8,2.9c7.2,0.3,14.7,2.3,17-6.9C5264.8,4892.6,5258.3,4890,5255.2,4884.9z"/>
	</defs>
	<clipPath id="SVGID_2_">
		<use xlink:href="#SVGID_1_"  overflow="visible"/>
	</clipPath>
	<g transform="matrix(1 0 0 1 1.220703e-04 0)" clip-path="url(#SVGID_2_)">
		
			<image overflow="visible" width="1440" height="1000" xlink:href="aquarell2.png"  transform="matrix(6.3168 0 0 6.3168 -1600.25 -92.6875)">
		</image>
	</g>
</g>
</svg>
